# MagicaVoxel @ Ephtracy

# material
mtllib alien_still-00.mtl
usemtl palette

# normals
vn -1 0 0
vn 1 0 0
vn 0 0 1
vn 0 0 -1
vn 0 -1 0
vn 0 1 0

# texcoords
vt 0.435547 0.5
vt 0.970703 0.5
vt 0.974609 0.5
vt 0.978516 0.5

# verts
v -3.5 3 0.5
v -3.5 3 -1.5
v -3.5 9 2.5
v -3.5 9 0.5
v -3.5 9 -1.5
v -3.5 9 -3.5
v -3.5 16 2.5
v -3.5 16 -3.5
v -2.5 4 1.5
v -2.5 4 0.5
v -2.5 4 -1.5
v -2.5 4 -2.5
v -2.5 9 1.5
v -2.5 9 0.5
v -2.5 9 -1.5
v -2.5 9 -2.5
v -2.5 17 0.5
v -2.5 17 -0.5
v -2.5 18 0.5
v -2.5 18 -0.5
v -1.5 0 1.5
v -1.5 0 -1.5
v -1.5 1 1.5
v -1.5 1 0.5
v -1.5 4 0.5
v -1.5 4 -1.5
v -1.5 16 0.5
v -1.5 16 -0.5
v -1.5 17 0.5
v -1.5 17 -0.5
v 0.5 0 1.5
v 0.5 0 -1.5
v 0.5 1 1.5
v 0.5 1 0.5
v 0.5 4 0.5
v 0.5 4 -1.5
v 0.5 16 0.5
v 0.5 16 -0.5
v 0.5 19 0.5
v 0.5 19 -0.5
v 2.5 3 0.5
v 2.5 3 -1.5
v 2.5 4 0.5
v 2.5 4 -1.5
v -2.5 3 0.5
v -2.5 3 -1.5
v -2.5 4 0.5
v -2.5 4 -1.5
v -0.5 0 1.5
v -0.5 0 -1.5
v -0.5 1 1.5
v -0.5 1 0.5
v -0.5 4 0.5
v -0.5 4 -1.5
v -0.5 16 0.5
v -0.5 16 -0.5
v -0.5 18 0.5
v -0.5 18 -0.5
v 1.5 0 1.5
v 1.5 0 -1.5
v 1.5 1 1.5
v 1.5 1 0.5
v 1.5 4 0.5
v 1.5 4 -1.5
v 1.5 16 0.5
v 1.5 16 -0.5
v 1.5 18 0.5
v 1.5 18 -0.5
v 2.5 4 1.5
v 2.5 4 0.5
v 2.5 4 -1.5
v 2.5 4 -2.5
v 2.5 9 1.5
v 2.5 9 0.5
v 2.5 9 -1.5
v 2.5 9 -2.5
v 2.5 18 0.5
v 2.5 18 -0.5
v 2.5 19 0.5
v 2.5 19 -0.5
v 3.5 3 0.5
v 3.5 3 -1.5
v 3.5 9 2.5
v 3.5 9 0.5
v 3.5 9 -1.5
v 3.5 9 -3.5
v 3.5 16 2.5
v 3.5 16 -3.5
v -3.5 9 2.5
v -3.5 16 2.5
v -2.5 12 2.5
v -2.5 14 2.5
v -0.5 12 2.5
v -0.5 14 2.5
v 0.5 12 2.5
v 0.5 14 2.5
v 2.5 12 2.5
v 2.5 14 2.5
v 3.5 9 2.5
v 3.5 16 2.5
v -2.5 4 1.5
v -2.5 9 1.5
v -1.5 0 1.5
v -1.5 1 1.5
v -0.5 0 1.5
v -0.5 1 1.5
v 0.5 0 1.5
v 0.5 1 1.5
v 1.5 0 1.5
v 1.5 1 1.5
v 2.5 4 1.5
v 2.5 9 1.5
v -3.5 3 0.5
v -3.5 9 0.5
v -2.5 3 0.5
v -2.5 4 0.5
v -2.5 9 0.5
v -2.5 17 0.5
v -2.5 18 0.5
v -1.5 1 0.5
v -1.5 4 0.5
v -1.5 16 0.5
v -1.5 17 0.5
v -0.5 1 0.5
v -0.5 4 0.5
v -0.5 16 0.5
v -0.5 18 0.5
v 0.5 1 0.5
v 0.5 4 0.5
v 0.5 16 0.5
v 0.5 19 0.5
v 1.5 1 0.5
v 1.5 4 0.5
v 1.5 16 0.5
v 1.5 18 0.5
v 2.5 3 0.5
v 2.5 4 0.5
v 2.5 9 0.5
v 2.5 18 0.5
v 2.5 19 0.5
v 3.5 3 0.5
v 3.5 9 0.5
v -2.5 17 -0.5
v -2.5 18 -0.5
v -1.5 16 -0.5
v -1.5 17 -0.5
v -0.5 16 -0.5
v -0.5 18 -0.5
v 0.5 16 -0.5
v 0.5 19 -0.5
v 1.5 16 -0.5
v 1.5 18 -0.5
v 2.5 18 -0.5
v 2.5 19 -0.5
v -3.5 3 -1.5
v -3.5 9 -1.5
v -2.5 3 -1.5
v -2.5 4 -1.5
v -2.5 9 -1.5
v -1.5 0 -1.5
v -1.5 4 -1.5
v -0.5 0 -1.5
v -0.5 4 -1.5
v 0.5 0 -1.5
v 0.5 4 -1.5
v 1.5 0 -1.5
v 1.5 4 -1.5
v 2.5 3 -1.5
v 2.5 4 -1.5
v 2.5 9 -1.5
v 3.5 3 -1.5
v 3.5 9 -1.5
v -2.5 4 -2.5
v -2.5 9 -2.5
v 2.5 4 -2.5
v 2.5 9 -2.5
v -3.5 9 -3.5
v -3.5 16 -3.5
v 3.5 9 -3.5
v 3.5 16 -3.5
v -1.5 0 1.5
v -0.5 0 1.5
v 0.5 0 1.5
v 1.5 0 1.5
v -1.5 0 -1.5
v -0.5 0 -1.5
v 0.5 0 -1.5
v 1.5 0 -1.5
v -3.5 3 0.5
v -2.5 3 0.5
v 2.5 3 0.5
v 3.5 3 0.5
v -3.5 3 -1.5
v -2.5 3 -1.5
v 2.5 3 -1.5
v 3.5 3 -1.5
v -2.5 4 1.5
v 2.5 4 1.5
v -2.5 4 0.5
v -1.5 4 0.5
v -0.5 4 0.5
v 0.5 4 0.5
v 1.5 4 0.5
v 2.5 4 0.5
v -2.5 4 -1.5
v -1.5 4 -1.5
v -0.5 4 -1.5
v 0.5 4 -1.5
v 1.5 4 -1.5
v 2.5 4 -1.5
v -2.5 4 -2.5
v 2.5 4 -2.5
v -3.5 9 2.5
v 3.5 9 2.5
v -2.5 9 1.5
v 2.5 9 1.5
v -3.5 9 0.5
v -2.5 9 0.5
v 2.5 9 0.5
v 3.5 9 0.5
v -3.5 9 -1.5
v -2.5 9 -1.5
v 2.5 9 -1.5
v 3.5 9 -1.5
v -2.5 9 -2.5
v 2.5 9 -2.5
v -3.5 9 -3.5
v 3.5 9 -3.5
v -2.5 17 0.5
v -1.5 17 0.5
v -2.5 17 -0.5
v -1.5 17 -0.5
v 1.5 18 0.5
v 2.5 18 0.5
v 1.5 18 -0.5
v 2.5 18 -0.5
v -1.5 1 1.5
v -0.5 1 1.5
v 0.5 1 1.5
v 1.5 1 1.5
v -1.5 1 0.5
v -0.5 1 0.5
v 0.5 1 0.5
v 1.5 1 0.5
v -3.5 16 2.5
v 3.5 16 2.5
v -1.5 16 0.5
v -0.5 16 0.5
v 0.5 16 0.5
v 1.5 16 0.5
v -1.5 16 -0.5
v -0.5 16 -0.5
v 0.5 16 -0.5
v 1.5 16 -0.5
v -3.5 16 -3.5
v 3.5 16 -3.5
v -2.5 18 0.5
v -0.5 18 0.5
v -2.5 18 -0.5
v -0.5 18 -0.5
v 0.5 19 0.5
v 2.5 19 0.5
v 0.5 19 -0.5
v 2.5 19 -0.5

# faces
f 4/3/1 2/3/1 1/3/1
f 5/3/1 2/3/1 4/3/1
f 7/2/1 4/2/1 3/2/1
f 7/2/1 6/2/1 5/2/1
f 7/2/1 5/2/1 4/2/1
f 8/2/1 6/2/1 7/2/1
f 13/2/1 10/2/1 9/2/1
f 14/2/1 10/2/1 13/2/1
f 15/2/1 12/2/1 11/2/1
f 16/2/1 12/2/1 15/2/1
f 19/3/1 18/3/1 17/3/1
f 20/3/1 18/3/1 19/3/1
f 23/3/1 22/3/1 21/3/1
f 24/3/1 22/3/1 23/3/1
f 25/3/1 22/3/1 24/3/1
f 26/3/1 22/3/1 25/3/1
f 29/3/1 28/3/1 27/3/1
f 30/3/1 28/3/1 29/3/1
f 33/3/1 32/3/1 31/3/1
f 34/3/1 32/3/1 33/3/1
f 35/3/1 32/3/1 34/3/1
f 36/3/1 32/3/1 35/3/1
f 39/3/1 38/3/1 37/3/1
f 40/3/1 38/3/1 39/3/1
f 43/3/1 42/3/1 41/3/1
f 44/3/1 42/3/1 43/3/1
f 45/3/2 46/3/2 47/3/2
f 47/3/2 46/3/2 48/3/2
f 49/3/2 50/3/2 51/3/2
f 51/3/2 50/3/2 52/3/2
f 52/3/2 50/3/2 53/3/2
f 53/3/2 50/3/2 54/3/2
f 55/3/2 56/3/2 57/3/2
f 57/3/2 56/3/2 58/3/2
f 59/3/2 60/3/2 61/3/2
f 61/3/2 60/3/2 62/3/2
f 62/3/2 60/3/2 63/3/2
f 63/3/2 60/3/2 64/3/2
f 65/3/2 66/3/2 67/3/2
f 67/3/2 66/3/2 68/3/2
f 69/2/2 70/2/2 73/2/2
f 73/2/2 70/2/2 74/2/2
f 71/2/2 72/2/2 75/2/2
f 75/2/2 72/2/2 76/2/2
f 77/3/2 78/3/2 79/3/2
f 79/3/2 78/3/2 80/3/2
f 81/3/2 82/3/2 84/3/2
f 84/3/2 82/3/2 85/3/2
f 83/2/2 84/2/2 87/2/2
f 85/2/2 86/2/2 87/2/2
f 84/2/2 85/2/2 87/2/2
f 87/2/2 86/2/2 88/2/2
f 91/2/3 90/2/3 89/2/3
f 92/2/3 90/2/3 91/2/3
f 93/2/3 91/2/3 89/2/3
f 93/4/3 92/4/3 91/4/3
f 94/2/3 90/2/3 92/2/3
f 94/4/3 92/4/3 93/4/3
f 95/2/3 93/2/3 89/2/3
f 95/2/3 94/2/3 93/2/3
f 96/2/3 90/2/3 94/2/3
f 96/2/3 94/2/3 95/2/3
f 97/2/3 95/2/3 89/2/3
f 97/4/3 96/4/3 95/4/3
f 98/2/3 90/2/3 96/2/3
f 98/4/3 96/4/3 97/4/3
f 99/2/3 97/2/3 89/2/3
f 99/2/3 98/2/3 97/2/3
f 100/2/3 90/2/3 98/2/3
f 100/2/3 98/2/3 99/2/3
f 105/3/3 104/3/3 103/3/3
f 106/3/3 104/3/3 105/3/3
f 109/3/3 108/3/3 107/3/3
f 110/3/3 108/3/3 109/3/3
f 111/2/3 102/2/3 101/2/3
f 112/2/3 102/2/3 111/2/3
f 115/3/3 114/3/3 113/3/3
f 116/3/3 114/3/3 115/3/3
f 117/3/3 114/3/3 116/3/3
f 123/3/3 119/3/3 118/3/3
f 124/3/3 121/3/3 120/3/3
f 125/3/3 121/3/3 124/3/3
f 126/3/3 123/3/3 122/3/3
f 127/3/3 119/3/3 123/3/3
f 127/3/3 123/3/3 126/3/3
f 132/3/3 129/3/3 128/3/3
f 133/3/3 129/3/3 132/3/3
f 134/3/3 131/3/3 130/3/3
f 135/3/3 131/3/3 134/3/3
f 139/3/3 131/3/3 135/3/3
f 140/3/3 131/3/3 139/3/3
f 141/3/3 138/3/3 137/3/3
f 141/3/3 137/3/3 136/3/3
f 142/3/3 138/3/3 141/3/3
f 143/3/4 144/3/4 146/3/4
f 145/3/4 146/3/4 147/3/4
f 146/3/4 144/3/4 148/3/4
f 147/3/4 146/3/4 148/3/4
f 149/3/4 150/3/4 151/3/4
f 151/3/4 150/3/4 152/3/4
f 152/3/4 150/3/4 153/3/4
f 153/3/4 150/3/4 154/3/4
f 155/3/4 156/3/4 157/3/4
f 157/3/4 156/3/4 158/3/4
f 158/3/4 156/3/4 159/3/4
f 160/3/4 161/3/4 162/3/4
f 162/3/4 161/3/4 163/3/4
f 164/3/4 165/3/4 166/3/4
f 166/3/4 165/3/4 167/3/4
f 168/3/4 169/3/4 171/3/4
f 169/3/4 170/3/4 171/3/4
f 171/3/4 170/3/4 172/3/4
f 173/2/4 174/2/4 175/2/4
f 175/2/4 174/2/4 176/2/4
f 177/2/4 178/2/4 179/2/4
f 179/2/4 178/2/4 180/2/4
f 185/3/5 182/3/5 181/3/5
f 186/3/5 182/3/5 185/3/5
f 187/3/5 184/3/5 183/3/5
f 188/3/5 184/3/5 187/3/5
f 193/3/5 190/3/5 189/3/5
f 194/3/5 190/3/5 193/3/5
f 195/3/5 192/3/5 191/3/5
f 196/3/5 192/3/5 195/3/5
f 199/2/5 198/2/5 197/2/5
f 200/2/5 198/2/5 199/2/5
f 201/2/5 198/2/5 200/2/5
f 202/2/5 198/2/5 201/2/5
f 203/2/5 198/2/5 202/2/5
f 204/2/5 198/2/5 203/2/5
f 205/2/5 200/2/5 199/2/5
f 206/2/5 200/2/5 205/2/5
f 207/2/5 202/2/5 201/2/5
f 208/2/5 202/2/5 207/2/5
f 209/2/5 204/2/5 203/2/5
f 210/2/5 204/2/5 209/2/5
f 211/2/5 208/2/5 207/2/5
f 211/2/5 206/2/5 205/2/5
f 211/2/5 210/2/5 209/2/5
f 211/2/5 209/2/5 208/2/5
f 211/2/5 207/2/5 206/2/5
f 212/2/5 210/2/5 211/2/5
f 215/2/5 214/2/5 213/2/5
f 216/2/5 214/2/5 215/2/5
f 217/2/5 215/2/5 213/2/5
f 218/2/5 215/2/5 217/2/5
f 219/2/5 214/2/5 216/2/5
f 220/2/5 214/2/5 219/2/5
f 225/2/5 222/2/5 221/2/5
f 226/2/5 224/2/5 223/2/5
f 227/2/5 225/2/5 221/2/5
f 227/2/5 226/2/5 225/2/5
f 228/2/5 224/2/5 226/2/5
f 228/2/5 226/2/5 227/2/5
f 231/3/5 230/3/5 229/3/5
f 232/3/5 230/3/5 231/3/5
f 235/3/5 234/3/5 233/3/5
f 236/3/5 234/3/5 235/3/5
f 237/3/6 238/3/6 241/3/6
f 241/3/6 238/3/6 242/3/6
f 239/3/6 240/3/6 243/3/6
f 243/3/6 240/3/6 244/3/6
f 245/2/6 246/2/6 247/2/6
f 247/2/6 246/2/6 248/2/6
f 248/2/6 246/2/6 249/2/6
f 249/2/6 246/2/6 250/2/6
f 245/2/6 247/2/6 251/2/6
f 248/2/6 249/2/6 252/2/6
f 252/2/6 249/2/6 253/2/6
f 250/2/6 246/2/6 254/2/6
f 252/2/6 253/2/6 255/2/6
f 253/2/6 254/2/6 255/2/6
f 245/2/6 251/2/6 255/2/6
f 251/2/6 252/2/6 255/2/6
f 254/2/6 246/2/6 256/2/6
f 255/2/6 254/2/6 256/2/6
f 257/3/6 258/3/6 259/3/6
f 259/3/6 258/3/6 260/3/6
f 261/3/6 262/3/6 263/3/6
f 263/3/6 262/3/6 264/3/6
