# MagicaVoxel @ Ephtracy

# material
mtllib RadiactiveCan2.mtl
usemtl palette

# normals
vn -1 0 0
vn 1 0 0
vn 0 0 1
vn 0 0 -1
vn 0 -1 0
vn 0 1 0

# texcoords
vt 0.162109 0.5
vt 0.794922 0.5
vt 0.982422 0.5
vt 0.990234 0.5
vt 0.994141 0.5

# verts
v -8.5 0 8.5
v -8.5 0 -7.5
v -8.5 1 8.5
v -8.5 1 6.5
v -8.5 1 0.5
v -8.5 1 -7.5
v -8.5 2 6.5
v -8.5 2 4.5
v -8.5 2 3.5
v -8.5 2 1.5
v -8.5 2 0.5
v -8.5 4 3.5
v -8.5 4 2.5
v -8.5 4 1.5
v -8.5 5 4.5
v -8.5 5 2.5
v -7.5 1 0.5
v -7.5 1 -5.5
v -7.5 2 6.5
v -7.5 2 4.5
v -7.5 2 1.5
v -7.5 2 0.5
v -7.5 2 -5.5
v -7.5 2 -6.5
v -7.5 4 2.5
v -7.5 4 1.5
v -7.5 5 4.5
v -7.5 5 2.5
v -7.5 11 6.5
v -7.5 11 5.5
v -7.5 11 -5.5
v -7.5 11 -6.5
v -7.5 12 5.5
v -7.5 12 4.5
v -7.5 12 -4.5
v -7.5 12 -5.5
v -7.5 13 4.5
v -7.5 13 -4.5
v -5.5 1 6.5
v -5.5 1 5.5
v -5.5 1 -5.5
v -5.5 1 -6.5
v -5.5 2 7.5
v -5.5 2 6.5
v -5.5 2 5.5
v -5.5 2 -5.5
v -5.5 2 -6.5
v -5.5 2 -7.5
v -5.5 11 7.5
v -5.5 11 6.5
v -5.5 11 5.5
v -5.5 11 -5.5
v -5.5 11 -6.5
v -5.5 11 -7.5
v -5.5 12 6.5
v -5.5 12 5.5
v -5.5 12 4.5
v -5.5 12 -4.5
v -5.5 12 -5.5
v -5.5 12 -6.5
v -5.5 13 5.5
v -5.5 13 4.5
v -5.5 13 -4.5
v -5.5 13 -5.5
v -5.5 14 4.5
v -5.5 14 -4.5
v 5.5 0 5.5
v 5.5 0 4.5
v 5.5 0 -4.5
v 5.5 0 -5.5
v 5.5 1 6.5
v 5.5 1 5.5
v 5.5 1 4.5
v 5.5 1 -4.5
v 5.5 1 -5.5
v 5.5 1 -6.5
v 5.5 2 7.5
v 5.5 2 6.5
v 5.5 2 5.5
v 5.5 2 -5.5
v 5.5 2 -6.5
v 5.5 2 -7.5
v 5.5 11 7.5
v 5.5 11 6.5
v 5.5 11 5.5
v 5.5 11 -5.5
v 5.5 11 -6.5
v 5.5 11 -7.5
v 5.5 12 6.5
v 5.5 12 5.5
v 5.5 12 4.5
v 5.5 12 -4.5
v 5.5 12 -5.5
v 5.5 12 -6.5
v 5.5 13 5.5
v 5.5 13 4.5
v 5.5 13 -4.5
v 5.5 13 -5.5
v 5.5 14 4.5
v 5.5 14 -4.5
v -6.5 1 6.5
v -6.5 1 5.5
v -6.5 2 6.5
v -6.5 2 5.5
v -4.5 1 6.5
v -4.5 1 5.5
v -4.5 1 -5.5
v -4.5 1 -6.5
v -4.5 2 7.5
v -4.5 2 6.5
v -4.5 2 5.5
v -4.5 2 -5.5
v -4.5 2 -6.5
v -4.5 2 -7.5
v -4.5 11 7.5
v -4.5 11 6.5
v -4.5 11 5.5
v -4.5 11 -5.5
v -4.5 11 -6.5
v -4.5 11 -7.5
v -4.5 12 6.5
v -4.5 12 5.5
v -4.5 12 4.5
v -4.5 12 -4.5
v -4.5 12 -5.5
v -4.5 12 -6.5
v -4.5 13 5.5
v -4.5 13 4.5
v -4.5 13 -4.5
v -4.5 13 -5.5
v -4.5 14 4.5
v -4.5 14 -4.5
v 2.5 0 8.5
v 2.5 0 4.5
v 2.5 1 8.5
v 2.5 1 5.5
v 2.5 1 4.5
v 3.5 0 -4.5
v 3.5 0 -7.5
v 3.5 1 -4.5
v 3.5 1 -5.5
v 3.5 1 -7.5
v 6.5 0 5.5
v 6.5 0 4.5
v 6.5 0 -4.5
v 6.5 0 -5.5
v 6.5 1 6.5
v 6.5 1 5.5
v 6.5 1 4.5
v 6.5 1 -4.5
v 6.5 1 -5.5
v 6.5 1 -6.5
v 6.5 2 7.5
v 6.5 2 6.5
v 6.5 2 5.5
v 6.5 2 -5.5
v 6.5 2 -6.5
v 6.5 2 -7.5
v 6.5 11 7.5
v 6.5 11 6.5
v 6.5 11 5.5
v 6.5 11 -5.5
v 6.5 11 -6.5
v 6.5 11 -7.5
v 6.5 12 6.5
v 6.5 12 5.5
v 6.5 12 4.5
v 6.5 12 -4.5
v 6.5 12 -5.5
v 6.5 12 -6.5
v 6.5 13 5.5
v 6.5 13 4.5
v 6.5 13 -4.5
v 6.5 13 -5.5
v 6.5 14 4.5
v 6.5 14 -4.5
v 8.5 0 4.5
v 8.5 0 -4.5
v 8.5 1 5.5
v 8.5 1 4.5
v 8.5 1 -4.5
v 8.5 1 -5.5
v 8.5 2 6.5
v 8.5 2 5.5
v 8.5 2 -5.5
v 8.5 2 -6.5
v 8.5 11 6.5
v 8.5 11 5.5
v 8.5 11 -5.5
v 8.5 11 -6.5
v 8.5 12 5.5
v 8.5 12 4.5
v 8.5 12 -4.5
v 8.5 12 -5.5
v 8.5 13 4.5
v 8.5 13 -4.5
v -8.5 0 8.5
v -8.5 1 8.5
v 2.5 0 8.5
v 2.5 1 8.5
v -5.5 2 7.5
v -5.5 11 7.5
v -4.5 2 7.5
v -4.5 11 7.5
v 5.5 2 7.5
v 5.5 11 7.5
v 6.5 2 7.5
v 6.5 11 7.5
v -8.5 1 6.5
v -8.5 2 6.5
v -7.5 2 6.5
v -7.5 11 6.5
v -6.5 1 6.5
v -6.5 2 6.5
v -5.5 1 6.5
v -5.5 2 6.5
v -5.5 11 6.5
v -5.5 12 6.5
v -4.5 1 6.5
v -4.5 2 6.5
v -4.5 11 6.5
v -4.5 12 6.5
v 5.5 1 6.5
v 5.5 2 6.5
v 5.5 11 6.5
v 5.5 12 6.5
v 6.5 1 6.5
v 6.5 2 6.5
v 6.5 11 6.5
v 6.5 12 6.5
v 8.5 2 6.5
v 8.5 11 6.5
v -7.5 11 5.5
v -7.5 12 5.5
v -6.5 1 5.5
v -6.5 2 5.5
v -5.5 1 5.5
v -5.5 2 5.5
v -5.5 11 5.5
v -5.5 12 5.5
v -5.5 13 5.5
v -4.5 1 5.5
v -4.5 2 5.5
v -4.5 11 5.5
v -4.5 12 5.5
v -4.5 13 5.5
v 2.5 1 5.5
v 5.5 0 5.5
v 5.5 1 5.5
v 5.5 2 5.5
v 5.5 11 5.5
v 5.5 12 5.5
v 5.5 13 5.5
v 6.5 0 5.5
v 6.5 1 5.5
v 6.5 2 5.5
v 6.5 11 5.5
v 6.5 12 5.5
v 6.5 13 5.5
v 8.5 1 5.5
v 8.5 2 5.5
v 8.5 11 5.5
v 8.5 12 5.5
v -8.5 2 4.5
v -8.5 5 4.5
v -7.5 2 4.5
v -7.5 5 4.5
v -7.5 12 4.5
v -7.5 13 4.5
v -5.5 12 4.5
v -5.5 13 4.5
v -5.5 14 4.5
v -4.5 12 4.5
v -4.5 13 4.5
v -4.5 14 4.5
v 2.5 0 4.5
v 2.5 1 4.5
v 5.5 0 4.5
v 5.5 1 4.5
v 5.5 12 4.5
v 5.5 13 4.5
v 5.5 14 4.5
v 6.5 0 4.5
v 6.5 1 4.5
v 6.5 12 4.5
v 6.5 13 4.5
v 6.5 14 4.5
v 8.5 0 4.5
v 8.5 1 4.5
v 8.5 12 4.5
v 8.5 13 4.5
v -8.5 4 2.5
v -8.5 5 2.5
v -7.5 4 2.5
v -7.5 5 2.5
v -8.5 2 1.5
v -8.5 4 1.5
v -7.5 2 1.5
v -7.5 4 1.5
v -8.5 1 0.5
v -8.5 2 0.5
v -7.5 1 0.5
v -7.5 2 0.5
v -7.5 12 -4.5
v -7.5 13 -4.5
v -5.5 12 -4.5
v -5.5 13 -4.5
v -5.5 14 -4.5
v -4.5 12 -4.5
v -4.5 13 -4.5
v -4.5 14 -4.5
v 3.5 0 -4.5
v 3.5 1 -4.5
v 5.5 0 -4.5
v 5.5 1 -4.5
v 5.5 12 -4.5
v 5.5 13 -4.5
v 5.5 14 -4.5
v 6.5 0 -4.5
v 6.5 1 -4.5
v 6.5 12 -4.5
v 6.5 13 -4.5
v 6.5 14 -4.5
v 8.5 0 -4.5
v 8.5 1 -4.5
v 8.5 12 -4.5
v 8.5 13 -4.5
v -7.5 1 -5.5
v -7.5 2 -5.5
v -7.5 11 -5.5
v -7.5 12 -5.5
v -5.5 1 -5.5
v -5.5 2 -5.5
v -5.5 11 -5.5
v -5.5 12 -5.5
v -5.5 13 -5.5
v -4.5 1 -5.5
v -4.5 2 -5.5
v -4.5 11 -5.5
v -4.5 12 -5.5
v -4.5 13 -5.5
v 3.5 1 -5.5
v 5.5 0 -5.5
v 5.5 1 -5.5
v 5.5 2 -5.5
v 5.5 11 -5.5
v 5.5 12 -5.5
v 5.5 13 -5.5
v 6.5 0 -5.5
v 6.5 1 -5.5
v 6.5 2 -5.5
v 6.5 11 -5.5
v 6.5 12 -5.5
v 6.5 13 -5.5
v 8.5 1 -5.5
v 8.5 2 -5.5
v 8.5 11 -5.5
v 8.5 12 -5.5
v -7.5 2 -6.5
v -7.5 11 -6.5
v -5.5 1 -6.5
v -5.5 2 -6.5
v -5.5 11 -6.5
v -5.5 12 -6.5
v -4.5 1 -6.5
v -4.5 2 -6.5
v -4.5 11 -6.5
v -4.5 12 -6.5
v 5.5 1 -6.5
v 5.5 2 -6.5
v 5.5 11 -6.5
v 5.5 12 -6.5
v 6.5 1 -6.5
v 6.5 2 -6.5
v 6.5 11 -6.5
v 6.5 12 -6.5
v 8.5 2 -6.5
v 8.5 11 -6.5
v -8.5 0 -7.5
v -8.5 1 -7.5
v -5.5 2 -7.5
v -5.5 11 -7.5
v -4.5 2 -7.5
v -4.5 11 -7.5
v 3.5 0 -7.5
v 3.5 1 -7.5
v 5.5 2 -7.5
v 5.5 11 -7.5
v 6.5 2 -7.5
v 6.5 11 -7.5
v -8.5 0 8.5
v 2.5 0 8.5
v -5.5 0 5.5
v -4.5 0 5.5
v 5.5 0 5.5
v 6.5 0 5.5
v -7.5 0 4.5
v -5.5 0 4.5
v -4.5 0 4.5
v 2.5 0 4.5
v 5.5 0 4.5
v 6.5 0 4.5
v 8.5 0 4.5
v -7.5 0 -4.5
v -5.5 0 -4.5
v -4.5 0 -4.5
v 3.5 0 -4.5
v 5.5 0 -4.5
v 6.5 0 -4.5
v 8.5 0 -4.5
v -5.5 0 -5.5
v -4.5 0 -5.5
v 5.5 0 -5.5
v 6.5 0 -5.5
v -8.5 0 -7.5
v 3.5 0 -7.5
v 5.5 1 6.5
v 6.5 1 6.5
v 2.5 1 5.5
v 5.5 1 5.5
v 6.5 1 5.5
v 8.5 1 5.5
v 2.5 1 4.5
v 5.5 1 4.5
v 6.5 1 4.5
v 8.5 1 4.5
v 3.5 1 -4.5
v 5.5 1 -4.5
v 6.5 1 -4.5
v 8.5 1 -4.5
v 3.5 1 -5.5
v 5.5 1 -5.5
v 6.5 1 -5.5
v 8.5 1 -5.5
v 5.5 1 -6.5
v 6.5 1 -6.5
v -5.5 2 7.5
v -4.5 2 7.5
v 5.5 2 7.5
v 6.5 2 7.5
v -6.5 2 6.5
v -5.5 2 6.5
v -4.5 2 6.5
v 5.5 2 6.5
v 6.5 2 6.5
v 8.5 2 6.5
v -6.5 2 5.5
v -5.5 2 5.5
v -4.5 2 5.5
v 5.5 2 5.5
v 6.5 2 5.5
v 8.5 2 5.5
v -7.5 2 -5.5
v -5.5 2 -5.5
v -4.5 2 -5.5
v 5.5 2 -5.5
v 6.5 2 -5.5
v 8.5 2 -5.5
v -7.5 2 -6.5
v -5.5 2 -6.5
v -4.5 2 -6.5
v 5.5 2 -6.5
v 6.5 2 -6.5
v 8.5 2 -6.5
v -5.5 2 -7.5
v -4.5 2 -7.5
v 5.5 2 -7.5
v 6.5 2 -7.5
v -8.5 1 8.5
v 2.5 1 8.5
v -8.5 1 6.5
v -6.5 1 6.5
v -5.5 1 6.5
v -4.5 1 6.5
v -6.5 1 5.5
v -5.5 1 5.5
v -4.5 1 5.5
v 2.5 1 5.5
v -8.5 1 0.5
v -7.5 1 0.5
v -7.5 1 -5.5
v -5.5 1 -5.5
v -4.5 1 -5.5
v 3.5 1 -5.5
v -5.5 1 -6.5
v -4.5 1 -6.5
v -8.5 1 -7.5
v 3.5 1 -7.5
v -8.5 2 6.5
v -7.5 2 6.5
v -8.5 2 4.5
v -7.5 2 4.5
v -8.5 2 1.5
v -7.5 2 1.5
v -8.5 2 0.5
v -7.5 2 0.5
v -8.5 4 2.5
v -7.5 4 2.5
v -8.5 4 1.5
v -7.5 4 1.5
v -8.5 5 4.5
v -7.5 5 4.5
v -8.5 5 2.5
v -7.5 5 2.5
v -5.5 11 7.5
v -4.5 11 7.5
v 5.5 11 7.5
v 6.5 11 7.5
v -7.5 11 6.5
v -5.5 11 6.5
v -4.5 11 6.5
v 5.5 11 6.5
v 6.5 11 6.5
v 8.5 11 6.5
v -7.5 11 5.5
v -5.5 11 5.5
v -4.5 11 5.5
v 5.5 11 5.5
v 6.5 11 5.5
v 8.5 11 5.5
v -7.5 11 -5.5
v -5.5 11 -5.5
v -4.5 11 -5.5
v 5.5 11 -5.5
v 6.5 11 -5.5
v 8.5 11 -5.5
v -7.5 11 -6.5
v -5.5 11 -6.5
v -4.5 11 -6.5
v 5.5 11 -6.5
v 6.5 11 -6.5
v 8.5 11 -6.5
v -5.5 11 -7.5
v -4.5 11 -7.5
v 5.5 11 -7.5
v 6.5 11 -7.5
v -5.5 12 6.5
v -4.5 12 6.5
v 5.5 12 6.5
v 6.5 12 6.5
v -7.5 12 5.5
v -5.5 12 5.5
v -4.5 12 5.5
v 5.5 12 5.5
v 6.5 12 5.5
v 8.5 12 5.5
v -7.5 12 4.5
v -5.5 12 4.5
v -4.5 12 4.5
v 5.5 12 4.5
v 6.5 12 4.5
v 8.5 12 4.5
v -7.5 12 -4.5
v -5.5 12 -4.5
v -4.5 12 -4.5
v 5.5 12 -4.5
v 6.5 12 -4.5
v 8.5 12 -4.5
v -7.5 12 -5.5
v -5.5 12 -5.5
v -4.5 12 -5.5
v 5.5 12 -5.5
v 6.5 12 -5.5
v 8.5 12 -5.5
v -5.5 12 -6.5
v -4.5 12 -6.5
v 5.5 12 -6.5
v 6.5 12 -6.5
v -5.5 13 5.5
v -4.5 13 5.5
v 5.5 13 5.5
v 6.5 13 5.5
v -7.5 13 4.5
v -5.5 13 4.5
v -4.5 13 4.5
v 5.5 13 4.5
v 6.5 13 4.5
v 8.5 13 4.5
v -2.5 13 3.5
v -0.5 13 3.5
v 2.5 13 3.5
v 4.5 13 3.5
v -0.5 13 2.5
v 0.5 13 2.5
v 1.5 13 2.5
v 2.5 13 2.5
v -2.5 13 1.5
v -1.5 13 1.5
v 3.5 13 1.5
v 4.5 13 1.5
v -1.5 13 0.5
v 0.5 13 0.5
v 1.5 13 0.5
v 3.5 13 0.5
v -1.5 13 -0.5
v 0.5 13 -0.5
v 1.5 13 -0.5
v 3.5 13 -0.5
v -2.5 13 -1.5
v -1.5 13 -1.5
v 3.5 13 -1.5
v 4.5 13 -1.5
v -0.5 13 -2.5
v 0.5 13 -2.5
v 1.5 13 -2.5
v 2.5 13 -2.5
v -2.5 13 -3.5
v -0.5 13 -3.5
v 2.5 13 -3.5
v 4.5 13 -3.5
v -7.5 13 -4.5
v -5.5 13 -4.5
v -4.5 13 -4.5
v 5.5 13 -4.5
v 6.5 13 -4.5
v 8.5 13 -4.5
v -5.5 13 -5.5
v -4.5 13 -5.5
v 5.5 13 -5.5
v 6.5 13 -5.5
v -5.5 14 4.5
v -4.5 14 4.5
v 5.5 14 4.5
v 6.5 14 4.5
v -5.5 14 -4.5
v -4.5 14 -4.5
v 5.5 14 -4.5
v 6.5 14 -4.5

# faces
f 3/2/1 2/2/1 1/2/1
f 4/2/1 2/2/1 3/2/1
f 5/2/1 2/2/1 4/2/1
f 6/2/1 2/2/1 5/2/1
f 7/2/1 5/2/1 4/2/1
f 8/2/1 5/2/1 7/2/1
f 9/2/1 5/2/1 8/2/1
f 10/2/1 5/2/1 9/2/1
f 11/2/1 5/2/1 10/2/1
f 12/2/1 9/2/1 8/2/1
f 12/4/1 10/4/1 9/4/1
f 13/4/1 10/4/1 12/4/1
f 14/4/1 10/4/1 13/4/1
f 15/2/1 12/2/1 8/2/1
f 15/2/1 13/2/1 12/2/1
f 16/2/1 13/2/1 15/2/1
f 22/3/1 18/3/1 17/3/1
f 23/3/1 18/3/1 22/3/1
f 26/3/1 22/3/1 21/3/1
f 26/3/1 24/3/1 23/3/1
f 26/3/1 23/3/1 22/3/1
f 27/3/1 20/3/1 19/3/1
f 28/3/1 26/3/1 25/3/1
f 29/3/1 27/3/1 19/3/1
f 29/3/1 28/3/1 27/3/1
f 30/3/1 28/3/1 29/3/1
f 31/3/1 26/3/1 28/3/1
f 31/3/1 28/3/1 30/3/1
f 31/3/1 24/3/1 26/3/1
f 32/3/1 24/3/1 31/3/1
f 33/3/1 31/3/1 30/3/1
f 34/3/1 31/3/1 33/3/1
f 35/3/1 31/3/1 34/3/1
f 36/3/1 31/3/1 35/3/1
f 37/3/1 35/3/1 34/3/1
f 38/3/1 35/3/1 37/3/1
f 44/4/1 40/4/1 39/4/1
f 45/4/1 40/4/1 44/4/1
f 46/4/1 42/4/1 41/4/1
f 47/4/1 42/4/1 46/4/1
f 49/4/1 44/4/1 43/4/1
f 50/4/1 44/4/1 49/4/1
f 53/4/1 48/4/1 47/4/1
f 54/4/1 48/4/1 53/4/1
f 55/4/1 51/4/1 50/4/1
f 56/4/1 51/4/1 55/4/1
f 59/4/1 53/4/1 52/4/1
f 60/4/1 53/4/1 59/4/1
f 61/4/1 57/4/1 56/4/1
f 62/4/1 57/4/1 61/4/1
f 63/4/1 59/4/1 58/4/1
f 64/4/1 59/4/1 63/4/1
f 65/4/1 63/4/1 62/4/1
f 66/4/1 63/4/1 65/4/1
f 72/4/1 68/4/1 67/4/1
f 73/4/1 68/4/1 72/4/1
f 74/4/1 70/4/1 69/4/1
f 75/4/1 70/4/1 74/4/1
f 78/4/1 72/4/1 71/4/1
f 79/4/1 72/4/1 78/4/1
f 80/4/1 76/4/1 75/4/1
f 81/4/1 76/4/1 80/4/1
f 83/4/1 78/4/1 77/4/1
f 84/4/1 78/4/1 83/4/1
f 87/4/1 82/4/1 81/4/1
f 88/4/1 82/4/1 87/4/1
f 89/4/1 85/4/1 84/4/1
f 90/4/1 85/4/1 89/4/1
f 93/4/1 87/4/1 86/4/1
f 94/4/1 87/4/1 93/4/1
f 95/4/1 91/4/1 90/4/1
f 96/4/1 91/4/1 95/4/1
f 97/4/1 93/4/1 92/4/1
f 98/4/1 93/4/1 97/4/1
f 99/4/1 97/4/1 96/4/1
f 100/4/1 97/4/1 99/4/1
f 101/2/2 102/2/2 103/2/2
f 103/2/2 102/2/2 104/2/2
f 105/4/2 106/4/2 110/4/2
f 110/4/2 106/4/2 111/4/2
f 107/4/2 108/4/2 112/4/2
f 112/4/2 108/4/2 113/4/2
f 109/4/2 110/4/2 115/4/2
f 115/4/2 110/4/2 116/4/2
f 113/4/2 114/4/2 119/4/2
f 119/4/2 114/4/2 120/4/2
f 116/4/2 117/4/2 121/4/2
f 121/4/2 117/4/2 122/4/2
f 118/4/2 119/4/2 125/4/2
f 125/4/2 119/4/2 126/4/2
f 122/4/2 123/4/2 127/4/2
f 127/4/2 123/4/2 128/4/2
f 124/4/2 125/4/2 129/4/2
f 129/4/2 125/4/2 130/4/2
f 128/4/2 129/4/2 131/4/2
f 131/4/2 129/4/2 132/4/2
f 133/2/2 134/2/2 135/2/2
f 135/2/2 134/2/2 136/2/2
f 136/2/2 134/2/2 137/2/2
f 138/2/2 139/2/2 140/2/2
f 140/2/2 139/2/2 141/2/2
f 141/2/2 139/2/2 142/2/2
f 143/4/2 144/4/2 148/4/2
f 148/4/2 144/4/2 149/4/2
f 145/4/2 146/4/2 150/4/2
f 150/4/2 146/4/2 151/4/2
f 147/4/2 148/4/2 154/4/2
f 154/4/2 148/4/2 155/4/2
f 151/4/2 152/4/2 156/4/2
f 156/4/2 152/4/2 157/4/2
f 153/4/2 154/4/2 159/4/2
f 159/4/2 154/4/2 160/4/2
f 157/4/2 158/4/2 163/4/2
f 163/4/2 158/4/2 164/4/2
f 160/4/2 161/4/2 165/4/2
f 165/4/2 161/4/2 166/4/2
f 162/4/2 163/4/2 169/4/2
f 169/4/2 163/4/2 170/4/2
f 166/4/2 167/4/2 171/4/2
f 171/4/2 167/4/2 172/4/2
f 168/4/2 169/4/2 173/4/2
f 173/4/2 169/4/2 174/4/2
f 172/4/2 173/4/2 175/4/2
f 175/4/2 173/4/2 176/4/2
f 177/3/2 178/3/2 180/3/2
f 180/3/2 178/3/2 181/3/2
f 179/3/2 180/3/2 184/3/2
f 181/3/2 182/3/2 184/3/2
f 180/3/2 181/3/2 184/3/2
f 184/3/2 182/3/2 185/3/2
f 183/3/2 184/3/2 187/3/2
f 185/3/2 186/3/2 187/3/2
f 184/3/2 185/3/2 187/3/2
f 187/3/2 186/3/2 188/3/2
f 188/3/2 186/3/2 189/3/2
f 189/3/2 186/3/2 190/3/2
f 188/3/2 189/3/2 191/3/2
f 191/3/2 189/3/2 192/3/2
f 192/3/2 189/3/2 193/3/2
f 193/3/2 189/3/2 194/3/2
f 192/3/2 193/3/2 195/3/2
f 195/3/2 193/3/2 196/3/2
f 199/2/3 198/2/3 197/2/3
f 200/2/3 198/2/3 199/2/3
f 203/4/3 202/4/3 201/4/3
f 204/4/3 202/4/3 203/4/3
f 207/4/3 206/4/3 205/4/3
f 208/4/3 206/4/3 207/4/3
f 211/2/3 210/2/3 209/2/3
f 213/2/3 211/2/3 209/2/3
f 214/3/3 212/3/3 211/3/3
f 214/2/3 211/2/3 213/2/3
f 216/3/3 212/3/3 214/3/3
f 217/3/3 212/3/3 216/3/3
f 219/4/3 216/4/3 215/4/3
f 220/4/3 216/4/3 219/4/3
f 221/4/3 218/4/3 217/4/3
f 222/4/3 218/4/3 221/4/3
f 224/3/3 221/3/3 220/3/3
f 225/3/3 221/3/3 224/3/3
f 227/4/3 224/4/3 223/4/3
f 228/4/3 224/4/3 227/4/3
f 229/4/3 226/4/3 225/4/3
f 230/4/3 226/4/3 229/4/3
f 231/3/3 229/3/3 228/3/3
f 232/3/3 229/3/3 231/3/3
f 237/3/3 236/3/3 235/3/3
f 238/3/3 236/3/3 237/3/3
f 239/3/3 234/3/3 233/3/3
f 240/3/3 234/3/3 239/3/3
f 245/4/3 241/4/3 240/4/3
f 246/4/3 241/4/3 245/4/3
f 247/3/3 243/3/3 242/3/3
f 249/3/3 243/3/3 247/3/3
f 250/3/3 243/3/3 249/3/3
f 251/3/3 245/3/3 244/3/3
f 252/3/3 245/3/3 251/3/3
f 254/4/3 249/4/3 248/4/3
f 255/4/3 249/4/3 254/4/3
f 258/4/3 253/4/3 252/4/3
f 259/4/3 253/4/3 258/4/3
f 260/3/3 256/3/3 255/3/3
f 261/3/3 256/3/3 260/3/3
f 262/3/3 258/3/3 257/3/3
f 263/3/3 258/3/3 262/3/3
f 266/2/3 265/2/3 264/2/3
f 267/2/3 265/2/3 266/2/3
f 270/3/3 269/3/3 268/3/3
f 271/3/3 269/3/3 270/3/3
f 274/4/3 272/4/3 271/4/3
f 275/4/3 272/4/3 274/4/3
f 278/3/3 277/3/3 276/3/3
f 279/3/3 277/3/3 278/3/3
f 280/3/3 274/3/3 273/3/3
f 281/3/3 274/3/3 280/3/3
f 286/4/3 282/4/3 281/4/3
f 287/4/3 282/4/3 286/4/3
f 288/3/3 284/3/3 283/3/3
f 289/3/3 284/3/3 288/3/3
f 290/3/3 286/3/3 285/3/3
f 291/3/3 286/3/3 290/3/3
f 292/2/4 293/2/4 294/2/4
f 294/2/4 293/2/4 295/2/4
f 296/4/4 297/4/4 298/4/4
f 298/4/4 297/4/4 299/4/4
f 300/2/4 301/2/4 302/2/4
f 302/2/4 301/2/4 303/2/4
f 304/3/4 305/3/4 306/3/4
f 306/3/4 305/3/4 307/3/4
f 307/4/4 308/4/4 310/4/4
f 310/4/4 308/4/4 311/4/4
f 312/3/4 313/3/4 314/3/4
f 314/3/4 313/3/4 315/3/4
f 309/3/4 310/3/4 316/3/4
f 316/3/4 310/3/4 317/3/4
f 317/4/4 318/4/4 322/4/4
f 322/4/4 318/4/4 323/4/4
f 319/3/4 320/3/4 324/3/4
f 324/3/4 320/3/4 325/3/4
f 321/3/4 322/3/4 326/3/4
f 326/3/4 322/3/4 327/3/4
f 328/3/4 329/3/4 332/3/4
f 332/3/4 329/3/4 333/3/4
f 330/3/4 331/3/4 334/3/4
f 334/3/4 331/3/4 335/3/4
f 335/4/4 336/4/4 340/4/4
f 340/4/4 336/4/4 341/4/4
f 337/3/4 338/3/4 342/3/4
f 342/3/4 338/3/4 344/3/4
f 344/3/4 338/3/4 345/3/4
f 339/3/4 340/3/4 346/3/4
f 346/3/4 340/3/4 347/3/4
f 343/4/4 344/4/4 349/4/4
f 349/4/4 344/4/4 350/4/4
f 347/4/4 348/4/4 353/4/4
f 353/4/4 348/4/4 354/4/4
f 350/3/4 351/3/4 355/3/4
f 355/3/4 351/3/4 356/3/4
f 352/3/4 353/3/4 357/3/4
f 357/3/4 353/3/4 358/3/4
f 359/3/4 360/3/4 362/3/4
f 362/3/4 360/3/4 363/3/4
f 361/4/4 362/4/4 365/4/4
f 365/4/4 362/4/4 366/4/4
f 363/4/4 364/4/4 367/4/4
f 367/4/4 364/4/4 368/4/4
f 366/3/4 367/3/4 370/3/4
f 370/3/4 367/3/4 371/3/4
f 369/4/4 370/4/4 373/4/4
f 373/4/4 370/4/4 374/4/4
f 371/4/4 372/4/4 375/4/4
f 375/4/4 372/4/4 376/4/4
f 374/3/4 375/3/4 377/3/4
f 377/3/4 375/3/4 378/3/4
f 381/4/4 382/4/4 383/4/4
f 383/4/4 382/4/4 384/4/4
f 379/2/4 380/2/4 385/2/4
f 385/2/4 380/2/4 386/2/4
f 387/4/4 388/4/4 389/4/4
f 389/4/4 388/4/4 390/4/4
f 393/2/5 392/2/5 391/2/5
f 394/2/5 392/2/5 393/2/5
f 397/2/5 393/2/5 391/2/5
f 398/4/5 394/4/5 393/4/5
f 398/2/5 393/2/5 397/2/5
f 399/2/5 392/2/5 394/2/5
f 399/4/5 394/4/5 398/4/5
f 400/2/5 392/2/5 399/2/5
f 401/4/5 396/4/5 395/4/5
f 402/4/5 396/4/5 401/4/5
f 404/3/5 400/3/5 399/3/5
f 404/3/5 403/3/5 402/3/5
f 404/3/5 402/3/5 401/3/5
f 404/3/5 401/3/5 400/3/5
f 404/2/5 397/2/5 391/2/5
f 404/3/5 399/3/5 398/3/5
f 404/3/5 398/3/5 397/3/5
f 405/3/5 403/3/5 404/3/5
f 406/3/5 403/3/5 405/3/5
f 407/3/5 403/3/5 406/3/5
f 408/3/5 403/3/5 407/3/5
f 409/3/5 403/3/5 408/3/5
f 410/3/5 403/3/5 409/3/5
f 411/2/5 405/2/5 404/2/5
f 411/4/5 406/4/5 405/4/5
f 412/2/5 407/2/5 406/2/5
f 412/4/5 406/4/5 411/4/5
f 413/4/5 409/4/5 408/4/5
f 414/4/5 409/4/5 413/4/5
f 415/2/5 404/2/5 391/2/5
f 415/2/5 411/2/5 404/2/5
f 415/2/5 412/2/5 411/2/5
f 416/2/5 407/2/5 412/2/5
f 416/2/5 412/2/5 415/2/5
f 420/4/5 418/4/5 417/4/5
f 421/4/5 418/4/5 420/4/5
f 423/3/5 420/3/5 419/3/5
f 424/3/5 420/3/5 423/3/5
f 425/3/5 422/3/5 421/3/5
f 426/3/5 422/3/5 425/3/5
f 431/3/5 428/3/5 427/3/5
f 432/3/5 428/3/5 431/3/5
f 433/3/5 430/3/5 429/3/5
f 434/3/5 430/3/5 433/3/5
f 435/4/5 433/4/5 432/4/5
f 436/4/5 433/4/5 435/4/5
f 442/4/5 438/4/5 437/4/5
f 443/4/5 438/4/5 442/4/5
f 444/4/5 440/4/5 439/4/5
f 445/4/5 440/4/5 444/4/5
f 447/3/5 442/3/5 441/3/5
f 448/3/5 442/3/5 447/3/5
f 449/3/5 444/3/5 443/3/5
f 450/3/5 444/3/5 449/3/5
f 451/3/5 446/3/5 445/3/5
f 452/3/5 446/3/5 451/3/5
f 459/3/5 454/3/5 453/3/5
f 460/3/5 454/3/5 459/3/5
f 461/3/5 456/3/5 455/3/5
f 462/3/5 456/3/5 461/3/5
f 463/3/5 458/3/5 457/3/5
f 464/3/5 458/3/5 463/3/5
f 465/4/5 461/4/5 460/4/5
f 466/4/5 461/4/5 465/4/5
f 467/4/5 463/4/5 462/4/5
f 468/4/5 463/4/5 467/4/5
f 469/2/6 470/2/6 471/2/6
f 471/2/6 470/2/6 472/2/6
f 472/2/6 470/2/6 473/2/6
f 473/2/6 470/2/6 474/2/6
f 472/2/6 473/2/6 475/2/6
f 475/2/6 473/2/6 476/2/6
f 474/2/6 470/2/6 477/2/6
f 477/2/6 470/2/6 478/2/6
f 479/2/6 480/2/6 481/2/6
f 481/2/6 482/2/6 485/2/6
f 483/2/6 484/2/6 486/2/6
f 481/2/6 485/2/6 487/2/6
f 485/2/6 486/2/6 487/2/6
f 479/2/6 481/2/6 487/2/6
f 486/2/6 484/2/6 488/2/6
f 487/2/6 486/2/6 488/2/6
f 489/2/6 490/2/6 491/2/6
f 491/2/6 490/2/6 492/2/6
f 493/2/6 494/2/6 495/2/6
f 495/2/6 494/2/6 496/2/6
f 497/4/6 498/4/6 499/4/6
f 499/4/6 498/4/6 500/4/6
f 501/2/6 502/2/6 503/2/6
f 503/2/6 502/2/6 504/2/6
f 505/4/6 506/4/6 510/4/6
f 510/4/6 506/4/6 511/4/6
f 507/4/6 508/4/6 512/4/6
f 512/4/6 508/4/6 513/4/6
f 509/3/6 510/3/6 515/3/6
f 515/3/6 510/3/6 516/3/6
f 511/3/6 512/3/6 517/3/6
f 517/3/6 512/3/6 518/3/6
f 513/3/6 514/3/6 519/3/6
f 519/3/6 514/3/6 520/3/6
f 521/3/6 522/3/6 527/3/6
f 527/3/6 522/3/6 528/3/6
f 523/3/6 524/3/6 529/3/6
f 529/3/6 524/3/6 530/3/6
f 525/3/6 526/3/6 531/3/6
f 531/3/6 526/3/6 532/3/6
f 528/4/6 529/4/6 533/4/6
f 533/4/6 529/4/6 534/4/6
f 530/4/6 531/4/6 535/4/6
f 535/4/6 531/4/6 536/4/6
f 537/4/6 538/4/6 542/4/6
f 542/4/6 538/4/6 543/4/6
f 539/4/6 540/4/6 544/4/6
f 544/4/6 540/4/6 545/4/6
f 541/3/6 542/3/6 547/3/6
f 547/3/6 542/3/6 548/3/6
f 543/3/6 544/3/6 549/3/6
f 549/3/6 544/3/6 550/3/6
f 545/3/6 546/3/6 551/3/6
f 551/3/6 546/3/6 552/3/6
f 553/3/6 554/3/6 559/3/6
f 559/3/6 554/3/6 560/3/6
f 555/3/6 556/3/6 561/3/6
f 561/3/6 556/3/6 562/3/6
f 557/3/6 558/3/6 563/3/6
f 563/3/6 558/3/6 564/3/6
f 560/4/6 561/4/6 565/4/6
f 565/4/6 561/4/6 566/4/6
f 562/4/6 563/4/6 567/4/6
f 567/4/6 563/4/6 568/4/6
f 569/4/6 570/4/6 574/4/6
f 574/4/6 570/4/6 575/4/6
f 571/4/6 572/4/6 576/4/6
f 576/4/6 572/4/6 577/4/6
f 575/3/6 576/3/6 579/3/6
f 579/3/6 576/3/6 580/3/6
f 580/3/6 576/3/6 581/3/6
f 581/3/6 576/3/6 582/3/6
f 579/5/6 580/5/6 583/5/6
f 580/1/6 581/1/6 583/1/6
f 583/1/6 581/1/6 584/1/6
f 584/1/6 581/1/6 585/1/6
f 581/5/6 582/5/6 586/5/6
f 585/1/6 581/1/6 586/1/6
f 575/3/6 579/3/6 587/3/6
f 579/5/6 583/5/6 587/5/6
f 583/5/6 584/5/6 587/5/6
f 587/5/6 584/5/6 588/5/6
f 586/5/6 582/5/6 589/5/6
f 585/5/6 586/5/6 589/5/6
f 582/3/6 576/3/6 590/3/6
f 589/5/6 582/5/6 590/5/6
f 588/5/6 584/5/6 591/5/6
f 587/1/6 588/1/6 591/1/6
f 584/1/6 585/1/6 592/1/6
f 591/5/6 584/5/6 592/5/6
f 585/5/6 589/5/6 593/5/6
f 592/1/6 585/1/6 593/1/6
f 589/1/6 590/1/6 594/1/6
f 593/5/6 589/5/6 594/5/6
f 591/1/6 592/1/6 595/1/6
f 587/1/6 591/1/6 595/1/6
f 592/5/6 593/5/6 596/5/6
f 595/1/6 592/1/6 596/1/6
f 593/1/6 594/1/6 597/1/6
f 596/5/6 593/5/6 597/5/6
f 594/1/6 590/1/6 598/1/6
f 597/1/6 594/1/6 598/1/6
f 587/1/6 595/1/6 599/1/6
f 575/3/6 587/3/6 599/3/6
f 595/5/6 596/5/6 600/5/6
f 599/1/6 595/1/6 600/1/6
f 598/1/6 590/1/6 601/1/6
f 597/5/6 598/5/6 601/5/6
f 590/3/6 576/3/6 602/3/6
f 601/1/6 590/1/6 602/1/6
f 600/5/6 596/5/6 603/5/6
f 599/5/6 600/5/6 603/5/6
f 596/1/6 597/1/6 604/1/6
f 603/5/6 596/5/6 604/5/6
f 597/5/6 601/5/6 605/5/6
f 604/1/6 597/1/6 605/1/6
f 601/5/6 602/5/6 605/5/6
f 605/5/6 602/5/6 606/5/6
f 599/5/6 603/5/6 607/5/6
f 575/3/6 599/3/6 607/3/6
f 603/1/6 604/1/6 608/1/6
f 607/5/6 603/5/6 608/5/6
f 605/1/6 606/1/6 608/1/6
f 604/1/6 605/1/6 608/1/6
f 606/5/6 602/5/6 609/5/6
f 608/1/6 606/1/6 609/1/6
f 602/3/6 576/3/6 610/3/6
f 609/5/6 602/5/6 610/5/6
f 573/3/6 574/3/6 611/3/6
f 611/3/6 574/3/6 612/3/6
f 575/3/6 607/3/6 613/3/6
f 607/3/6 608/3/6 613/3/6
f 608/3/6 609/3/6 613/3/6
f 609/3/6 610/3/6 613/3/6
f 610/3/6 576/3/6 614/3/6
f 613/3/6 610/3/6 614/3/6
f 577/3/6 578/3/6 615/3/6
f 615/3/6 578/3/6 616/3/6
f 612/4/6 613/4/6 617/4/6
f 617/4/6 613/4/6 618/4/6
f 614/4/6 615/4/6 619/4/6
f 619/4/6 615/4/6 620/4/6
f 621/4/6 622/4/6 625/4/6
f 625/4/6 622/4/6 626/4/6
f 623/4/6 624/4/6 627/4/6
f 627/4/6 624/4/6 628/4/6
