# MagicaVoxel @ Ephtracy

# material
mtllib ufo_map.mtl
usemtl palette

# normals
vn -1 0 0
vn 1 0 0
vn 0 0 1
vn 0 0 -1
vn 0 -1 0
vn 0 1 0

# texcoords
vt 0.970703 0.5
vt 0.982422 0.5
vt 0.986328 0.5
vt 0.994141 0.5

# verts
v -7 3 5
v -7 3 -5
v -7 4 1
v -7 4 -1
v -7 5 5
v -7 5 1
v -7 5 -1
v -7 5 -5
v -6 2 1
v -6 2 -1
v -6 3 1
v -6 3 -1
v -5 3 7
v -5 3 5
v -5 3 -5
v -5 3 -7
v -5 5 7
v -5 5 5
v -5 5 -5
v -5 5 -7
v -4 5 4
v -4 5 -4
v -4 6 4
v -4 6 -4
v -3 2 3
v -3 2 -3
v -3 3 3
v -3 3 -3
v -2 6 2
v -2 6 -2
v -2 7 -0
v -2 7 -2
v -2 8 2
v -2 8 -0
v -2 8 -2
v -1 2 6
v -1 2 4
v -1 2 -4
v -1 2 -6
v -1 3 6
v -1 3 4
v -1 3 -4
v -1 3 -6
v 4 2 1
v 4 2 -1
v 4 3 1
v 4 3 -1
v -4 2 1
v -4 2 -1
v -4 3 1
v -4 3 -1
v 1 2 6
v 1 2 4
v 1 2 -4
v 1 2 -6
v 1 3 6
v 1 3 4
v 1 3 -4
v 1 3 -6
v 2 6 2
v 2 6 -2
v 2 8 2
v 2 8 -2
v 3 2 3
v 3 2 -3
v 3 3 3
v 3 3 -3
v 4 5 4
v 4 5 -4
v 4 6 4
v 4 6 -4
v 5 3 7
v 5 3 5
v 5 3 -5
v 5 3 -7
v 5 5 7
v 5 5 5
v 5 5 -5
v 5 5 -7
v 6 2 1
v 6 2 -1
v 6 3 1
v 6 3 -1
v 7 3 5
v 7 3 -5
v 7 4 1
v 7 4 -1
v 7 5 5
v 7 5 1
v 7 5 -1
v 7 5 -5
v -5 3 7
v -5 5 7
v -1 4 7
v -1 5 7
v 1 4 7
v 1 5 7
v 5 3 7
v 5 5 7
v -1 2 6
v -1 3 6
v 1 2 6
v 1 3 6
v -7 3 5
v -7 5 5
v -5 3 5
v -5 5 5
v 5 3 5
v 5 5 5
v 7 3 5
v 7 5 5
v -4 5 4
v -4 6 4
v 4 5 4
v 4 6 4
v -3 2 3
v -3 3 3
v 3 2 3
v 3 3 3
v -2 6 2
v -2 8 2
v 2 6 2
v 2 8 2
v -6 2 1
v -6 3 1
v -4 2 1
v -4 3 1
v 4 2 1
v 4 3 1
v 6 2 1
v 6 3 1
v -1 2 -4
v -1 3 -4
v 1 2 -4
v 1 3 -4
v -1 2 4
v -1 3 4
v 1 2 4
v 1 3 4
v -6 2 -1
v -6 3 -1
v -4 2 -1
v -4 3 -1
v 4 2 -1
v 4 3 -1
v 6 2 -1
v 6 3 -1
v -2 6 -2
v -2 7 -2
v -2 8 -2
v -1 7 -2
v -1 8 -2
v 2 6 -2
v 2 8 -2
v -3 2 -3
v -3 3 -3
v 3 2 -3
v 3 3 -3
v -4 5 -4
v -4 6 -4
v 4 5 -4
v 4 6 -4
v -7 3 -5
v -7 5 -5
v -5 3 -5
v -5 5 -5
v 5 3 -5
v 5 5 -5
v 7 3 -5
v 7 5 -5
v -1 2 -6
v -1 3 -6
v 1 2 -6
v 1 3 -6
v -5 3 -7
v -5 5 -7
v -1 4 -7
v -1 5 -7
v 1 4 -7
v 1 5 -7
v 5 3 -7
v 5 5 -7
v -1 2 6
v 1 2 6
v -1 2 4
v 1 2 4
v -3 2 3
v 3 2 3
v -6 2 1
v -4 2 1
v 4 2 1
v 6 2 1
v -6 2 -1
v -4 2 -1
v 4 2 -1
v 6 2 -1
v -3 2 -3
v 3 2 -3
v -1 2 -4
v 1 2 -4
v -1 2 -6
v 1 2 -6
v -5 3 7
v 5 3 7
v -1 3 6
v 1 3 6
v -7 3 5
v -5 3 5
v 5 3 5
v 7 3 5
v -1 3 4
v 1 3 4
v -3 3 3
v 3 3 3
v -6 3 1
v -4 3 1
v 4 3 1
v 6 3 1
v -6 3 -1
v -4 3 -1
v 4 3 -1
v 6 3 -1
v -3 3 -3
v 3 3 -3
v -1 3 -4
v 1 3 -4
v -7 3 -5
v -5 3 -5
v 5 3 -5
v 7 3 -5
v -1 3 -6
v 1 3 -6
v -5 3 -7
v 5 3 -7
v -5 5 7
v -1 5 7
v 1 5 7
v 5 5 7
v -1 5 6
v 1 5 6
v -7 5 5
v -5 5 5
v 5 5 5
v 7 5 5
v -4 5 4
v 4 5 4
v -7 5 1
v -6 5 1
v 6 5 1
v 7 5 1
v -7 5 -1
v -6 5 -1
v 6 5 -1
v 7 5 -1
v -4 5 -4
v 4 5 -4
v -7 5 -5
v -5 5 -5
v 5 5 -5
v 7 5 -5
v -1 5 -6
v 1 5 -6
v -5 5 -7
v -1 5 -7
v 1 5 -7
v 5 5 -7
v -4 6 4
v 4 6 4
v -2 6 2
v 2 6 2
v -2 6 -2
v 2 6 -2
v -4 6 -4
v 4 6 -4
v -2 8 2
v 2 8 2
v -2 8 -0
v -1 8 -0
v -2 8 -2
v -1 8 -2
v 2 8 -2

# faces
f 3/3/1 2/3/1 1/3/1
f 4/3/1 2/3/1 3/3/1
f 5/3/1 3/3/1 1/3/1
f 6/2/1 4/2/1 3/2/1
f 6/3/1 3/3/1 5/3/1
f 7/3/1 2/3/1 4/3/1
f 7/2/1 4/2/1 6/2/1
f 8/3/1 2/3/1 7/3/1
f 11/1/1 10/1/1 9/1/1
f 12/1/1 10/1/1 11/1/1
f 17/3/1 14/3/1 13/3/1
f 18/3/1 14/3/1 17/3/1
f 19/3/1 16/3/1 15/3/1
f 20/3/1 16/3/1 19/3/1
f 23/2/1 22/2/1 21/2/1
f 24/2/1 22/2/1 23/2/1
f 27/2/1 26/2/1 25/2/1
f 28/2/1 26/2/1 27/2/1
f 31/1/1 30/1/1 29/1/1
f 32/1/1 30/1/1 31/1/1
f 33/1/1 31/1/1 29/1/1
f 34/4/1 32/4/1 31/4/1
f 34/1/1 31/1/1 33/1/1
f 35/4/1 32/4/1 34/4/1
f 40/1/1 37/1/1 36/1/1
f 41/1/1 37/1/1 40/1/1
f 42/1/1 39/1/1 38/1/1
f 43/1/1 39/1/1 42/1/1
f 46/1/1 45/1/1 44/1/1
f 47/1/1 45/1/1 46/1/1
f 48/1/2 49/1/2 50/1/2
f 50/1/2 49/1/2 51/1/2
f 52/1/2 53/1/2 56/1/2
f 56/1/2 53/1/2 57/1/2
f 54/1/2 55/1/2 58/1/2
f 58/1/2 55/1/2 59/1/2
f 60/1/2 61/1/2 62/1/2
f 62/1/2 61/1/2 63/1/2
f 64/2/2 65/2/2 66/2/2
f 66/2/2 65/2/2 67/2/2
f 68/2/2 69/2/2 70/2/2
f 70/2/2 69/2/2 71/2/2
f 72/3/2 73/3/2 76/3/2
f 76/3/2 73/3/2 77/3/2
f 74/3/2 75/3/2 78/3/2
f 78/3/2 75/3/2 79/3/2
f 80/1/2 81/1/2 82/1/2
f 82/1/2 81/1/2 83/1/2
f 84/3/2 85/3/2 86/3/2
f 86/3/2 85/3/2 87/3/2
f 84/3/2 86/3/2 88/3/2
f 86/2/2 87/2/2 89/2/2
f 88/3/2 86/3/2 89/3/2
f 87/3/2 85/3/2 90/3/2
f 89/2/2 87/2/2 90/2/2
f 90/3/2 85/3/2 91/3/2
f 94/3/3 93/3/3 92/3/3
f 95/3/3 93/3/3 94/3/3
f 96/3/3 94/3/3 92/3/3
f 96/2/3 95/2/3 94/2/3
f 97/2/3 95/2/3 96/2/3
f 98/3/3 96/3/3 92/3/3
f 98/3/3 97/3/3 96/3/3
f 99/3/3 97/3/3 98/3/3
f 102/1/3 101/1/3 100/1/3
f 103/1/3 101/1/3 102/1/3
f 106/3/3 105/3/3 104/3/3
f 107/3/3 105/3/3 106/3/3
f 110/3/3 109/3/3 108/3/3
f 111/3/3 109/3/3 110/3/3
f 114/2/3 113/2/3 112/2/3
f 115/2/3 113/2/3 114/2/3
f 118/2/3 117/2/3 116/2/3
f 119/2/3 117/2/3 118/2/3
f 122/1/3 121/1/3 120/1/3
f 123/1/3 121/1/3 122/1/3
f 126/1/3 125/1/3 124/1/3
f 127/1/3 125/1/3 126/1/3
f 130/1/3 129/1/3 128/1/3
f 131/1/3 129/1/3 130/1/3
f 134/1/3 133/1/3 132/1/3
f 135/1/3 133/1/3 134/1/3
f 136/1/4 137/1/4 138/1/4
f 138/1/4 137/1/4 139/1/4
f 140/1/4 141/1/4 142/1/4
f 142/1/4 141/1/4 143/1/4
f 144/1/4 145/1/4 146/1/4
f 146/1/4 145/1/4 147/1/4
f 148/1/4 149/1/4 151/1/4
f 149/4/4 150/4/4 151/4/4
f 151/4/4 150/4/4 152/4/4
f 148/1/4 151/1/4 153/1/4
f 151/1/4 152/1/4 153/1/4
f 153/1/4 152/1/4 154/1/4
f 155/2/4 156/2/4 157/2/4
f 157/2/4 156/2/4 158/2/4
f 159/2/4 160/2/4 161/2/4
f 161/2/4 160/2/4 162/2/4
f 163/3/4 164/3/4 165/3/4
f 165/3/4 164/3/4 166/3/4
f 167/3/4 168/3/4 169/3/4
f 169/3/4 168/3/4 170/3/4
f 171/1/4 172/1/4 173/1/4
f 173/1/4 172/1/4 174/1/4
f 175/3/4 176/3/4 177/3/4
f 177/3/4 176/3/4 178/3/4
f 175/3/4 177/3/4 179/3/4
f 177/2/4 178/2/4 179/2/4
f 179/2/4 178/2/4 180/2/4
f 175/3/4 179/3/4 181/3/4
f 179/3/4 180/3/4 181/3/4
f 181/3/4 180/3/4 182/3/4
f 185/1/5 184/1/5 183/1/5
f 186/1/5 184/1/5 185/1/5
f 193/1/5 190/1/5 189/1/5
f 194/1/5 190/1/5 193/1/5
f 195/1/5 192/1/5 191/1/5
f 196/1/5 192/1/5 195/1/5
f 197/2/5 188/2/5 187/2/5
f 198/2/5 188/2/5 197/2/5
f 201/1/5 200/1/5 199/1/5
f 202/1/5 200/1/5 201/1/5
f 205/3/5 204/3/5 203/3/5
f 206/3/5 204/3/5 205/3/5
f 208/3/5 205/3/5 203/3/5
f 209/3/5 204/3/5 206/3/5
f 211/3/5 208/3/5 207/3/5
f 211/3/5 205/3/5 208/3/5
f 212/3/5 210/3/5 209/3/5
f 212/3/5 209/3/5 206/3/5
f 213/3/5 211/3/5 207/3/5
f 213/3/5 212/3/5 211/3/5
f 214/3/5 210/3/5 212/3/5
f 214/3/5 212/3/5 213/3/5
f 215/3/5 213/3/5 207/3/5
f 216/3/5 213/3/5 215/3/5
f 217/3/5 210/3/5 214/3/5
f 218/3/5 210/3/5 217/3/5
f 219/3/5 215/3/5 207/3/5
f 220/3/5 213/3/5 216/3/5
f 221/3/5 217/3/5 214/3/5
f 222/3/5 210/3/5 218/3/5
f 223/3/5 220/3/5 219/3/5
f 223/3/5 213/3/5 220/3/5
f 224/3/5 221/3/5 214/3/5
f 224/3/5 222/3/5 221/3/5
f 225/3/5 224/3/5 223/3/5
f 226/3/5 224/3/5 225/3/5
f 227/3/5 219/3/5 207/3/5
f 227/3/5 223/3/5 219/3/5
f 227/3/5 225/3/5 223/3/5
f 228/3/5 225/3/5 227/3/5
f 229/3/5 224/3/5 226/3/5
f 229/3/5 222/3/5 224/3/5
f 230/3/5 210/3/5 222/3/5
f 230/3/5 222/3/5 229/3/5
f 231/3/5 225/3/5 228/3/5
f 232/3/5 229/3/5 226/3/5
f 233/3/5 231/3/5 228/3/5
f 233/3/5 232/3/5 231/3/5
f 234/3/5 229/3/5 232/3/5
f 234/3/5 232/3/5 233/3/5
f 235/3/6 236/3/6 239/3/6
f 236/2/6 237/2/6 239/2/6
f 237/3/6 238/3/6 240/3/6
f 239/2/6 237/2/6 240/2/6
f 235/3/6 239/3/6 242/3/6
f 239/3/6 240/3/6 242/3/6
f 240/3/6 238/3/6 243/3/6
f 242/3/6 240/3/6 243/3/6
f 241/3/6 242/3/6 245/3/6
f 243/3/6 244/3/6 245/3/6
f 242/3/6 243/3/6 245/3/6
f 245/3/6 244/3/6 246/3/6
f 241/3/6 245/3/6 247/3/6
f 247/3/6 245/3/6 248/3/6
f 246/3/6 244/3/6 249/3/6
f 249/3/6 244/3/6 250/3/6
f 247/2/6 248/2/6 251/2/6
f 248/3/6 245/3/6 252/3/6
f 251/2/6 248/2/6 252/2/6
f 246/3/6 249/3/6 253/3/6
f 249/2/6 250/2/6 253/2/6
f 253/2/6 250/2/6 254/2/6
f 252/3/6 245/3/6 255/3/6
f 251/3/6 252/3/6 255/3/6
f 253/3/6 254/3/6 256/3/6
f 246/3/6 253/3/6 256/3/6
f 251/3/6 255/3/6 257/3/6
f 255/3/6 256/3/6 257/3/6
f 257/3/6 256/3/6 258/3/6
f 256/3/6 254/3/6 259/3/6
f 258/3/6 256/3/6 259/3/6
f 259/3/6 254/3/6 260/3/6
f 258/3/6 259/3/6 261/3/6
f 261/3/6 259/3/6 262/3/6
f 258/3/6 261/3/6 263/3/6
f 261/2/6 262/2/6 264/2/6
f 263/3/6 261/3/6 264/3/6
f 262/3/6 259/3/6 265/3/6
f 264/2/6 262/2/6 265/2/6
f 265/3/6 259/3/6 266/3/6
f 267/2/6 268/2/6 269/2/6
f 269/2/6 268/2/6 270/2/6
f 267/2/6 269/2/6 271/2/6
f 270/2/6 268/2/6 272/2/6
f 267/2/6 271/2/6 273/2/6
f 271/2/6 272/2/6 273/2/6
f 272/2/6 268/2/6 274/2/6
f 273/2/6 272/2/6 274/2/6
f 275/1/6 276/1/6 277/1/6
f 277/1/6 276/1/6 278/1/6
f 277/4/6 278/4/6 279/4/6
f 278/1/6 276/1/6 280/1/6
f 279/4/6 278/4/6 280/4/6
f 280/1/6 276/1/6 281/1/6
