# MagicaVoxel @ Ephtracy

# material
mtllib doge-01.mtl
usemtl palette

# normals
vn -1 0 0
vn 1 0 0
vn 0 0 1
vn 0 0 -1
vn 0 -1 0
vn 0 1 0

# texcoords
vt 0.396484 0.5
vt 0.908203 0.5
vt 0.912109 0.5
vt 0.990234 0.5
vt 0.994141 0.5

# verts
v -3.5 0 1.5
v -3.5 0 -0.5
v -3.5 0 -3.5
v -3.5 0 -5.5
v -3.5 3 5.5
v -3.5 3 2.5
v -3.5 6 -3.5
v -3.5 6 -5.5
v -3.5 7 1.5
v -3.5 7 -0.5
v -3.5 10 5.5
v -3.5 10 2.5
v -2.5 5 7.5
v -2.5 5 5.5
v -2.5 5 2.5
v -2.5 5 1.5
v -2.5 5 -0.5
v -2.5 5 -3.5
v -2.5 6 -3.5
v -2.5 6 -5.5
v -2.5 7 1.5
v -2.5 7 -0.5
v -2.5 8 -1.5
v -2.5 8 -5.5
v -2.5 9 7.5
v -2.5 9 5.5
v -2.5 9 0.5
v -2.5 9 -1.5
v -2.5 10 5.5
v -2.5 10 2.5
v -2.5 10 0.5
v -2.5 11 5.5
v -2.5 11 2.5
v -1.5 4 -0.5
v -1.5 4 -3.5
v -1.5 4 -5.5
v -1.5 4 -6.5
v -1.5 5 -0.5
v -1.5 5 -3.5
v -1.5 6 5.5
v -1.5 6 2.5
v -1.5 7 8.5
v -1.5 7 7.5
v -1.5 7 5.5
v -1.5 7 2.5
v -1.5 8 8.5
v -1.5 8 7.5
v -1.5 8 -5.5
v -1.5 8 -6.5
v -0.5 8 -4.5
v -0.5 8 -6.5
v -0.5 9 -4.5
v -0.5 9 -5.5
v -0.5 9 -6.5
v -0.5 9 -7.5
v -0.5 10 -5.5
v -0.5 10 -6.5
v -0.5 11 -5.5
v -0.5 11 -6.5
v -0.5 12 -5.5
v -0.5 12 -7.5
v 1.5 0 1.5
v 1.5 0 -0.5
v 1.5 0 -3.5
v 1.5 0 -5.5
v 1.5 4 1.5
v 1.5 4 -0.5
v 1.5 4 -3.5
v 1.5 4 -5.5
v 1.5 5 7.5
v 1.5 5 5.5
v 1.5 6 5.5
v 1.5 7 7.5
v 1.5 7 5.5
v 2.5 3 5.5
v 2.5 3 2.5
v 2.5 5 5.5
v 2.5 5 2.5
v 2.5 7 5.5
v 2.5 7 2.5
v -2.5 3 5.5
v -2.5 3 2.5
v -2.5 5 5.5
v -2.5 5 2.5
v -2.5 7 5.5
v -2.5 7 2.5
v -1.5 0 1.5
v -1.5 0 -0.5
v -1.5 0 -3.5
v -1.5 0 -5.5
v -1.5 4 1.5
v -1.5 4 -0.5
v -1.5 4 -3.5
v -1.5 4 -5.5
v -1.5 5 7.5
v -1.5 5 5.5
v -1.5 6 5.5
v -1.5 7 7.5
v -1.5 7 5.5
v 0.5 8 -4.5
v 0.5 8 -6.5
v 0.5 9 -4.5
v 0.5 9 -5.5
v 0.5 9 -6.5
v 0.5 9 -7.5
v 0.5 10 -5.5
v 0.5 10 -6.5
v 0.5 11 -5.5
v 0.5 11 -6.5
v 0.5 12 -5.5
v 0.5 12 -7.5
v 1.5 4 -0.5
v 1.5 4 -3.5
v 1.5 4 -5.5
v 1.5 4 -6.5
v 1.5 5 -0.5
v 1.5 5 -3.5
v 1.5 6 5.5
v 1.5 6 2.5
v 1.5 7 8.5
v 1.5 7 7.5
v 1.5 7 5.5
v 1.5 7 2.5
v 1.5 8 8.5
v 1.5 8 7.5
v 1.5 8 -5.5
v 1.5 8 -6.5
v 2.5 5 7.5
v 2.5 5 5.5
v 2.5 5 2.5
v 2.5 5 1.5
v 2.5 5 -0.5
v 2.5 5 -3.5
v 2.5 6 -3.5
v 2.5 6 -5.5
v 2.5 7 1.5
v 2.5 7 -0.5
v 2.5 8 -1.5
v 2.5 8 -5.5
v 2.5 9 7.5
v 2.5 9 5.5
v 2.5 9 0.5
v 2.5 9 -1.5
v 2.5 10 5.5
v 2.5 10 2.5
v 2.5 10 0.5
v 2.5 11 5.5
v 2.5 11 2.5
v 3.5 0 1.5
v 3.5 0 -0.5
v 3.5 0 -3.5
v 3.5 0 -5.5
v 3.5 3 5.5
v 3.5 3 2.5
v 3.5 6 -3.5
v 3.5 6 -5.5
v 3.5 7 1.5
v 3.5 7 -0.5
v 3.5 10 5.5
v 3.5 10 2.5
v -1.5 7 8.5
v -1.5 8 8.5
v 1.5 7 8.5
v 1.5 8 8.5
v -2.5 5 7.5
v -2.5 9 7.5
v -1.5 5 7.5
v -1.5 7 7.5
v -1.5 8 7.5
v 1.5 5 7.5
v 1.5 7 7.5
v 1.5 8 7.5
v 2.5 5 7.5
v 2.5 9 7.5
v -3.5 3 5.5
v -3.5 10 5.5
v -2.5 3 5.5
v -2.5 5 5.5
v -2.5 9 5.5
v -2.5 10 5.5
v -2.5 11 5.5
v -1.5 6 5.5
v -1.5 7 5.5
v -1.5 9 5.5
v -1.5 10 5.5
v -0.5 9 5.5
v -0.5 10 5.5
v 0.5 9 5.5
v 0.5 10 5.5
v 1.5 6 5.5
v 1.5 7 5.5
v 1.5 9 5.5
v 1.5 10 5.5
v 2.5 3 5.5
v 2.5 5 5.5
v 2.5 9 5.5
v 2.5 10 5.5
v 2.5 11 5.5
v 3.5 3 5.5
v 3.5 10 5.5
v -2.5 5 2.5
v -2.5 7 2.5
v -1.5 6 2.5
v -1.5 7 2.5
v 1.5 6 2.5
v 1.5 7 2.5
v 2.5 5 2.5
v 2.5 7 2.5
v -3.5 0 1.5
v -3.5 7 1.5
v -2.5 5 1.5
v -2.5 7 1.5
v -1.5 0 1.5
v -1.5 4 1.5
v 1.5 0 1.5
v 1.5 4 1.5
v 2.5 5 1.5
v 2.5 7 1.5
v 3.5 0 1.5
v 3.5 7 1.5
v -3.5 0 -3.5
v -3.5 6 -3.5
v -2.5 5 -3.5
v -2.5 6 -3.5
v -1.5 0 -3.5
v -1.5 4 -3.5
v -1.5 5 -3.5
v 1.5 0 -3.5
v 1.5 4 -3.5
v 1.5 5 -3.5
v 2.5 5 -3.5
v 2.5 6 -3.5
v 3.5 0 -3.5
v 3.5 6 -3.5
v -0.5 8 -4.5
v -0.5 9 -4.5
v 0.5 8 -4.5
v 0.5 9 -4.5
v -0.5 9 -5.5
v -0.5 10 -5.5
v -0.5 11 -5.5
v -0.5 12 -5.5
v 0.5 9 -5.5
v 0.5 10 -5.5
v 0.5 11 -5.5
v 0.5 12 -5.5
v -0.5 10 -6.5
v -0.5 11 -6.5
v 0.5 10 -6.5
v 0.5 11 -6.5
v -2.5 5 5.5
v -2.5 7 5.5
v -1.5 5 5.5
v -1.5 6 5.5
v -1.5 7 5.5
v 1.5 5 5.5
v 1.5 6 5.5
v 1.5 7 5.5
v 2.5 5 5.5
v 2.5 7 5.5
v -3.5 3 2.5
v -3.5 10 2.5
v -2.5 3 2.5
v -2.5 5 2.5
v -2.5 10 2.5
v -2.5 11 2.5
v 2.5 3 2.5
v 2.5 5 2.5
v 2.5 10 2.5
v 2.5 11 2.5
v 3.5 3 2.5
v 3.5 10 2.5
v -2.5 9 0.5
v -2.5 10 0.5
v 2.5 9 0.5
v 2.5 10 0.5
v -3.5 0 -0.5
v -3.5 7 -0.5
v -2.5 5 -0.5
v -2.5 7 -0.5
v -1.5 0 -0.5
v -1.5 4 -0.5
v -1.5 5 -0.5
v 1.5 0 -0.5
v 1.5 4 -0.5
v 1.5 5 -0.5
v 2.5 5 -0.5
v 2.5 7 -0.5
v 3.5 0 -0.5
v 3.5 7 -0.5
v -2.5 8 -1.5
v -2.5 9 -1.5
v 2.5 8 -1.5
v 2.5 9 -1.5
v -3.5 0 -5.5
v -3.5 6 -5.5
v -2.5 6 -5.5
v -2.5 8 -5.5
v -1.5 0 -5.5
v -1.5 4 -5.5
v -1.5 8 -5.5
v 1.5 0 -5.5
v 1.5 4 -5.5
v 1.5 8 -5.5
v 2.5 6 -5.5
v 2.5 8 -5.5
v 3.5 0 -5.5
v 3.5 6 -5.5
v -1.5 4 -6.5
v -1.5 8 -6.5
v -0.5 7 -6.5
v -0.5 8 -6.5
v -0.5 9 -6.5
v 0.5 7 -6.5
v 0.5 8 -6.5
v 0.5 9 -6.5
v 1.5 4 -6.5
v 1.5 8 -6.5
v -0.5 9 -7.5
v -0.5 12 -7.5
v 0.5 9 -7.5
v 0.5 12 -7.5
v -3.5 0 1.5
v -1.5 0 1.5
v 1.5 0 1.5
v 3.5 0 1.5
v -3.5 0 -0.5
v -1.5 0 -0.5
v 1.5 0 -0.5
v 3.5 0 -0.5
v -3.5 0 -3.5
v -1.5 0 -3.5
v 1.5 0 -3.5
v 3.5 0 -3.5
v -3.5 0 -5.5
v -1.5 0 -5.5
v 1.5 0 -5.5
v 3.5 0 -5.5
v -3.5 3 5.5
v -2.5 3 5.5
v 2.5 3 5.5
v 3.5 3 5.5
v -3.5 3 2.5
v -2.5 3 2.5
v 2.5 3 2.5
v 3.5 3 2.5
v -1.5 4 1.5
v 1.5 4 1.5
v -1.5 4 -0.5
v 1.5 4 -0.5
v -1.5 4 -3.5
v 1.5 4 -3.5
v -1.5 4 -5.5
v 1.5 4 -5.5
v -1.5 4 -6.5
v 1.5 4 -6.5
v -2.5 5 7.5
v -1.5 5 7.5
v 1.5 5 7.5
v 2.5 5 7.5
v -2.5 5 5.5
v -1.5 5 5.5
v 1.5 5 5.5
v 2.5 5 5.5
v -2.5 5 2.5
v 2.5 5 2.5
v -2.5 5 1.5
v 2.5 5 1.5
v -2.5 5 -0.5
v -1.5 5 -0.5
v 1.5 5 -0.5
v 2.5 5 -0.5
v -2.5 5 -3.5
v -1.5 5 -3.5
v 1.5 5 -3.5
v 2.5 5 -3.5
v -1.5 6 5.5
v 1.5 6 5.5
v -1.5 6 2.5
v 1.5 6 2.5
v -1.5 7 8.5
v 1.5 7 8.5
v -1.5 7 7.5
v 1.5 7 7.5
v -2.5 7 5.5
v -1.5 7 5.5
v 1.5 7 5.5
v 2.5 7 5.5
v -2.5 7 2.5
v -1.5 7 2.5
v 1.5 7 2.5
v 2.5 7 2.5
v -0.5 9 -6.5
v 0.5 9 -6.5
v -0.5 9 -7.5
v 0.5 9 -7.5
v -0.5 11 -5.5
v 0.5 11 -5.5
v -0.5 11 -6.5
v 0.5 11 -6.5
v -3.5 6 -3.5
v -2.5 6 -3.5
v 2.5 6 -3.5
v 3.5 6 -3.5
v -3.5 6 -5.5
v -2.5 6 -5.5
v 2.5 6 -5.5
v 3.5 6 -5.5
v -3.5 7 1.5
v -2.5 7 1.5
v 2.5 7 1.5
v 3.5 7 1.5
v -3.5 7 -0.5
v -2.5 7 -0.5
v 2.5 7 -0.5
v 3.5 7 -0.5
v -1.5 8 8.5
v 1.5 8 8.5
v -1.5 8 7.5
v 1.5 8 7.5
v -2.5 8 -1.5
v 2.5 8 -1.5
v -0.5 8 -4.5
v 0.5 8 -4.5
v -2.5 8 -5.5
v -1.5 8 -5.5
v 1.5 8 -5.5
v 2.5 8 -5.5
v -1.5 8 -6.5
v -0.5 8 -6.5
v 0.5 8 -6.5
v 1.5 8 -6.5
v -2.5 9 7.5
v 2.5 9 7.5
v -2.5 9 5.5
v -1.5 9 5.5
v -0.5 9 5.5
v 0.5 9 5.5
v 1.5 9 5.5
v 2.5 9 5.5
v -2.5 9 0.5
v 2.5 9 0.5
v -2.5 9 -1.5
v 2.5 9 -1.5
v -0.5 9 -4.5
v 0.5 9 -4.5
v -0.5 9 -5.5
v 0.5 9 -5.5
v -3.5 10 5.5
v -2.5 10 5.5
v 2.5 10 5.5
v 3.5 10 5.5
v -3.5 10 2.5
v -2.5 10 2.5
v 2.5 10 2.5
v 3.5 10 2.5
v -2.5 10 0.5
v 2.5 10 0.5
v -0.5 10 -5.5
v 0.5 10 -5.5
v -0.5 10 -6.5
v 0.5 10 -6.5
v -2.5 11 5.5
v 2.5 11 5.5
v -2.5 11 2.5
v 2.5 11 2.5
v -0.5 12 -5.5
v 0.5 12 -5.5
v -0.5 12 -7.5
v 0.5 12 -7.5

# faces
f 7/2/1 4/2/1 3/2/1
f 8/2/1 4/2/1 7/2/1
f 9/2/1 2/2/1 1/2/1
f 10/2/1 2/2/1 9/2/1
f 11/3/1 6/3/1 5/3/1
f 12/3/1 6/3/1 11/3/1
f 19/2/1 18/2/1 17/2/1
f 21/2/1 16/2/1 15/2/1
f 22/2/1 20/2/1 19/2/1
f 22/2/1 19/2/1 17/2/1
f 23/2/1 20/2/1 22/2/1
f 23/2/1 22/2/1 21/2/1
f 24/2/1 20/2/1 23/2/1
f 25/2/1 14/2/1 13/2/1
f 26/2/1 14/2/1 25/2/1
f 27/2/1 23/2/1 21/2/1
f 28/2/1 23/2/1 27/2/1
f 30/2/1 21/2/1 15/2/1
f 30/2/1 27/2/1 21/2/1
f 31/2/1 27/2/1 30/2/1
f 32/2/1 30/2/1 29/2/1
f 33/2/1 30/2/1 32/2/1
f 38/2/1 35/2/1 34/2/1
f 39/2/1 35/2/1 38/2/1
f 44/2/1 41/2/1 40/2/1
f 45/2/1 41/2/1 44/2/1
f 46/5/1 43/5/1 42/5/1
f 47/5/1 43/5/1 46/5/1
f 48/2/1 37/2/1 36/2/1
f 49/2/1 37/2/1 48/2/1
f 52/2/1 51/2/1 50/2/1
f 53/2/1 51/2/1 52/2/1
f 54/2/1 51/2/1 53/2/1
f 56/2/1 55/2/1 54/2/1
f 56/2/1 54/2/1 53/2/1
f 57/2/1 55/2/1 56/2/1
f 59/2/1 55/2/1 57/2/1
f 60/2/1 59/2/1 58/2/1
f 61/2/1 55/2/1 59/2/1
f 61/2/1 59/2/1 60/2/1
f 66/2/1 63/2/1 62/2/1
f 67/2/1 63/2/1 66/2/1
f 68/2/1 65/2/1 64/2/1
f 69/2/1 65/2/1 68/2/1
f 72/2/1 71/2/1 70/2/1
f 73/2/1 72/2/1 70/2/1
f 74/2/1 72/2/1 73/2/1
f 77/3/1 76/3/1 75/3/1
f 78/3/1 76/3/1 77/3/1
f 79/3/1 78/3/1 77/3/1
f 80/3/1 78/3/1 79/3/1
f 81/3/2 82/3/2 83/3/2
f 83/3/2 82/3/2 84/3/2
f 83/3/2 84/3/2 85/3/2
f 85/3/2 84/3/2 86/3/2
f 87/2/2 88/2/2 91/2/2
f 91/2/2 88/2/2 92/2/2
f 89/2/2 90/2/2 93/2/2
f 93/2/2 90/2/2 94/2/2
f 95/2/2 96/2/2 97/2/2
f 95/2/2 97/2/2 98/2/2
f 98/2/2 97/2/2 99/2/2
f 100/2/2 101/2/2 102/2/2
f 102/2/2 101/2/2 103/2/2
f 103/2/2 101/2/2 104/2/2
f 104/2/2 105/2/2 106/2/2
f 103/2/2 104/2/2 106/2/2
f 106/2/2 105/2/2 107/2/2
f 107/2/2 105/2/2 109/2/2
f 108/2/2 109/2/2 110/2/2
f 109/2/2 105/2/2 111/2/2
f 110/2/2 109/2/2 111/2/2
f 112/2/2 113/2/2 116/2/2
f 116/2/2 113/2/2 117/2/2
f 118/2/2 119/2/2 122/2/2
f 122/2/2 119/2/2 123/2/2
f 120/5/2 121/5/2 124/5/2
f 124/5/2 121/5/2 125/5/2
f 114/2/2 115/2/2 126/2/2
f 126/2/2 115/2/2 127/2/2
f 132/2/2 133/2/2 134/2/2
f 130/2/2 131/2/2 136/2/2
f 134/2/2 135/2/2 137/2/2
f 132/2/2 134/2/2 137/2/2
f 137/2/2 135/2/2 138/2/2
f 136/2/2 137/2/2 138/2/2
f 138/2/2 135/2/2 139/2/2
f 128/2/2 129/2/2 140/2/2
f 140/2/2 129/2/2 141/2/2
f 136/2/2 138/2/2 142/2/2
f 142/2/2 138/2/2 143/2/2
f 130/2/2 136/2/2 145/2/2
f 136/2/2 142/2/2 145/2/2
f 145/2/2 142/2/2 146/2/2
f 144/2/2 145/2/2 147/2/2
f 147/2/2 145/2/2 148/2/2
f 151/2/2 152/2/2 155/2/2
f 155/2/2 152/2/2 156/2/2
f 149/2/2 150/2/2 157/2/2
f 157/2/2 150/2/2 158/2/2
f 153/3/2 154/3/2 159/3/2
f 159/3/2 154/3/2 160/3/2
f 163/5/3 162/5/3 161/5/3
f 164/5/3 162/5/3 163/5/3
f 167/2/3 166/2/3 165/2/3
f 168/2/3 166/2/3 167/2/3
f 169/2/3 166/2/3 168/2/3
f 172/2/3 166/2/3 169/2/3
f 173/2/3 171/2/3 170/2/3
f 173/2/3 172/2/3 171/2/3
f 174/2/3 166/2/3 172/2/3
f 174/2/3 172/2/3 173/2/3
f 177/3/3 176/3/3 175/3/3
f 178/3/3 176/3/3 177/3/3
f 179/3/3 176/3/3 178/3/3
f 180/3/3 176/3/3 179/3/3
f 184/4/3 180/4/3 179/4/3
f 185/2/3 181/2/3 180/2/3
f 185/4/3 180/4/3 184/4/3
f 186/5/3 185/5/3 184/5/3
f 187/2/3 181/2/3 185/2/3
f 187/5/3 185/5/3 186/5/3
f 188/2/3 187/2/3 186/2/3
f 189/2/3 181/2/3 187/2/3
f 189/2/3 187/2/3 188/2/3
f 190/2/3 183/2/3 182/2/3
f 191/2/3 183/2/3 190/2/3
f 192/5/3 189/5/3 188/5/3
f 193/2/3 181/2/3 189/2/3
f 193/5/3 189/5/3 192/5/3
f 196/4/3 193/4/3 192/4/3
f 197/2/3 181/2/3 193/2/3
f 197/4/3 193/4/3 196/4/3
f 198/2/3 181/2/3 197/2/3
f 199/3/3 196/3/3 195/3/3
f 199/3/3 195/3/3 194/3/3
f 199/3/3 197/3/3 196/3/3
f 200/3/3 197/3/3 199/3/3
f 203/2/3 202/2/3 201/2/3
f 204/2/3 202/2/3 203/2/3
f 205/2/3 203/2/3 201/2/3
f 207/2/3 205/2/3 201/2/3
f 207/2/3 206/2/3 205/2/3
f 208/2/3 206/2/3 207/2/3
f 211/2/3 210/2/3 209/2/3
f 212/2/3 210/2/3 211/2/3
f 213/2/3 211/2/3 209/2/3
f 214/2/3 211/2/3 213/2/3
f 216/2/3 211/2/3 214/2/3
f 217/2/3 211/2/3 216/2/3
f 217/2/3 216/2/3 215/2/3
f 219/2/3 217/2/3 215/2/3
f 219/2/3 218/2/3 217/2/3
f 220/2/3 218/2/3 219/2/3
f 223/2/3 222/2/3 221/2/3
f 224/2/3 222/2/3 223/2/3
f 225/2/3 223/2/3 221/2/3
f 226/2/3 223/2/3 225/2/3
f 227/2/3 223/2/3 226/2/3
f 231/2/3 229/2/3 228/2/3
f 231/2/3 230/2/3 229/2/3
f 233/2/3 231/2/3 228/2/3
f 233/2/3 232/2/3 231/2/3
f 234/2/3 232/2/3 233/2/3
f 237/2/3 236/2/3 235/2/3
f 238/2/3 236/2/3 237/2/3
f 243/2/3 240/2/3 239/2/3
f 244/2/3 240/2/3 243/2/3
f 245/2/3 242/2/3 241/2/3
f 246/2/3 242/2/3 245/2/3
f 249/2/3 248/2/3 247/2/3
f 250/2/3 248/2/3 249/2/3
f 251/2/4 252/2/4 253/2/4
f 253/2/4 252/2/4 254/2/4
f 254/2/4 252/2/4 255/2/4
f 256/2/4 257/2/4 259/2/4
f 257/2/4 258/2/4 259/2/4
f 259/2/4 258/2/4 260/2/4
f 261/3/4 262/3/4 263/3/4
f 263/3/4 262/3/4 264/3/4
f 264/3/4 262/3/4 265/3/4
f 265/2/4 266/2/4 269/2/4
f 269/2/4 266/2/4 270/2/4
f 267/3/4 268/3/4 271/3/4
f 268/3/4 269/3/4 271/3/4
f 271/3/4 269/3/4 272/3/4
f 273/2/4 274/2/4 275/2/4
f 275/2/4 274/2/4 276/2/4
f 277/2/4 278/2/4 279/2/4
f 279/2/4 278/2/4 280/2/4
f 277/2/4 279/2/4 281/2/4
f 281/2/4 279/2/4 282/2/4
f 282/2/4 279/2/4 283/2/4
f 284/2/4 285/2/4 287/2/4
f 285/2/4 286/2/4 287/2/4
f 284/2/4 287/2/4 289/2/4
f 287/2/4 288/2/4 289/2/4
f 289/2/4 288/2/4 290/2/4
f 291/2/4 292/2/4 293/2/4
f 293/2/4 292/2/4 294/2/4
f 295/2/4 296/2/4 297/2/4
f 295/2/4 297/2/4 299/2/4
f 297/2/4 298/2/4 299/2/4
f 299/2/4 298/2/4 300/2/4
f 300/2/4 298/2/4 301/2/4
f 302/2/4 303/2/4 305/2/4
f 303/2/4 304/2/4 305/2/4
f 305/2/4 304/2/4 306/2/4
f 302/2/4 305/2/4 307/2/4
f 307/2/4 305/2/4 308/2/4
f 309/2/4 310/2/4 311/2/4
f 311/2/4 310/2/4 312/2/4
f 309/2/4 311/2/4 314/2/4
f 311/5/4 312/5/4 314/5/4
f 312/2/4 313/2/4 315/2/4
f 314/5/4 312/5/4 315/5/4
f 315/2/4 313/2/4 316/2/4
f 309/2/4 314/2/4 317/2/4
f 314/2/4 315/2/4 317/2/4
f 317/2/4 315/2/4 318/2/4
f 319/2/4 320/2/4 321/2/4
f 321/2/4 320/2/4 322/2/4
f 327/2/5 324/2/5 323/2/5
f 328/2/5 324/2/5 327/2/5
f 329/2/5 326/2/5 325/2/5
f 330/2/5 326/2/5 329/2/5
f 335/2/5 332/2/5 331/2/5
f 336/2/5 332/2/5 335/2/5
f 337/2/5 334/2/5 333/2/5
f 338/2/5 334/2/5 337/2/5
f 343/3/5 340/3/5 339/3/5
f 344/3/5 340/3/5 343/3/5
f 345/3/5 342/3/5 341/3/5
f 346/3/5 342/3/5 345/3/5
f 349/2/5 348/2/5 347/2/5
f 350/2/5 348/2/5 349/2/5
f 351/2/5 350/2/5 349/2/5
f 352/2/5 350/2/5 351/2/5
f 353/2/5 352/2/5 351/2/5
f 354/2/5 352/2/5 353/2/5
f 355/2/5 354/2/5 353/2/5
f 356/2/5 354/2/5 355/2/5
f 361/2/5 358/2/5 357/2/5
f 362/2/5 358/2/5 361/2/5
f 363/2/5 360/2/5 359/2/5
f 364/2/5 360/2/5 363/2/5
f 367/2/5 366/2/5 365/2/5
f 368/2/5 366/2/5 367/2/5
f 373/2/5 370/2/5 369/2/5
f 374/2/5 370/2/5 373/2/5
f 375/2/5 372/2/5 371/2/5
f 376/2/5 372/2/5 375/2/5
f 379/2/5 378/2/5 377/2/5
f 380/2/5 378/2/5 379/2/5
f 383/5/5 382/5/5 381/5/5
f 384/5/5 382/5/5 383/5/5
f 386/2/5 384/2/5 383/2/5
f 387/2/5 384/2/5 386/2/5
f 389/2/5 386/2/5 385/2/5
f 390/2/5 386/2/5 389/2/5
f 391/2/5 388/2/5 387/2/5
f 392/2/5 388/2/5 391/2/5
f 395/2/5 394/2/5 393/2/5
f 396/2/5 394/2/5 395/2/5
f 399/2/5 398/2/5 397/2/5
f 400/2/5 398/2/5 399/2/5
f 401/2/6 402/2/6 405/2/6
f 405/2/6 402/2/6 406/2/6
f 403/2/6 404/2/6 407/2/6
f 407/2/6 404/2/6 408/2/6
f 409/2/6 410/2/6 413/2/6
f 413/2/6 410/2/6 414/2/6
f 411/2/6 412/2/6 415/2/6
f 415/2/6 412/2/6 416/2/6
f 417/5/6 418/5/6 419/5/6
f 419/5/6 418/5/6 420/5/6
f 421/2/6 422/2/6 423/2/6
f 423/2/6 422/2/6 424/2/6
f 421/2/6 423/2/6 425/2/6
f 425/2/6 423/2/6 426/2/6
f 424/2/6 422/2/6 427/2/6
f 427/2/6 422/2/6 428/2/6
f 426/2/6 423/2/6 429/2/6
f 429/2/6 423/2/6 430/2/6
f 424/2/6 427/2/6 431/2/6
f 431/2/6 427/2/6 432/2/6
f 433/2/6 434/2/6 435/2/6
f 435/2/6 434/2/6 436/2/6
f 436/2/6 434/2/6 437/2/6
f 437/2/6 434/2/6 438/2/6
f 438/2/6 434/2/6 439/2/6
f 439/2/6 434/2/6 440/2/6
f 441/2/6 442/2/6 443/2/6
f 443/2/6 442/2/6 444/2/6
f 445/2/6 446/2/6 447/2/6
f 447/2/6 446/2/6 448/2/6
f 449/3/6 450/3/6 453/3/6
f 453/3/6 450/3/6 454/3/6
f 451/3/6 452/3/6 455/3/6
f 455/3/6 452/3/6 456/3/6
f 454/2/6 455/2/6 457/2/6
f 457/2/6 455/2/6 458/2/6
f 459/2/6 460/2/6 461/2/6
f 461/2/6 460/2/6 462/2/6
f 463/2/6 464/2/6 465/2/6
f 465/2/6 464/2/6 466/2/6
f 467/2/6 468/2/6 469/2/6
f 469/2/6 468/2/6 470/2/6
