# MagicaVoxel @ Ephtracy

# material
mtllib bridge.mtl
usemtl palette

# normals
vn -1 0 0
vn 1 0 0
vn 0 0 1
vn 0 0 -1
vn 0 -1 0
vn 0 1 0

# texcoords
vt 0.908203 0.5
vt 0.970703 0.5

# verts
v -8.5 0 7.5
v -8.5 0 4.5
v -8.5 0 3.5
v -8.5 0 0.5
v -8.5 0 -0.5
v -8.5 0 -3.5
v -8.5 0 -4.5
v -8.5 0 -7.5
v -8.5 1 3.5
v -8.5 1 0.5
v -8.5 1 -0.5
v -8.5 1 -3.5
v -8.5 5 7.5
v -8.5 5 4.5
v -8.5 5 -4.5
v -8.5 5 -7.5
v -6.5 0 8.5
v -6.5 0 7.5
v -6.5 0 -7.5
v -6.5 0 -8.5
v -6.5 1 8.5
v -6.5 1 7.5
v -6.5 1 -7.5
v -6.5 1 -8.5
v 6.5 1 7.5
v 6.5 1 4.5
v 6.5 1 -4.5
v 6.5 1 -7.5
v 6.5 5 7.5
v 6.5 5 4.5
v 6.5 5 -4.5
v 6.5 5 -7.5
v -6.5 1 7.5
v -6.5 1 4.5
v -6.5 1 -4.5
v -6.5 1 -7.5
v -6.5 5 7.5
v -6.5 5 4.5
v -6.5 5 -4.5
v -6.5 5 -7.5
v 6.5 0 8.5
v 6.5 0 7.5
v 6.5 0 -7.5
v 6.5 0 -8.5
v 6.5 1 8.5
v 6.5 1 7.5
v 6.5 1 -7.5
v 6.5 1 -8.5
v 8.5 0 7.5
v 8.5 0 4.5
v 8.5 0 3.5
v 8.5 0 0.5
v 8.5 0 -0.5
v 8.5 0 -3.5
v 8.5 0 -4.5
v 8.5 0 -7.5
v 8.5 1 3.5
v 8.5 1 0.5
v 8.5 1 -0.5
v 8.5 1 -3.5
v 8.5 5 7.5
v 8.5 5 4.5
v 8.5 5 -4.5
v 8.5 5 -7.5
v -6.5 0 8.5
v -6.5 1 8.5
v 6.5 0 8.5
v 6.5 1 8.5
v -8.5 0 7.5
v -8.5 5 7.5
v -6.5 0 7.5
v -6.5 1 7.5
v -6.5 5 7.5
v 6.5 0 7.5
v 6.5 1 7.5
v 6.5 5 7.5
v 8.5 0 7.5
v 8.5 5 7.5
v -8.5 0 3.5
v -8.5 1 3.5
v -6.5 0 3.5
v -6.5 1 3.5
v 6.5 0 3.5
v 6.5 1 3.5
v 8.5 0 3.5
v 8.5 1 3.5
v -8.5 0 -0.5
v -8.5 1 -0.5
v -6.5 0 -0.5
v -6.5 1 -0.5
v 6.5 0 -0.5
v 6.5 1 -0.5
v 8.5 0 -0.5
v 8.5 1 -0.5
v -8.5 0 -4.5
v -8.5 5 -4.5
v -6.5 1 -4.5
v -6.5 5 -4.5
v 6.5 1 -4.5
v 6.5 5 -4.5
v 8.5 0 -4.5
v 8.5 5 -4.5
v -8.5 0 4.5
v -8.5 5 4.5
v -6.5 1 4.5
v -6.5 5 4.5
v 6.5 1 4.5
v 6.5 5 4.5
v 8.5 0 4.5
v 8.5 5 4.5
v -8.5 0 0.5
v -8.5 1 0.5
v -6.5 0 0.5
v -6.5 1 0.5
v 6.5 0 0.5
v 6.5 1 0.5
v 8.5 0 0.5
v 8.5 1 0.5
v -8.5 0 -3.5
v -8.5 1 -3.5
v -6.5 0 -3.5
v -6.5 1 -3.5
v 6.5 0 -3.5
v 6.5 1 -3.5
v 8.5 0 -3.5
v 8.5 1 -3.5
v -8.5 0 -7.5
v -8.5 5 -7.5
v -6.5 0 -7.5
v -6.5 1 -7.5
v -6.5 5 -7.5
v 6.5 0 -7.5
v 6.5 1 -7.5
v 6.5 5 -7.5
v 8.5 0 -7.5
v 8.5 5 -7.5
v -6.5 0 -8.5
v -6.5 1 -8.5
v 6.5 0 -8.5
v 6.5 1 -8.5
v -6.5 0 8.5
v 6.5 0 8.5
v -8.5 0 7.5
v -6.5 0 7.5
v 6.5 0 7.5
v 8.5 0 7.5
v -7.5 0 6.5
v -6.5 0 6.5
v 6.5 0 6.5
v 7.5 0 6.5
v -7.5 0 5.5
v -6.5 0 5.5
v 6.5 0 5.5
v 7.5 0 5.5
v -8.5 0 4.5
v 8.5 0 4.5
v -8.5 0 3.5
v -6.5 0 3.5
v 6.5 0 3.5
v 8.5 0 3.5
v -8.5 0 0.5
v -6.5 0 0.5
v 6.5 0 0.5
v 8.5 0 0.5
v -8.5 0 -0.5
v -6.5 0 -0.5
v 6.5 0 -0.5
v 8.5 0 -0.5
v -8.5 0 -3.5
v -6.5 0 -3.5
v 6.5 0 -3.5
v 8.5 0 -3.5
v -8.5 0 -4.5
v 8.5 0 -4.5
v -7.5 0 -5.5
v -6.5 0 -5.5
v 6.5 0 -5.5
v 7.5 0 -5.5
v -7.5 0 -6.5
v -6.5 0 -6.5
v 6.5 0 -6.5
v 7.5 0 -6.5
v -8.5 0 -7.5
v -6.5 0 -7.5
v 6.5 0 -7.5
v 8.5 0 -7.5
v -6.5 0 -8.5
v 6.5 0 -8.5
v -6.5 1 8.5
v 6.5 1 8.5
v -6.5 1 7.5
v 6.5 1 7.5
v -6.5 1 4.5
v 6.5 1 4.5
v -8.5 1 3.5
v -6.5 1 3.5
v 6.5 1 3.5
v 8.5 1 3.5
v -8.5 1 0.5
v -6.5 1 0.5
v 6.5 1 0.5
v 8.5 1 0.5
v -8.5 1 -0.5
v -6.5 1 -0.5
v 6.5 1 -0.5
v 8.5 1 -0.5
v -8.5 1 -3.5
v -6.5 1 -3.5
v 6.5 1 -3.5
v 8.5 1 -3.5
v -6.5 1 -4.5
v 6.5 1 -4.5
v -6.5 1 -7.5
v 6.5 1 -7.5
v -6.5 1 -8.5
v 6.5 1 -8.5
v -8.5 5 7.5
v -6.5 5 7.5
v 6.5 5 7.5
v 8.5 5 7.5
v -8.5 5 4.5
v -6.5 5 4.5
v 6.5 5 4.5
v 8.5 5 4.5
v -8.5 5 -4.5
v -6.5 5 -4.5
v 6.5 5 -4.5
v 8.5 5 -4.5
v -8.5 5 -7.5
v -6.5 5 -7.5
v 6.5 5 -7.5
v 8.5 5 -7.5

# faces
f 9/1/1 4/1/1 3/1/1
f 10/1/1 4/1/1 9/1/1
f 11/1/1 6/1/1 5/1/1
f 12/1/1 6/1/1 11/1/1
f 13/2/1 2/2/1 1/2/1
f 14/2/1 2/2/1 13/2/1
f 15/2/1 8/2/1 7/2/1
f 16/2/1 8/2/1 15/2/1
f 21/1/1 18/1/1 17/1/1
f 22/1/1 18/1/1 21/1/1
f 23/1/1 20/1/1 19/1/1
f 24/1/1 20/1/1 23/1/1
f 29/2/1 26/2/1 25/2/1
f 30/2/1 26/2/1 29/2/1
f 31/2/1 28/2/1 27/2/1
f 32/2/1 28/2/1 31/2/1
f 33/2/2 34/2/2 37/2/2
f 37/2/2 34/2/2 38/2/2
f 35/2/2 36/2/2 39/2/2
f 39/2/2 36/2/2 40/2/2
f 41/1/2 42/1/2 45/1/2
f 45/1/2 42/1/2 46/1/2
f 43/1/2 44/1/2 47/1/2
f 47/1/2 44/1/2 48/1/2
f 51/1/2 52/1/2 57/1/2
f 57/1/2 52/1/2 58/1/2
f 53/1/2 54/1/2 59/1/2
f 59/1/2 54/1/2 60/1/2
f 49/2/2 50/2/2 61/2/2
f 61/2/2 50/2/2 62/2/2
f 55/2/2 56/2/2 63/2/2
f 63/2/2 56/2/2 64/2/2
f 67/1/3 66/1/3 65/1/3
f 68/1/3 66/1/3 67/1/3
f 71/2/3 70/2/3 69/2/3
f 72/2/3 70/2/3 71/2/3
f 73/2/3 70/2/3 72/2/3
f 77/2/3 75/2/3 74/2/3
f 77/2/3 76/2/3 75/2/3
f 78/2/3 76/2/3 77/2/3
f 81/1/3 80/1/3 79/1/3
f 82/1/3 80/1/3 81/1/3
f 83/2/3 82/2/3 81/2/3
f 84/2/3 82/2/3 83/2/3
f 85/1/3 84/1/3 83/1/3
f 86/1/3 84/1/3 85/1/3
f 89/1/3 88/1/3 87/1/3
f 90/1/3 88/1/3 89/1/3
f 91/2/3 90/2/3 89/2/3
f 92/2/3 90/2/3 91/2/3
f 93/1/3 92/1/3 91/1/3
f 94/1/3 92/1/3 93/1/3
f 97/2/3 96/2/3 95/2/3
f 98/2/3 96/2/3 97/2/3
f 99/2/3 97/2/3 95/2/3
f 101/2/3 99/2/3 95/2/3
f 101/2/3 100/2/3 99/2/3
f 102/2/3 100/2/3 101/2/3
f 103/2/4 104/2/4 105/2/4
f 105/2/4 104/2/4 106/2/4
f 103/2/4 105/2/4 107/2/4
f 103/2/4 107/2/4 109/2/4
f 107/2/4 108/2/4 109/2/4
f 109/2/4 108/2/4 110/2/4
f 111/1/4 112/1/4 113/1/4
f 113/1/4 112/1/4 114/1/4
f 113/2/4 114/2/4 115/2/4
f 115/2/4 114/2/4 116/2/4
f 115/1/4 116/1/4 117/1/4
f 117/1/4 116/1/4 118/1/4
f 119/1/4 120/1/4 121/1/4
f 121/1/4 120/1/4 122/1/4
f 121/2/4 122/2/4 123/2/4
f 123/2/4 122/2/4 124/2/4
f 123/1/4 124/1/4 125/1/4
f 125/1/4 124/1/4 126/1/4
f 127/2/4 128/2/4 129/2/4
f 129/2/4 128/2/4 130/2/4
f 130/2/4 128/2/4 131/2/4
f 132/2/4 133/2/4 135/2/4
f 133/2/4 134/2/4 135/2/4
f 135/2/4 134/2/4 136/2/4
f 137/1/4 138/1/4 139/1/4
f 139/1/4 138/1/4 140/1/4
f 144/1/5 142/1/5 141/1/5
f 145/1/5 142/1/5 144/1/5
f 147/2/5 144/2/5 143/2/5
f 147/2/5 146/2/5 145/2/5
f 147/2/5 145/2/5 144/2/5
f 148/2/5 146/2/5 147/2/5
f 149/2/5 146/2/5 148/2/5
f 150/2/5 146/2/5 149/2/5
f 151/2/5 147/2/5 143/2/5
f 151/1/5 148/1/5 147/1/5
f 152/2/5 149/2/5 148/2/5
f 152/1/5 148/1/5 151/1/5
f 153/1/5 150/1/5 149/1/5
f 153/2/5 149/2/5 152/2/5
f 154/2/5 146/2/5 150/2/5
f 154/1/5 150/1/5 153/1/5
f 155/2/5 153/2/5 152/2/5
f 155/2/5 152/2/5 151/2/5
f 155/2/5 154/2/5 153/2/5
f 155/2/5 151/2/5 143/2/5
f 156/2/5 146/2/5 154/2/5
f 156/2/5 154/2/5 155/2/5
f 161/1/5 158/1/5 157/1/5
f 162/2/5 159/2/5 158/2/5
f 162/1/5 158/1/5 161/1/5
f 163/1/5 160/1/5 159/1/5
f 163/2/5 159/2/5 162/2/5
f 164/1/5 160/1/5 163/1/5
f 169/1/5 166/1/5 165/1/5
f 170/2/5 167/2/5 166/2/5
f 170/1/5 166/1/5 169/1/5
f 171/1/5 168/1/5 167/1/5
f 171/2/5 167/2/5 170/2/5
f 172/1/5 168/1/5 171/1/5
f 175/2/5 174/2/5 173/2/5
f 176/2/5 174/2/5 175/2/5
f 177/2/5 174/2/5 176/2/5
f 178/2/5 174/2/5 177/2/5
f 179/2/5 175/2/5 173/2/5
f 179/1/5 176/1/5 175/1/5
f 180/2/5 177/2/5 176/2/5
f 180/1/5 176/1/5 179/1/5
f 181/1/5 178/1/5 177/1/5
f 181/2/5 177/2/5 180/2/5
f 182/2/5 174/2/5 178/2/5
f 182/1/5 178/1/5 181/1/5
f 183/2/5 181/2/5 180/2/5
f 183/2/5 180/2/5 179/2/5
f 183/2/5 182/2/5 181/2/5
f 183/2/5 179/2/5 173/2/5
f 184/2/5 182/2/5 183/2/5
f 185/2/5 182/2/5 184/2/5
f 186/2/5 174/2/5 182/2/5
f 186/2/5 182/2/5 185/2/5
f 187/1/5 185/1/5 184/1/5
f 188/1/5 185/1/5 187/1/5
f 189/1/6 190/1/6 191/1/6
f 191/1/6 190/1/6 192/1/6
f 191/2/6 192/2/6 193/2/6
f 193/2/6 192/2/6 194/2/6
f 195/1/6 196/1/6 199/1/6
f 196/2/6 197/2/6 200/2/6
f 199/1/6 196/1/6 200/1/6
f 197/1/6 198/1/6 201/1/6
f 200/2/6 197/2/6 201/2/6
f 201/1/6 198/1/6 202/1/6
f 203/1/6 204/1/6 207/1/6
f 204/2/6 205/2/6 208/2/6
f 207/1/6 204/1/6 208/1/6
f 205/1/6 206/1/6 209/1/6
f 208/2/6 205/2/6 209/2/6
f 209/1/6 206/1/6 210/1/6
f 211/2/6 212/2/6 213/2/6
f 213/2/6 212/2/6 214/2/6
f 213/1/6 214/1/6 215/1/6
f 215/1/6 214/1/6 216/1/6
f 217/2/6 218/2/6 221/2/6
f 221/2/6 218/2/6 222/2/6
f 219/2/6 220/2/6 223/2/6
f 223/2/6 220/2/6 224/2/6
f 225/2/6 226/2/6 229/2/6
f 229/2/6 226/2/6 230/2/6
f 227/2/6 228/2/6 231/2/6
f 231/2/6 228/2/6 232/2/6
