# MagicaVoxel @ Ephtracy

# material
mtllib blockroad4.mtl
usemtl palette

# normals
vn -1 0 0
vn 1 0 0
vn 0 0 1
vn 0 0 -1
vn 0 -1 0
vn 0 1 0

# texcoords
vt 0.970703 0.5
vt 0.978516 0.5
vt 0.982422 0.5
vt 0.986328 0.5

# verts
v -9 0 9
v -9 0 -2
v -9 0 -5
v -9 0 -9
v -9 18 9
v -9 18 -2
v -9 18 -5
v -9 18 -9
v 9 0 9
v 9 0 -9
v 9 18 9
v 9 18 -9
v -9 0 9
v -9 18 9
v -8 17 9
v -8 18 9
v -1 17 9
v -1 18 9
v 2 0 9
v 2 18 9
v 5 0 9
v 5 18 9
v 9 0 9
v 9 18 9
v -9 0 -9
v -9 18 -9
v 9 0 -9
v 9 18 -9
v -9 0 9
v 2 0 9
v 5 0 9
v 9 0 9
v 2 0 8
v 5 0 8
v -9 0 -2
v -8 0 -2
v -9 0 -5
v -8 0 -5
v 5 0 -5
v -9 0 -9
v 9 0 -9
v -9 18 9
v -8 18 9
v -1 18 9
v 2 18 9
v 5 18 9
v 9 18 9
v -8 18 8
v -1 18 8
v -9 18 -2
v 2 18 -2
v -9 18 -5
v 5 18 -5
v -9 18 -9
v 9 18 -9

# faces
f 5/2/1 2/2/1 1/2/1
f 6/3/1 3/3/1 2/3/1
f 6/2/1 2/2/1 5/2/1
f 7/1/1 4/1/1 3/1/1
f 7/3/1 3/3/1 6/3/1
f 8/1/1 4/1/1 7/1/1
f 9/1/2 10/1/2 11/1/2
f 11/1/2 10/1/2 12/1/2
f 15/2/3 14/2/3 13/2/3
f 16/2/3 14/2/3 15/2/3
f 17/2/3 15/2/3 13/2/3
f 17/4/3 16/4/3 15/4/3
f 18/4/3 16/4/3 17/4/3
f 19/2/3 17/2/3 13/2/3
f 19/2/3 18/2/3 17/2/3
f 20/2/3 18/2/3 19/2/3
f 21/3/3 20/3/3 19/3/3
f 22/3/3 20/3/3 21/3/3
f 23/1/3 22/1/3 21/1/3
f 24/1/3 22/1/3 23/1/3
f 25/1/4 26/1/4 27/1/4
f 27/1/4 26/1/4 28/1/4
f 33/2/5 30/2/5 29/2/5
f 33/3/5 31/3/5 30/3/5
f 34/1/5 32/1/5 31/1/5
f 34/3/5 31/3/5 33/3/5
f 35/2/5 33/2/5 29/2/5
f 35/2/5 34/2/5 33/2/5
f 36/2/5 34/2/5 35/2/5
f 37/3/5 36/3/5 35/3/5
f 38/2/5 34/2/5 36/2/5
f 38/3/5 36/3/5 37/3/5
f 39/1/5 32/1/5 34/1/5
f 39/2/5 34/2/5 38/2/5
f 40/1/5 38/1/5 37/1/5
f 40/1/5 39/1/5 38/1/5
f 41/1/5 32/1/5 39/1/5
f 41/1/5 39/1/5 40/1/5
f 42/2/6 43/2/6 48/2/6
f 43/4/6 44/4/6 48/4/6
f 44/2/6 45/2/6 49/2/6
f 48/4/6 44/4/6 49/4/6
f 42/2/6 48/2/6 50/2/6
f 48/2/6 49/2/6 50/2/6
f 45/3/6 46/3/6 51/3/6
f 50/2/6 49/2/6 51/2/6
f 49/2/6 45/2/6 51/2/6
f 50/3/6 51/3/6 52/3/6
f 46/1/6 47/1/6 53/1/6
f 52/3/6 51/3/6 53/3/6
f 51/3/6 46/3/6 53/3/6
f 52/1/6 53/1/6 54/1/6
f 53/1/6 47/1/6 55/1/6
f 54/1/6 53/1/6 55/1/6
