# MagicaVoxel @ Ephtracy

# material
mtllib blockroad1.mtl
usemtl palette

# normals
vn -1 0 0
vn 1 0 0
vn 0 0 1
vn 0 0 -1
vn 0 -1 0
vn 0 1 0

# texcoords
vt 0.970703 0.5
vt 0.978516 0.5
vt 0.982422 0.5
vt 0.986328 0.5

# verts
v -9 0 9
v -9 0 -2
v -9 0 -5
v -9 0 -9
v -9 18 9
v -9 18 -2
v -9 18 -5
v -9 18 -9
v 9 0 9
v 9 0 -2
v 9 0 -5
v 9 0 -9
v 9 18 9
v 9 18 -2
v 9 18 -5
v 9 18 -9
v -9 0 9
v -9 18 9
v -8 17 9
v -8 18 9
v -1 17 9
v -1 18 9
v 1 17 9
v 1 18 9
v 8 17 9
v 8 18 9
v 9 0 9
v 9 18 9
v -9 0 -9
v -9 18 -9
v 9 0 -9
v 9 18 -9
v -9 0 9
v 9 0 9
v -9 0 -2
v -8 0 -2
v 8 0 -2
v 9 0 -2
v -9 0 -5
v -8 0 -5
v 8 0 -5
v 9 0 -5
v -9 0 -9
v 9 0 -9
v -9 18 9
v -8 18 9
v -1 18 9
v 1 18 9
v 8 18 9
v 9 18 9
v -8 18 8
v -1 18 8
v 1 18 8
v 8 18 8
v -9 18 -2
v 9 18 -2
v -9 18 -5
v 9 18 -5
v -9 18 -9
v 9 18 -9

# faces
f 5/2/1 2/2/1 1/2/1
f 6/3/1 3/3/1 2/3/1
f 6/2/1 2/2/1 5/2/1
f 7/1/1 4/1/1 3/1/1
f 7/3/1 3/3/1 6/3/1
f 8/1/1 4/1/1 7/1/1
f 9/2/2 10/2/2 13/2/2
f 10/3/2 11/3/2 14/3/2
f 13/2/2 10/2/2 14/2/2
f 11/1/2 12/1/2 15/1/2
f 14/3/2 11/3/2 15/3/2
f 15/1/2 12/1/2 16/1/2
f 19/2/3 18/2/3 17/2/3
f 20/2/3 18/2/3 19/2/3
f 21/2/3 19/2/3 17/2/3
f 21/4/3 20/4/3 19/4/3
f 22/4/3 20/4/3 21/4/3
f 23/2/3 21/2/3 17/2/3
f 23/2/3 22/2/3 21/2/3
f 24/2/3 22/2/3 23/2/3
f 25/2/3 23/2/3 17/2/3
f 25/4/3 24/4/3 23/4/3
f 26/4/3 24/4/3 25/4/3
f 27/2/3 25/2/3 17/2/3
f 27/2/3 26/2/3 25/2/3
f 28/2/3 26/2/3 27/2/3
f 29/1/4 30/1/4 31/1/4
f 31/1/4 30/1/4 32/1/4
f 35/2/5 34/2/5 33/2/5
f 36/2/5 34/2/5 35/2/5
f 37/2/5 34/2/5 36/2/5
f 38/2/5 34/2/5 37/2/5
f 39/3/5 36/3/5 35/3/5
f 40/2/5 37/2/5 36/2/5
f 40/3/5 36/3/5 39/3/5
f 41/3/5 38/3/5 37/3/5
f 41/2/5 37/2/5 40/2/5
f 42/3/5 38/3/5 41/3/5
f 43/1/5 40/1/5 39/1/5
f 43/1/5 41/1/5 40/1/5
f 43/1/5 42/1/5 41/1/5
f 44/1/5 42/1/5 43/1/5
f 45/2/6 46/2/6 51/2/6
f 46/4/6 47/4/6 51/4/6
f 47/2/6 48/2/6 52/2/6
f 51/4/6 47/4/6 52/4/6
f 48/4/6 49/4/6 53/4/6
f 52/2/6 48/2/6 53/2/6
f 49/2/6 50/2/6 54/2/6
f 53/4/6 49/4/6 54/4/6
f 52/2/6 53/2/6 55/2/6
f 51/2/6 52/2/6 55/2/6
f 53/2/6 54/2/6 55/2/6
f 45/2/6 51/2/6 55/2/6
f 54/2/6 50/2/6 56/2/6
f 55/2/6 54/2/6 56/2/6
f 55/3/6 56/3/6 57/3/6
f 57/3/6 56/3/6 58/3/6
f 57/1/6 58/1/6 59/1/6
f 59/1/6 58/1/6 60/1/6
