# MagicaVoxel @ Ephtracy

# material
mtllib planet_6.mtl
usemtl palette

# normals
vn -1 0 0
vn 1 0 0
vn 0 0 1
vn 0 0 -1
vn 0 -1 0
vn 0 1 0

# texcoords
vt 0.787109 0.5
vt 0.845703 0.5
vt 0.908203 0.5

# verts
v -25 17 25
v -25 17 -25
v -25 22 25
v -25 22 -25
v -17 17 17
v -17 17 -17
v -17 22 17
v -17 22 -17
v -8 14 7
v -8 14 -8
v -8 29 7
v -8 29 -8
v 14 17 14
v 14 17 -14
v 14 22 14
v 14 22 -14
v 22 17 22
v 22 17 -22
v 22 22 22
v 22 22 -22
v -22 17 22
v -22 17 -22
v -22 22 22
v -22 22 -22
v -14 17 14
v -14 17 -14
v -14 22 14
v -14 22 -14
v 7 14 7
v 7 14 -8
v 7 29 7
v 7 29 -8
v 17 17 17
v 17 17 -17
v 17 22 17
v 17 22 -17
v 25 17 25
v 25 17 -25
v 25 22 25
v 25 22 -25
v -25 17 25
v -25 22 25
v 25 17 25
v 25 22 25
v -17 17 17
v -17 22 17
v 17 17 17
v 17 22 17
v -8 14 7
v -8 29 7
v 7 14 7
v 7 29 7
v -14 17 -14
v -14 22 -14
v 14 17 -14
v 14 22 -14
v -22 17 -22
v -22 22 -22
v 22 17 -22
v 22 22 -22
v -22 17 22
v -22 22 22
v 22 17 22
v 22 22 22
v -14 17 14
v -14 22 14
v 14 17 14
v 14 22 14
v -8 14 -8
v -8 29 -8
v 7 14 -8
v 7 29 -8
v -17 17 -17
v -17 22 -17
v 17 17 -17
v 17 22 -17
v -25 17 -25
v -25 22 -25
v 25 17 -25
v 25 22 -25
v -8 14 7
v 7 14 7
v -8 14 -8
v 7 14 -8
v -25 17 25
v 25 17 25
v -22 17 22
v 22 17 22
v -17 17 17
v 17 17 17
v -14 17 14
v 14 17 14
v -14 17 -14
v 14 17 -14
v -17 17 -17
v 17 17 -17
v -22 17 -22
v 22 17 -22
v -25 17 -25
v 25 17 -25
v -25 22 25
v 25 22 25
v -22 22 22
v 22 22 22
v -17 22 17
v 17 22 17
v -14 22 14
v 14 22 14
v -14 22 -14
v 14 22 -14
v -17 22 -17
v 17 22 -17
v -22 22 -22
v 22 22 -22
v -25 22 -25
v 25 22 -25
v -8 29 7
v 7 29 7
v -8 29 -8
v 7 29 -8

# faces
f 3/2/1 2/2/1 1/2/1
f 4/2/1 2/2/1 3/2/1
f 7/2/1 6/2/1 5/2/1
f 8/2/1 6/2/1 7/2/1
f 11/3/1 10/3/1 9/3/1
f 12/3/1 10/3/1 11/3/1
f 15/2/1 14/2/1 13/2/1
f 16/2/1 14/2/1 15/2/1
f 19/2/1 18/2/1 17/2/1
f 20/2/1 18/2/1 19/2/1
f 21/2/2 22/2/2 23/2/2
f 23/2/2 22/2/2 24/2/2
f 25/2/2 26/2/2 27/2/2
f 27/2/2 26/2/2 28/2/2
f 29/3/2 30/3/2 31/3/2
f 31/3/2 30/3/2 32/3/2
f 33/2/2 34/2/2 35/2/2
f 35/2/2 34/2/2 36/2/2
f 37/2/2 38/2/2 39/2/2
f 39/2/2 38/2/2 40/2/2
f 43/2/3 42/2/3 41/2/3
f 44/2/3 42/2/3 43/2/3
f 47/2/3 46/2/3 45/2/3
f 48/2/3 46/2/3 47/2/3
f 51/3/3 50/3/3 49/3/3
f 52/3/3 50/3/3 51/3/3
f 55/2/3 54/2/3 53/2/3
f 56/2/3 54/2/3 55/2/3
f 59/2/3 58/2/3 57/2/3
f 60/2/3 58/2/3 59/2/3
f 61/2/4 62/2/4 63/2/4
f 63/2/4 62/2/4 64/2/4
f 65/2/4 66/2/4 67/2/4
f 67/2/4 66/2/4 68/2/4
f 69/3/4 70/3/4 71/3/4
f 71/3/4 70/3/4 72/3/4
f 73/2/4 74/2/4 75/2/4
f 75/2/4 74/2/4 76/2/4
f 77/2/4 78/2/4 79/2/4
f 79/2/4 78/2/4 80/2/4
f 83/3/5 82/3/5 81/3/5
f 84/3/5 82/3/5 83/3/5
f 87/2/5 86/2/5 85/2/5
f 88/2/5 86/2/5 87/2/5
f 91/2/5 90/2/5 89/2/5
f 92/2/5 90/2/5 91/2/5
f 93/2/5 91/2/5 89/2/5
f 94/2/5 90/2/5 92/2/5
f 95/2/5 93/2/5 89/2/5
f 95/2/5 94/2/5 93/2/5
f 96/2/5 90/2/5 94/2/5
f 96/2/5 94/2/5 95/2/5
f 97/2/5 87/2/5 85/2/5
f 98/2/5 86/2/5 88/2/5
f 99/2/5 97/2/5 85/2/5
f 99/2/5 98/2/5 97/2/5
f 100/2/5 86/2/5 98/2/5
f 100/2/5 98/2/5 99/2/5
f 101/2/6 102/2/6 103/2/6
f 103/2/6 102/2/6 104/2/6
f 105/2/6 106/2/6 107/2/6
f 107/2/6 106/2/6 108/2/6
f 105/2/6 107/2/6 109/2/6
f 108/2/6 106/2/6 110/2/6
f 105/2/6 109/2/6 111/2/6
f 109/2/6 110/2/6 111/2/6
f 110/2/6 106/2/6 112/2/6
f 111/2/6 110/2/6 112/2/6
f 101/2/6 103/2/6 113/2/6
f 104/2/6 102/2/6 114/2/6
f 101/2/6 113/2/6 115/2/6
f 113/2/6 114/2/6 115/2/6
f 114/2/6 102/2/6 116/2/6
f 115/2/6 114/2/6 116/2/6
f 117/3/6 118/3/6 119/3/6
f 119/3/6 118/3/6 120/3/6
