# MagicaVoxel @ Ephtracy

# material
mtllib untitled-01.mtl
usemtl palette

# normals
vn -1 0 0
vn 1 0 0
vn 0 0 1
vn 0 0 -1
vn 0 -1 0
vn 0 1 0

# texcoords
vt 0.212891 0.5
vt 0.396484 0.5
vt 0.400391 0.5
vt 0.794922 0.5
vt 0.908203 0.5
vt 0.912109 0.5
vt 0.916016 0.5
vt 0.939453 0.5
vt 0.990234 0.5
vt 0.994141 0.5

# verts
v -4.5 4 3.5
v -4.5 4 -4.5
v -4.5 8 3.5
v -4.5 8 0.5
v -4.5 9 0.5
v -4.5 9 -0.5
v -4.5 10 -0.5
v -4.5 10 -4.5
v -3.5 0 0.5
v -3.5 0 -0.5
v -3.5 1 0.5
v -3.5 1 -0.5
v -3.5 3 5.5
v -3.5 3 -4.5
v -3.5 4 3.5
v -3.5 4 -4.5
v -3.5 8 5.5
v -3.5 8 3.5
v -2.5 0 -0.5
v -2.5 0 -2.5
v -2.5 1 -0.5
v -2.5 1 -1.5
v -2.5 1 -2.5
v -2.5 3 -0.5
v -2.5 3 -1.5
v -2.5 3 -4.5
v -2.5 3 -5.5
v -2.5 8 -4.5
v -2.5 8 -5.5
v -2.5 12 5.5
v -2.5 12 1.5
v -2.5 13 7.5
v -2.5 13 5.5
v -2.5 14 6.5
v -2.5 14 1.5
v -2.5 15 7.5
v -2.5 15 6.5
v -1.5 0 0.5
v -1.5 0 -0.5
v -1.5 1 0.5
v -1.5 1 -0.5
v -1.5 5 -5.5
v -1.5 5 -6.5
v -1.5 6 -6.5
v -1.5 6 -7.5
v -1.5 8 4.5
v -1.5 8 0.5
v -1.5 8 -5.5
v -1.5 9 -5.5
v -1.5 9 -6.5
v -1.5 10 4.5
v -1.5 10 0.5
v -1.5 10 -6.5
v -1.5 10 -7.5
v -1.5 12 4.5
v -1.5 12 1.5
v -1.5 14 4.5
v -1.5 14 1.5
v -1.5 15 4.5
v -1.5 15 3.5
v -1.5 16 4.5
v -1.5 16 3.5
v -1.5 18 4.5
v -1.5 18 0.5
v 0.5 0 0.5
v 0.5 0 -0.5
v 0.5 1 0.5
v 0.5 1 -0.5
v 1.5 0 -0.5
v 1.5 0 -2.5
v 1.5 1 -0.5
v 1.5 1 -1.5
v 1.5 1 -2.5
v 1.5 3 -0.5
v 1.5 3 -1.5
v 2.5 0 0.5
v 2.5 0 -0.5
v 2.5 1 0.5
v 2.5 1 -0.5
v 3.5 8 0.5
v 3.5 8 -4.5
v 3.5 9 0.5
v 3.5 9 -0.5
v 3.5 10 -0.5
v 3.5 10 -4.5
v -3.5 8 0.5
v -3.5 8 -4.5
v -3.5 9 0.5
v -3.5 9 -0.5
v -3.5 10 -0.5
v -3.5 10 -4.5
v -2.5 0 0.5
v -2.5 0 -0.5
v -2.5 1 0.5
v -2.5 1 -0.5
v -1.5 0 -0.5
v -1.5 0 -2.5
v -1.5 1 -0.5
v -1.5 1 -1.5
v -1.5 1 -2.5
v -1.5 3 -0.5
v -1.5 3 -1.5
v -0.5 0 0.5
v -0.5 0 -0.5
v -0.5 1 0.5
v -0.5 1 -0.5
v 1.5 0 0.5
v 1.5 0 -0.5
v 1.5 1 0.5
v 1.5 1 -0.5
v 1.5 5 -5.5
v 1.5 5 -6.5
v 1.5 6 -6.5
v 1.5 6 -7.5
v 1.5 8 4.5
v 1.5 8 0.5
v 1.5 8 -5.5
v 1.5 9 -5.5
v 1.5 9 -6.5
v 1.5 10 4.5
v 1.5 10 0.5
v 1.5 10 -6.5
v 1.5 10 -7.5
v 1.5 12 4.5
v 1.5 12 1.5
v 1.5 14 4.5
v 1.5 14 1.5
v 1.5 15 4.5
v 1.5 15 3.5
v 1.5 16 4.5
v 1.5 16 3.5
v 1.5 18 4.5
v 1.5 18 0.5
v 2.5 0 -0.5
v 2.5 0 -2.5
v 2.5 1 -0.5
v 2.5 1 -1.5
v 2.5 1 -2.5
v 2.5 3 -0.5
v 2.5 3 -1.5
v 2.5 3 -4.5
v 2.5 3 -5.5
v 2.5 8 -4.5
v 2.5 8 -5.5
v 2.5 12 5.5
v 2.5 12 1.5
v 2.5 13 7.5
v 2.5 13 5.5
v 2.5 14 6.5
v 2.5 14 1.5
v 2.5 15 7.5
v 2.5 15 6.5
v 3.5 0 0.5
v 3.5 0 -0.5
v 3.5 1 0.5
v 3.5 1 -0.5
v 3.5 3 5.5
v 3.5 3 -4.5
v 3.5 4 2.5
v 3.5 4 -4.5
v 3.5 8 5.5
v 3.5 8 2.5
v 4.5 4 2.5
v 4.5 4 -4.5
v 4.5 8 2.5
v 4.5 8 0.5
v 4.5 9 0.5
v 4.5 9 -0.5
v 4.5 10 -0.5
v 4.5 10 -4.5
v -2.5 13 7.5
v -2.5 15 7.5
v 2.5 13 7.5
v 2.5 15 7.5
v -3.5 3 5.5
v -3.5 8 5.5
v -2.5 12 5.5
v -2.5 13 5.5
v 2.5 12 5.5
v 2.5 13 5.5
v 3.5 3 5.5
v 3.5 8 5.5
v -1.5 8 4.5
v -1.5 10 4.5
v -1.5 12 4.5
v -1.5 14 4.5
v -1.5 15 4.5
v -1.5 16 4.5
v -1.5 18 4.5
v -0.5 15 4.5
v -0.5 16 4.5
v 0.5 15 4.5
v 0.5 16 4.5
v 1.5 8 4.5
v 1.5 10 4.5
v 1.5 12 4.5
v 1.5 14 4.5
v 1.5 15 4.5
v 1.5 16 4.5
v 1.5 18 4.5
v -4.5 4 3.5
v -4.5 8 3.5
v -3.5 4 3.5
v -3.5 8 3.5
v 3.5 4 2.5
v 3.5 8 2.5
v 4.5 4 2.5
v 4.5 8 2.5
v -4.5 8 0.5
v -4.5 9 0.5
v -3.5 0 0.5
v -3.5 1 0.5
v -3.5 8 0.5
v -3.5 9 0.5
v -2.5 0 0.5
v -2.5 1 0.5
v -1.5 0 0.5
v -1.5 1 0.5
v -0.5 0 0.5
v -0.5 1 0.5
v 0.5 0 0.5
v 0.5 1 0.5
v 1.5 0 0.5
v 1.5 1 0.5
v 2.5 0 0.5
v 2.5 1 0.5
v 3.5 0 0.5
v 3.5 1 0.5
v 3.5 8 0.5
v 3.5 9 0.5
v 4.5 8 0.5
v 4.5 9 0.5
v -4.5 9 -0.5
v -4.5 10 -0.5
v -3.5 9 -0.5
v -3.5 10 -0.5
v -2.5 0 -0.5
v -2.5 1 -0.5
v -2.5 3 -0.5
v -1.5 0 -0.5
v -1.5 1 -0.5
v -1.5 3 -0.5
v 1.5 0 -0.5
v 1.5 1 -0.5
v 1.5 3 -0.5
v 2.5 0 -0.5
v 2.5 1 -0.5
v 2.5 3 -0.5
v 3.5 9 -0.5
v 3.5 10 -0.5
v 4.5 9 -0.5
v 4.5 10 -0.5
v -1.5 8 -5.5
v -1.5 9 -5.5
v 1.5 8 -5.5
v 1.5 9 -5.5
v -1.5 9 -6.5
v -1.5 10 -6.5
v 1.5 9 -6.5
v 1.5 10 -6.5
v -2.5 14 6.5
v -2.5 15 6.5
v 2.5 14 6.5
v 2.5 15 6.5
v -2.5 12 1.5
v -2.5 14 1.5
v -1.5 12 1.5
v -1.5 14 1.5
v 1.5 12 1.5
v 1.5 14 1.5
v 2.5 12 1.5
v 2.5 14 1.5
v -1.5 8 0.5
v -1.5 10 0.5
v -1.5 18 0.5
v 1.5 8 0.5
v 1.5 10 0.5
v 1.5 18 0.5
v -3.5 0 -0.5
v -3.5 1 -0.5
v -2.5 0 -0.5
v -2.5 1 -0.5
v -1.5 0 -0.5
v -1.5 1 -0.5
v -0.5 0 -0.5
v -0.5 1 -0.5
v 0.5 0 -0.5
v 0.5 1 -0.5
v 1.5 0 -0.5
v 1.5 1 -0.5
v 2.5 0 -0.5
v 2.5 1 -0.5
v 3.5 0 -0.5
v 3.5 1 -0.5
v -2.5 1 -1.5
v -2.5 3 -1.5
v -1.5 1 -1.5
v -1.5 3 -1.5
v 1.5 1 -1.5
v 1.5 3 -1.5
v 2.5 1 -1.5
v 2.5 3 -1.5
v -2.5 0 -2.5
v -2.5 1 -2.5
v -1.5 0 -2.5
v -1.5 1 -2.5
v 1.5 0 -2.5
v 1.5 1 -2.5
v 2.5 0 -2.5
v 2.5 1 -2.5
v -4.5 4 -4.5
v -4.5 10 -4.5
v -3.5 3 -4.5
v -3.5 4 -4.5
v -3.5 8 -4.5
v -3.5 10 -4.5
v -2.5 3 -4.5
v -2.5 8 -4.5
v 2.5 3 -4.5
v 2.5 8 -4.5
v 3.5 3 -4.5
v 3.5 4 -4.5
v 3.5 8 -4.5
v 3.5 10 -4.5
v 4.5 4 -4.5
v 4.5 10 -4.5
v -2.5 3 -5.5
v -2.5 8 -5.5
v -1.5 5 -5.5
v -1.5 8 -5.5
v 1.5 5 -5.5
v 1.5 8 -5.5
v 2.5 3 -5.5
v 2.5 8 -5.5
v -1.5 5 -6.5
v -1.5 6 -6.5
v 1.5 5 -6.5
v 1.5 6 -6.5
v -1.5 6 -7.5
v -1.5 10 -7.5
v 1.5 6 -7.5
v 1.5 10 -7.5
v -3.5 0 0.5
v -2.5 0 0.5
v -1.5 0 0.5
v -0.5 0 0.5
v 0.5 0 0.5
v 1.5 0 0.5
v 2.5 0 0.5
v 3.5 0 0.5
v -3.5 0 -0.5
v -2.5 0 -0.5
v -1.5 0 -0.5
v -0.5 0 -0.5
v 0.5 0 -0.5
v 1.5 0 -0.5
v 2.5 0 -0.5
v 3.5 0 -0.5
v -2.5 0 -2.5
v -1.5 0 -2.5
v 1.5 0 -2.5
v 2.5 0 -2.5
v -3.5 3 5.5
v 3.5 3 5.5
v -2.5 3 -0.5
v -1.5 3 -0.5
v 1.5 3 -0.5
v 2.5 3 -0.5
v -2.5 3 -1.5
v -1.5 3 -1.5
v 1.5 3 -1.5
v 2.5 3 -1.5
v -3.5 3 -4.5
v -2.5 3 -4.5
v 2.5 3 -4.5
v 3.5 3 -4.5
v -2.5 3 -5.5
v 2.5 3 -5.5
v -4.5 4 3.5
v -3.5 4 3.5
v 3.5 4 2.5
v 4.5 4 2.5
v -4.5 4 -4.5
v -3.5 4 -4.5
v 3.5 4 -4.5
v 4.5 4 -4.5
v -1.5 5 -5.5
v 1.5 5 -5.5
v -1.5 5 -6.5
v 1.5 5 -6.5
v -1.5 6 -6.5
v 1.5 6 -6.5
v -1.5 6 -7.5
v 1.5 6 -7.5
v -2.5 12 5.5
v 2.5 12 5.5
v -1.5 12 4.5
v 1.5 12 4.5
v -2.5 12 1.5
v -1.5 12 1.5
v 1.5 12 1.5
v 2.5 12 1.5
v -2.5 13 7.5
v 2.5 13 7.5
v -2.5 13 5.5
v 2.5 13 5.5
v -3.5 1 0.5
v -2.5 1 0.5
v -1.5 1 0.5
v -0.5 1 0.5
v 0.5 1 0.5
v 1.5 1 0.5
v 2.5 1 0.5
v 3.5 1 0.5
v -3.5 1 -0.5
v -2.5 1 -0.5
v -1.5 1 -0.5
v -0.5 1 -0.5
v 0.5 1 -0.5
v 1.5 1 -0.5
v 2.5 1 -0.5
v 3.5 1 -0.5
v -2.5 1 -1.5
v -1.5 1 -1.5
v 1.5 1 -1.5
v 2.5 1 -1.5
v -2.5 1 -2.5
v -1.5 1 -2.5
v 1.5 1 -2.5
v 2.5 1 -2.5
v -3.5 8 5.5
v 3.5 8 5.5
v -1.5 8 4.5
v 1.5 8 4.5
v -4.5 8 3.5
v -3.5 8 3.5
v 3.5 8 2.5
v 4.5 8 2.5
v -4.5 8 0.5
v -3.5 8 0.5
v -1.5 8 0.5
v 1.5 8 0.5
v 3.5 8 0.5
v 4.5 8 0.5
v -3.5 8 -4.5
v -2.5 8 -4.5
v 2.5 8 -4.5
v 3.5 8 -4.5
v -2.5 8 -5.5
v -1.5 8 -5.5
v 1.5 8 -5.5
v 2.5 8 -5.5
v -4.5 9 0.5
v -3.5 9 0.5
v 3.5 9 0.5
v 4.5 9 0.5
v -4.5 9 -0.5
v -3.5 9 -0.5
v 3.5 9 -0.5
v 4.5 9 -0.5
v -1.5 9 -5.5
v 1.5 9 -5.5
v -1.5 9 -6.5
v 1.5 9 -6.5
v -4.5 10 -0.5
v -3.5 10 -0.5
v 3.5 10 -0.5
v 4.5 10 -0.5
v -4.5 10 -4.5
v -3.5 10 -4.5
v 3.5 10 -4.5
v 4.5 10 -4.5
v -1.5 10 -6.5
v 1.5 10 -6.5
v -1.5 10 -7.5
v 1.5 10 -7.5
v -2.5 14 6.5
v 2.5 14 6.5
v -1.5 14 4.5
v 1.5 14 4.5
v -2.5 14 1.5
v -1.5 14 1.5
v 1.5 14 1.5
v 2.5 14 1.5
v -2.5 15 7.5
v 2.5 15 7.5
v -2.5 15 6.5
v 2.5 15 6.5
v -1.5 18 4.5
v 1.5 18 4.5
v -1.5 18 0.5
v 1.5 18 0.5

# faces
f 3/5/1 2/5/1 1/5/1
f 4/5/1 2/5/1 3/5/1
f 5/5/1 2/5/1 4/5/1
f 6/5/1 2/5/1 5/5/1
f 7/5/1 2/5/1 6/5/1
f 8/5/1 2/5/1 7/5/1
f 11/7/1 10/7/1 9/7/1
f 12/7/1 10/7/1 11/7/1
f 15/6/1 14/6/1 13/6/1
f 16/6/1 14/6/1 15/6/1
f 17/6/1 15/6/1 13/6/1
f 18/6/1 15/6/1 17/6/1
f 21/7/1 20/7/1 19/7/1
f 22/7/1 20/7/1 21/7/1
f 23/7/1 20/7/1 22/7/1
f 24/7/1 22/7/1 21/7/1
f 25/7/1 22/7/1 24/7/1
f 28/6/1 27/6/1 26/6/1
f 29/6/1 27/6/1 28/6/1
f 33/7/1 31/7/1 30/7/1
f 34/7/1 33/7/1 32/7/1
f 35/7/1 31/7/1 33/7/1
f 35/7/1 33/7/1 34/7/1
f 36/7/1 34/7/1 32/7/1
f 37/7/1 34/7/1 36/7/1
f 40/7/1 39/7/1 38/7/1
f 41/7/1 39/7/1 40/7/1
f 44/6/1 43/6/1 42/6/1
f 48/6/1 44/6/1 42/6/1
f 48/6/1 45/6/1 44/6/1
f 49/6/1 45/6/1 48/6/1
f 50/6/1 45/6/1 49/6/1
f 51/9/1 47/9/1 46/9/1
f 52/9/1 47/9/1 51/9/1
f 53/6/1 45/6/1 50/6/1
f 54/6/1 45/6/1 53/6/1
f 55/8/1 52/8/1 51/8/1
f 56/8/1 52/8/1 55/8/1
f 58/8/1 52/8/1 56/8/1
f 59/8/1 58/8/1 57/8/1
f 60/8/1 58/8/1 59/8/1
f 61/10/1 60/10/1 59/10/1
f 62/8/1 58/8/1 60/8/1
f 62/10/1 60/10/1 61/10/1
f 63/8/1 62/8/1 61/8/1
f 64/8/1 52/8/1 58/8/1
f 64/8/1 62/8/1 63/8/1
f 64/8/1 58/8/1 62/8/1
f 67/7/1 66/7/1 65/7/1
f 68/7/1 66/7/1 67/7/1
f 71/7/1 70/7/1 69/7/1
f 72/7/1 70/7/1 71/7/1
f 73/7/1 70/7/1 72/7/1
f 74/7/1 72/7/1 71/7/1
f 75/7/1 72/7/1 74/7/1
f 78/7/1 77/7/1 76/7/1
f 79/7/1 77/7/1 78/7/1
f 82/5/1 81/5/1 80/5/1
f 83/5/1 81/5/1 82/5/1
f 84/5/1 81/5/1 83/5/1
f 85/5/1 81/5/1 84/5/1
f 86/5/2 87/5/2 88/5/2
f 88/5/2 87/5/2 89/5/2
f 89/5/2 87/5/2 90/5/2
f 90/5/2 87/5/2 91/5/2
f 92/7/2 93/7/2 94/7/2
f 94/7/2 93/7/2 95/7/2
f 96/7/2 97/7/2 98/7/2
f 98/7/2 97/7/2 99/7/2
f 99/7/2 97/7/2 100/7/2
f 98/7/2 99/7/2 101/7/2
f 101/7/2 99/7/2 102/7/2
f 103/7/2 104/7/2 105/7/2
f 105/7/2 104/7/2 106/7/2
f 107/7/2 108/7/2 109/7/2
f 109/7/2 108/7/2 110/7/2
f 111/6/2 112/6/2 113/6/2
f 111/6/2 113/6/2 117/6/2
f 113/6/2 114/6/2 117/6/2
f 117/6/2 114/6/2 118/6/2
f 118/6/2 114/6/2 119/6/2
f 115/9/2 116/9/2 120/9/2
f 120/9/2 116/9/2 121/9/2
f 119/6/2 114/6/2 122/6/2
f 122/6/2 114/6/2 123/6/2
f 120/8/2 121/8/2 124/8/2
f 124/8/2 121/8/2 125/8/2
f 125/8/2 121/8/2 127/8/2
f 126/8/2 127/8/2 128/8/2
f 128/8/2 127/8/2 129/8/2
f 128/10/2 129/10/2 130/10/2
f 129/8/2 127/8/2 131/8/2
f 130/10/2 129/10/2 131/10/2
f 130/8/2 131/8/2 132/8/2
f 127/8/2 121/8/2 133/8/2
f 132/8/2 131/8/2 133/8/2
f 131/8/2 127/8/2 133/8/2
f 134/7/2 135/7/2 136/7/2
f 136/7/2 135/7/2 137/7/2
f 137/7/2 135/7/2 138/7/2
f 136/7/2 137/7/2 139/7/2
f 139/7/2 137/7/2 140/7/2
f 141/6/2 142/6/2 143/6/2
f 143/6/2 142/6/2 144/6/2
f 145/7/2 146/7/2 148/7/2
f 147/7/2 148/7/2 149/7/2
f 148/7/2 146/7/2 150/7/2
f 149/7/2 148/7/2 150/7/2
f 147/7/2 149/7/2 151/7/2
f 151/7/2 149/7/2 152/7/2
f 153/7/2 154/7/2 155/7/2
f 155/7/2 154/7/2 156/7/2
f 157/6/2 158/6/2 159/6/2
f 159/6/2 158/6/2 160/6/2
f 157/6/2 159/6/2 161/6/2
f 161/6/2 159/6/2 162/6/2
f 163/5/2 164/5/2 165/5/2
f 165/5/2 164/5/2 166/5/2
f 166/5/2 164/5/2 167/5/2
f 167/5/2 164/5/2 168/5/2
f 168/5/2 164/5/2 169/5/2
f 169/5/2 164/5/2 170/5/2
f 173/7/3 172/7/3 171/7/3
f 174/7/3 172/7/3 173/7/3
f 179/7/3 178/7/3 177/7/3
f 180/7/3 178/7/3 179/7/3
f 181/6/3 176/6/3 175/6/3
f 182/6/3 176/6/3 181/6/3
f 190/8/3 187/8/3 186/8/3
f 190/10/3 188/10/3 187/10/3
f 191/8/3 189/8/3 188/8/3
f 191/10/3 188/10/3 190/10/3
f 192/8/3 190/8/3 186/8/3
f 192/8/3 191/8/3 190/8/3
f 193/8/3 189/8/3 191/8/3
f 193/8/3 191/8/3 192/8/3
f 194/9/3 184/9/3 183/9/3
f 195/8/3 185/8/3 184/8/3
f 195/9/3 184/9/3 194/9/3
f 196/8/3 185/8/3 195/8/3
f 197/8/3 192/8/3 186/8/3
f 198/10/3 193/10/3 192/10/3
f 198/8/3 192/8/3 197/8/3
f 199/8/3 189/8/3 193/8/3
f 199/10/3 193/10/3 198/10/3
f 200/8/3 189/8/3 199/8/3
f 203/5/3 202/5/3 201/5/3
f 204/5/3 202/5/3 203/5/3
f 207/5/3 206/5/3 205/5/3
f 208/5/3 206/5/3 207/5/3
f 213/5/3 210/5/3 209/5/3
f 214/5/3 210/5/3 213/5/3
f 215/7/3 212/7/3 211/7/3
f 216/7/3 212/7/3 215/7/3
f 219/7/3 218/7/3 217/7/3
f 220/7/3 218/7/3 219/7/3
f 223/7/3 222/7/3 221/7/3
f 224/7/3 222/7/3 223/7/3
f 227/7/3 226/7/3 225/7/3
f 228/7/3 226/7/3 227/7/3
f 231/5/3 230/5/3 229/5/3
f 232/5/3 230/5/3 231/5/3
f 235/5/3 234/5/3 233/5/3
f 236/5/3 234/5/3 235/5/3
f 240/7/3 238/7/3 237/7/3
f 240/7/3 239/7/3 238/7/3
f 241/7/3 239/7/3 240/7/3
f 242/7/3 239/7/3 241/7/3
f 246/7/3 244/7/3 243/7/3
f 246/7/3 245/7/3 244/7/3
f 247/7/3 245/7/3 246/7/3
f 248/7/3 245/7/3 247/7/3
f 251/5/3 250/5/3 249/5/3
f 252/5/3 250/5/3 251/5/3
f 255/6/3 254/6/3 253/6/3
f 256/6/3 254/6/3 255/6/3
f 259/6/3 258/6/3 257/6/3
f 260/6/3 258/6/3 259/6/3
f 261/7/4 262/7/4 263/7/4
f 263/7/4 262/7/4 264/7/4
f 265/7/4 266/7/4 267/7/4
f 267/7/4 266/7/4 268/7/4
f 269/7/4 270/7/4 271/7/4
f 271/7/4 270/7/4 272/7/4
f 273/9/4 274/9/4 276/9/4
f 274/8/4 275/8/4 277/8/4
f 276/9/4 274/9/4 277/9/4
f 277/8/4 275/8/4 278/8/4
f 279/7/4 280/7/4 281/7/4
f 281/7/4 280/7/4 282/7/4
f 283/7/4 284/7/4 285/7/4
f 285/7/4 284/7/4 286/7/4
f 287/7/4 288/7/4 289/7/4
f 289/7/4 288/7/4 290/7/4
f 291/7/4 292/7/4 293/7/4
f 293/7/4 292/7/4 294/7/4
f 295/7/4 296/7/4 297/7/4
f 297/7/4 296/7/4 298/7/4
f 299/7/4 300/7/4 301/7/4
f 301/7/4 300/7/4 302/7/4
f 303/7/4 304/7/4 305/7/4
f 305/7/4 304/7/4 306/7/4
f 307/7/4 308/7/4 309/7/4
f 309/7/4 308/7/4 310/7/4
f 311/5/4 312/5/4 314/5/4
f 314/5/4 312/5/4 315/5/4
f 315/5/4 312/5/4 316/5/4
f 313/6/4 314/6/4 317/6/4
f 314/6/4 315/6/4 317/6/4
f 317/6/4 315/6/4 318/6/4
f 319/6/4 320/6/4 321/6/4
f 321/6/4 320/6/4 322/6/4
f 322/6/4 320/6/4 323/6/4
f 322/5/4 323/5/4 325/5/4
f 323/5/4 324/5/4 325/5/4
f 325/5/4 324/5/4 326/5/4
f 327/6/4 328/6/4 329/6/4
f 329/6/4 328/6/4 330/6/4
f 327/6/4 329/6/4 331/6/4
f 327/6/4 331/6/4 333/6/4
f 331/6/4 332/6/4 333/6/4
f 333/6/4 332/6/4 334/6/4
f 335/6/4 336/6/4 337/6/4
f 337/6/4 336/6/4 338/6/4
f 339/6/4 340/6/4 341/6/4
f 341/6/4 340/6/4 342/6/4
f 351/7/5 344/7/5 343/7/5
f 352/7/5 344/7/5 351/7/5
f 353/7/5 346/7/5 345/7/5
f 354/7/5 346/7/5 353/7/5
f 355/7/5 348/7/5 347/7/5
f 356/7/5 348/7/5 355/7/5
f 357/7/5 350/7/5 349/7/5
f 358/7/5 350/7/5 357/7/5
f 359/7/5 353/7/5 352/7/5
f 360/7/5 353/7/5 359/7/5
f 361/7/5 357/7/5 356/7/5
f 362/7/5 357/7/5 361/7/5
f 365/6/5 364/6/5 363/6/5
f 366/6/5 364/6/5 365/6/5
f 367/6/5 364/6/5 366/6/5
f 368/6/5 364/6/5 367/6/5
f 369/6/5 365/6/5 363/6/5
f 370/6/5 367/6/5 366/6/5
f 371/6/5 367/6/5 370/6/5
f 372/6/5 364/6/5 368/6/5
f 373/6/5 371/6/5 370/6/5
f 373/6/5 372/6/5 371/6/5
f 373/6/5 369/6/5 363/6/5
f 373/6/5 370/6/5 369/6/5
f 374/6/5 372/6/5 373/6/5
f 375/6/5 364/6/5 372/6/5
f 375/6/5 372/6/5 374/6/5
f 376/6/5 364/6/5 375/6/5
f 377/6/5 375/6/5 374/6/5
f 378/6/5 375/6/5 377/6/5
f 383/5/5 380/5/5 379/5/5
f 384/5/5 380/5/5 383/5/5
f 385/5/5 382/5/5 381/5/5
f 386/5/5 382/5/5 385/5/5
f 389/6/5 388/6/5 387/6/5
f 390/6/5 388/6/5 389/6/5
f 393/6/5 392/6/5 391/6/5
f 394/6/5 392/6/5 393/6/5
f 397/7/5 396/7/5 395/7/5
f 398/7/5 396/7/5 397/7/5
f 399/7/5 397/7/5 395/7/5
f 400/7/5 397/7/5 399/7/5
f 401/7/5 396/7/5 398/7/5
f 402/7/5 396/7/5 401/7/5
f 405/7/5 404/7/5 403/7/5
f 406/7/5 404/7/5 405/7/5
f 407/7/6 408/7/6 415/7/6
f 415/7/6 408/7/6 416/7/6
f 409/7/6 410/7/6 417/7/6
f 417/7/6 410/7/6 418/7/6
f 411/7/6 412/7/6 419/7/6
f 419/7/6 412/7/6 420/7/6
f 413/7/6 414/7/6 421/7/6
f 421/7/6 414/7/6 422/7/6
f 423/7/6 424/7/6 427/7/6
f 427/7/6 424/7/6 428/7/6
f 425/7/6 426/7/6 429/7/6
f 429/7/6 426/7/6 430/7/6
f 431/6/6 432/6/6 433/6/6
f 433/6/6 432/6/6 434/6/6
f 431/6/6 433/6/6 436/6/6
f 434/6/6 432/6/6 437/6/6
f 435/5/6 436/5/6 439/5/6
f 436/6/6 433/6/6 440/6/6
f 439/5/6 436/5/6 440/5/6
f 440/6/6 433/6/6 441/6/6
f 434/6/6 437/6/6 442/6/6
f 437/5/6 438/5/6 443/5/6
f 442/6/6 437/6/6 443/6/6
f 443/5/6 438/5/6 444/5/6
f 441/6/6 442/6/6 445/6/6
f 440/6/6 441/6/6 445/6/6
f 442/6/6 443/6/6 445/6/6
f 445/6/6 443/6/6 446/6/6
f 446/6/6 443/6/6 447/6/6
f 447/6/6 443/6/6 448/6/6
f 446/6/6 447/6/6 449/6/6
f 449/6/6 447/6/6 450/6/6
f 450/6/6 447/6/6 451/6/6
f 451/6/6 447/6/6 452/6/6
f 453/5/6 454/5/6 457/5/6
f 457/5/6 454/5/6 458/5/6
f 455/5/6 456/5/6 459/5/6
f 459/5/6 456/5/6 460/5/6
f 461/6/6 462/6/6 463/6/6
f 463/6/6 462/6/6 464/6/6
f 465/5/6 466/5/6 469/5/6
f 469/5/6 466/5/6 470/5/6
f 467/5/6 468/5/6 471/5/6
f 471/5/6 468/5/6 472/5/6
f 473/6/6 474/6/6 475/6/6
f 475/6/6 474/6/6 476/6/6
f 477/7/6 478/7/6 479/7/6
f 479/7/6 478/7/6 480/7/6
f 477/7/6 479/7/6 481/7/6
f 481/7/6 479/7/6 482/7/6
f 480/7/6 478/7/6 483/7/6
f 483/7/6 478/7/6 484/7/6
f 485/7/6 486/7/6 487/7/6
f 487/7/6 486/7/6 488/7/6
f 489/8/6 490/8/6 491/8/6
f 491/8/6 490/8/6 492/8/6
