# MagicaVoxel @ Ephtracy

# material
mtllib alive_tree_3.mtl
usemtl palette

# normals
vn -1 0 0
vn 1 0 0
vn 0 0 1
vn 0 0 -1
vn 0 -1 0
vn 0 1 0

# texcoords
vt 0.908203 0.5
vt 0.939453 0.5

# verts
v -7.5 15 1.5
v -7.5 15 -0.5
v -7.5 16 1.5
v -7.5 16 -0.5
v -6.5 14 2.5
v -6.5 14 -1.5
v -6.5 15 1.5
v -6.5 15 -0.5
v -6.5 16 1.5
v -6.5 16 -0.5
v -6.5 17 2.5
v -6.5 17 -1.5
v -5.5 11 -2.5
v -5.5 11 -4.5
v -5.5 12 2.5
v -5.5 12 1.5
v -5.5 13 1.5
v -5.5 13 -1.5
v -5.5 13 -2.5
v -5.5 13 -3.5
v -5.5 14 2.5
v -5.5 14 -1.5
v -5.5 14 -3.5
v -5.5 14 -4.5
v -5.5 17 2.5
v -5.5 17 -1.5
v -5.5 18 2.5
v -5.5 18 -1.5
v -4.5 11 -4.5
v -4.5 11 -5.5
v -4.5 12 3.5
v -4.5 12 2.5
v -4.5 13 -2.5
v -4.5 13 -3.5
v -4.5 14 -1.5
v -4.5 14 -2.5
v -4.5 14 -3.5
v -4.5 14 -4.5
v -4.5 14 -5.5
v -4.5 17 3.5
v -4.5 17 2.5
v -4.5 18 1.5
v -4.5 18 -1.5
v -4.5 18 -4.5
v -4.5 18 -5.5
v -4.5 20 1.5
v -4.5 20 -1.5
v -4.5 21 -4.5
v -4.5 21 -5.5
v -4.5 23 -1.5
v -4.5 23 -4.5
v -3.5 11 1.5
v -3.5 11 -2.5
v -3.5 12 1.5
v -3.5 13 4.5
v -3.5 13 3.5
v -3.5 13 1.5
v -3.5 13 -1.5
v -3.5 13 -2.5
v -3.5 16 4.5
v -3.5 16 3.5
v -3.5 19 -5.5
v -3.5 19 -6.5
v -3.5 20 -5.5
v -3.5 20 -6.5
v -2.5 0 1.5
v -2.5 0 -2.5
v -2.5 8 1.5
v -2.5 8 -2.5
v -1.5 8 0.5
v -1.5 8 -1.5
v -1.5 11 0.5
v -1.5 11 -1.5
v -1.5 11 -3.5
v -1.5 11 -4.5
v -1.5 13 -1.5
v -1.5 13 -2.5
v -1.5 14 2.5
v -1.5 14 1.5
v -1.5 14 -1.5
v -1.5 14 -2.5
v -1.5 14 -3.5
v -1.5 14 -4.5
v -1.5 17 3.5
v -1.5 17 2.5
v -1.5 18 3.5
v -1.5 18 1.5
v -0.5 11 2.5
v -0.5 11 1.5
v -0.5 12 2.5
v -0.5 13 2.5
v -0.5 13 1.5
v -0.5 13 -4.5
v -0.5 13 -5.5
v -0.5 17 -4.5
v -0.5 17 -5.5
v -0.5 18 -1.5
v -0.5 18 -4.5
v -0.5 21 -1.5
v -0.5 21 -4.5
v 0.5 11 3.5
v 0.5 11 2.5
v 0.5 12 3.5
v 0.5 12 2.5
v 0.5 15 -5.5
v 0.5 15 -6.5
v 0.5 16 -5.5
v 0.5 16 -6.5
v 1.5 13 3.5
v 1.5 13 1.5
v 1.5 15 3.5
v 1.5 15 1.5
v -4.5 13 -3.5
v -4.5 13 -4.5
v -4.5 14 -3.5
v -4.5 14 -4.5
v -3.5 13 -4.5
v -3.5 13 -5.5
v -3.5 14 -4.5
v -3.5 14 -5.5
v -2.5 11 -3.5
v -2.5 11 -5.5
v -2.5 12 2.5
v -2.5 12 1.5
v -2.5 13 -3.5
v -2.5 13 -5.5
v -2.5 17 2.5
v -2.5 18 2.5
v -2.5 18 1.5
v -2.5 19 -5.5
v -2.5 19 -6.5
v -2.5 20 -5.5
v -2.5 20 -6.5
v -1.5 18 1.5
v -1.5 18 -4.5
v -1.5 18 -5.5
v -1.5 20 1.5
v -1.5 20 -1.5
v -1.5 21 -4.5
v -1.5 21 -5.5
v -1.5 23 -1.5
v -1.5 23 -4.5
v -0.5 13 4.5
v -0.5 13 3.5
v -0.5 16 4.5
v -0.5 16 3.5
v 0.5 8 0.5
v 0.5 8 -1.5
v 0.5 11 0.5
v 0.5 11 -1.5
v 0.5 13 3.5
v 0.5 13 2.5
v 0.5 14 2.5
v 0.5 14 1.5
v 0.5 17 1.5
v 0.5 17 -0.5
v 0.5 18 3.5
v 0.5 18 -0.5
v 1.5 0 1.5
v 1.5 0 -2.5
v 1.5 8 1.5
v 1.5 8 -2.5
v 1.5 11 0.5
v 1.5 11 -0.5
v 1.5 13 0.5
v 1.5 13 -0.5
v 1.5 15 -5.5
v 1.5 15 -6.5
v 1.5 16 -5.5
v 1.5 16 -6.5
v 2.5 11 -0.5
v 2.5 11 -4.5
v 2.5 13 1.5
v 2.5 13 0.5
v 2.5 13 -0.5
v 2.5 13 -4.5
v 2.5 13 -5.5
v 2.5 15 1.5
v 2.5 15 -0.5
v 2.5 15 -4.5
v 2.5 17 1.5
v 2.5 17 -0.5
v 2.5 17 -4.5
v 2.5 17 -5.5
v 2.5 18 -1.5
v 2.5 18 -4.5
v 2.5 21 -1.5
v 2.5 21 -4.5
v 3.5 11 3.5
v 3.5 11 0.5
v 3.5 13 1.5
v 3.5 13 0.5
v 3.5 15 3.5
v 3.5 15 1.5
v 3.5 15 -0.5
v 3.5 15 -4.5
v 3.5 16 -1.5
v 3.5 16 -3.5
v 3.5 18 -0.5
v 3.5 18 -1.5
v 3.5 18 -3.5
v 3.5 18 -4.5
v 4.5 16 -1.5
v 4.5 16 -3.5
v 4.5 18 -1.5
v 4.5 18 -3.5
v -3.5 13 4.5
v -3.5 16 4.5
v -0.5 13 4.5
v -0.5 16 4.5
v -4.5 12 3.5
v -4.5 17 3.5
v -3.5 13 3.5
v -3.5 16 3.5
v -1.5 17 3.5
v -1.5 18 3.5
v -0.5 13 3.5
v -0.5 16 3.5
v 0.5 11 3.5
v 0.5 12 3.5
v 0.5 13 3.5
v 0.5 18 3.5
v 1.5 13 3.5
v 1.5 15 3.5
v 3.5 11 3.5
v 3.5 15 3.5
v -6.5 14 2.5
v -6.5 17 2.5
v -5.5 12 2.5
v -5.5 14 2.5
v -5.5 17 2.5
v -5.5 18 2.5
v -4.5 12 2.5
v -4.5 17 2.5
v -2.5 17 2.5
v -2.5 18 2.5
v -0.5 11 2.5
v -0.5 12 2.5
v 0.5 11 2.5
v 0.5 12 2.5
v -7.5 15 1.5
v -7.5 16 1.5
v -6.5 15 1.5
v -6.5 16 1.5
v -4.5 18 1.5
v -4.5 20 1.5
v -3.5 11 1.5
v -3.5 12 1.5
v -2.5 0 1.5
v -2.5 8 1.5
v -2.5 12 1.5
v -2.5 18 1.5
v -1.5 14 1.5
v -1.5 18 1.5
v -1.5 20 1.5
v -0.5 11 1.5
v -0.5 13 1.5
v 0.5 14 1.5
v 0.5 17 1.5
v 1.5 0 1.5
v 1.5 8 1.5
v 1.5 13 1.5
v 1.5 15 1.5
v 2.5 15 1.5
v 2.5 17 1.5
v -1.5 8 0.5
v -1.5 11 0.5
v 0.5 8 0.5
v 0.5 11 0.5
v 0.5 17 -0.5
v 0.5 18 -0.5
v 1.5 11 -0.5
v 1.5 13 -0.5
v 2.5 11 -0.5
v 2.5 13 -0.5
v 2.5 15 -0.5
v 2.5 17 -0.5
v 3.5 15 -0.5
v 3.5 18 -0.5
v -4.5 20 -1.5
v -4.5 23 -1.5
v -1.5 20 -1.5
v -1.5 23 -1.5
v -0.5 18 -1.5
v -0.5 21 -1.5
v 2.5 18 -1.5
v 2.5 21 -1.5
v 3.5 16 -1.5
v 3.5 18 -1.5
v 4.5 16 -1.5
v 4.5 18 -1.5
v -5.5 11 -2.5
v -5.5 13 -2.5
v -4.5 13 -2.5
v -4.5 14 -2.5
v -3.5 11 -2.5
v -3.5 13 -2.5
v -1.5 13 -2.5
v -1.5 14 -2.5
v -5.5 13 -3.5
v -5.5 14 -3.5
v -4.5 13 -3.5
v -4.5 14 -3.5
v -4.5 13 -4.5
v -4.5 14 -4.5
v -3.5 13 -4.5
v -3.5 14 -4.5
v -2.5 12 2.5
v -2.5 17 2.5
v -1.5 14 2.5
v -1.5 17 2.5
v -0.5 12 2.5
v -0.5 13 2.5
v 0.5 13 2.5
v 0.5 14 2.5
v -5.5 12 1.5
v -5.5 13 1.5
v -3.5 12 1.5
v -3.5 13 1.5
v 2.5 13 1.5
v 2.5 15 1.5
v 3.5 13 1.5
v 3.5 15 1.5
v 1.5 11 0.5
v 1.5 13 0.5
v 2.5 13 0.5
v 3.5 11 0.5
v 3.5 13 0.5
v -7.5 15 -0.5
v -7.5 16 -0.5
v -6.5 15 -0.5
v -6.5 16 -0.5
v -6.5 14 -1.5
v -6.5 17 -1.5
v -5.5 13 -1.5
v -5.5 14 -1.5
v -5.5 17 -1.5
v -5.5 18 -1.5
v -4.5 14 -1.5
v -4.5 18 -1.5
v -3.5 13 -1.5
v -1.5 8 -1.5
v -1.5 11 -1.5
v -1.5 13 -1.5
v -1.5 14 -1.5
v 0.5 8 -1.5
v 0.5 11 -1.5
v -2.5 0 -2.5
v -2.5 8 -2.5
v 1.5 0 -2.5
v 1.5 8 -2.5
v -4.5 13 -3.5
v -4.5 14 -3.5
v -2.5 11 -3.5
v -2.5 13 -3.5
v -1.5 11 -3.5
v -1.5 14 -3.5
v 3.5 16 -3.5
v 3.5 18 -3.5
v 4.5 16 -3.5
v 4.5 18 -3.5
v -5.5 11 -4.5
v -5.5 14 -4.5
v -4.5 11 -4.5
v -4.5 14 -4.5
v -4.5 18 -4.5
v -4.5 21 -4.5
v -4.5 23 -4.5
v -3.5 14 -4.5
v -1.5 11 -4.5
v -1.5 14 -4.5
v -1.5 18 -4.5
v -1.5 21 -4.5
v -1.5 23 -4.5
v -0.5 13 -4.5
v -0.5 17 -4.5
v -0.5 18 -4.5
v -0.5 21 -4.5
v 2.5 11 -4.5
v 2.5 13 -4.5
v 2.5 15 -4.5
v 2.5 17 -4.5
v 2.5 18 -4.5
v 2.5 21 -4.5
v 3.5 15 -4.5
v 3.5 18 -4.5
v -4.5 11 -5.5
v -4.5 14 -5.5
v -4.5 18 -5.5
v -4.5 21 -5.5
v -3.5 13 -5.5
v -3.5 14 -5.5
v -3.5 19 -5.5
v -3.5 20 -5.5
v -2.5 11 -5.5
v -2.5 13 -5.5
v -2.5 19 -5.5
v -2.5 20 -5.5
v -1.5 18 -5.5
v -1.5 21 -5.5
v -0.5 13 -5.5
v -0.5 17 -5.5
v 0.5 15 -5.5
v 0.5 16 -5.5
v 1.5 15 -5.5
v 1.5 16 -5.5
v 2.5 13 -5.5
v 2.5 17 -5.5
v -3.5 19 -6.5
v -3.5 20 -6.5
v -2.5 19 -6.5
v -2.5 20 -6.5
v 0.5 15 -6.5
v 0.5 16 -6.5
v 1.5 15 -6.5
v 1.5 16 -6.5
v -2.5 0 1.5
v 1.5 0 1.5
v -2.5 0 -2.5
v 1.5 0 -2.5
v 0.5 11 3.5
v 3.5 11 3.5
v -0.5 11 2.5
v 0.5 11 2.5
v -3.5 11 1.5
v -0.5 11 1.5
v -1.5 11 0.5
v 0.5 11 0.5
v 1.5 11 0.5
v 3.5 11 0.5
v 1.5 11 -0.5
v 2.5 11 -0.5
v -1.5 11 -1.5
v 0.5 11 -1.5
v -5.5 11 -2.5
v -3.5 11 -2.5
v -2.5 11 -3.5
v -1.5 11 -3.5
v -5.5 11 -4.5
v -4.5 11 -4.5
v -1.5 11 -4.5
v 2.5 11 -4.5
v -4.5 11 -5.5
v -2.5 11 -5.5
v -4.5 12 3.5
v 0.5 12 3.5
v -5.5 12 2.5
v -4.5 12 2.5
v -2.5 12 2.5
v -0.5 12 2.5
v 0.5 12 2.5
v -5.5 12 1.5
v -3.5 12 1.5
v -2.5 12 1.5
v -3.5 13 4.5
v -0.5 13 4.5
v -3.5 13 3.5
v -0.5 13 3.5
v -5.5 13 1.5
v -3.5 13 1.5
v 1.5 13 0.5
v 2.5 13 0.5
v 1.5 13 -0.5
v 2.5 13 -0.5
v -5.5 13 -1.5
v -3.5 13 -1.5
v -0.5 13 -4.5
v 2.5 13 -4.5
v -0.5 13 -5.5
v 2.5 13 -5.5
v -6.5 14 2.5
v -5.5 14 2.5
v -1.5 14 2.5
v 0.5 14 2.5
v -1.5 14 1.5
v 0.5 14 1.5
v -6.5 14 -1.5
v -5.5 14 -1.5
v -4.5 14 -1.5
v -1.5 14 -1.5
v -4.5 14 -2.5
v -1.5 14 -2.5
v -4.5 14 -3.5
v -1.5 14 -3.5
v -4.5 14 -4.5
v -3.5 14 -4.5
v -1.5 14 -4.5
v -7.5 15 1.5
v -6.5 15 1.5
v -7.5 15 -0.5
v -6.5 15 -0.5
v 2.5 15 -0.5
v 3.5 15 -0.5
v 2.5 15 -4.5
v 3.5 15 -4.5
v 0.5 15 -5.5
v 1.5 15 -5.5
v 0.5 15 -6.5
v 1.5 15 -6.5
v 3.5 16 -1.5
v 4.5 16 -1.5
v 3.5 16 -3.5
v 4.5 16 -3.5
v -4.5 18 -4.5
v -1.5 18 -4.5
v -4.5 18 -5.5
v -1.5 18 -5.5
v -3.5 19 -5.5
v -2.5 19 -5.5
v -3.5 19 -6.5
v -2.5 19 -6.5
v -2.5 8 1.5
v 1.5 8 1.5
v -1.5 8 0.5
v 0.5 8 0.5
v -1.5 8 -1.5
v 0.5 8 -1.5
v -2.5 8 -2.5
v 1.5 8 -2.5
v 0.5 13 3.5
v 1.5 13 3.5
v -0.5 13 2.5
v 0.5 13 2.5
v -0.5 13 1.5
v 1.5 13 1.5
v 2.5 13 1.5
v 3.5 13 1.5
v 2.5 13 0.5
v 3.5 13 0.5
v -3.5 13 -1.5
v -1.5 13 -1.5
v -5.5 13 -2.5
v -4.5 13 -2.5
v -3.5 13 -2.5
v -1.5 13 -2.5
v -5.5 13 -3.5
v -4.5 13 -3.5
v -2.5 13 -3.5
v -4.5 13 -4.5
v -3.5 13 -4.5
v -3.5 13 -5.5
v -2.5 13 -5.5
v -5.5 14 -3.5
v -4.5 14 -3.5
v -5.5 14 -4.5
v -4.5 14 -4.5
v -3.5 14 -4.5
v -4.5 14 -5.5
v -3.5 14 -5.5
v 1.5 15 3.5
v 3.5 15 3.5
v 1.5 15 1.5
v 2.5 15 1.5
v 3.5 15 1.5
v -3.5 16 4.5
v -0.5 16 4.5
v -3.5 16 3.5
v -0.5 16 3.5
v -7.5 16 1.5
v -6.5 16 1.5
v -7.5 16 -0.5
v -6.5 16 -0.5
v 0.5 16 -5.5
v 1.5 16 -5.5
v 0.5 16 -6.5
v 1.5 16 -6.5
v -4.5 17 3.5
v -1.5 17 3.5
v -6.5 17 2.5
v -5.5 17 2.5
v -4.5 17 2.5
v -2.5 17 2.5
v -1.5 17 2.5
v 0.5 17 1.5
v 2.5 17 1.5
v 0.5 17 -0.5
v 2.5 17 -0.5
v -6.5 17 -1.5
v -5.5 17 -1.5
v -0.5 17 -4.5
v 2.5 17 -4.5
v -0.5 17 -5.5
v 2.5 17 -5.5
v -1.5 18 3.5
v 0.5 18 3.5
v -5.5 18 2.5
v -2.5 18 2.5
v -4.5 18 1.5
v -2.5 18 1.5
v -1.5 18 1.5
v 0.5 18 -0.5
v 3.5 18 -0.5
v -5.5 18 -1.5
v -4.5 18 -1.5
v -0.5 18 -1.5
v 2.5 18 -1.5
v 3.5 18 -1.5
v 4.5 18 -1.5
v 3.5 18 -3.5
v 4.5 18 -3.5
v -1.5 18 -4.5
v -0.5 18 -4.5
v 2.5 18 -4.5
v 3.5 18 -4.5
v -4.5 20 1.5
v -1.5 20 1.5
v -4.5 20 -1.5
v -1.5 20 -1.5
v -3.5 20 -5.5
v -2.5 20 -5.5
v -3.5 20 -6.5
v -2.5 20 -6.5
v -0.5 21 -1.5
v 2.5 21 -1.5
v -4.5 21 -4.5
v -1.5 21 -4.5
v -0.5 21 -4.5
v 2.5 21 -4.5
v -4.5 21 -5.5
v -1.5 21 -5.5
v -4.5 23 -1.5
v -1.5 23 -1.5
v -4.5 23 -4.5
v -1.5 23 -4.5

# faces
f 3/2/1 2/2/1 1/2/1
f 4/2/1 2/2/1 3/2/1
f 7/2/1 6/2/1 5/2/1
f 8/2/1 6/2/1 7/2/1
f 9/2/1 7/2/1 5/2/1
f 10/2/1 6/2/1 8/2/1
f 11/2/1 9/2/1 5/2/1
f 11/2/1 10/2/1 9/2/1
f 12/2/1 6/2/1 10/2/1
f 12/2/1 10/2/1 11/2/1
f 17/2/1 16/2/1 15/2/1
f 19/2/1 14/2/1 13/2/1
f 20/2/1 14/2/1 19/2/1
f 21/2/1 18/2/1 17/2/1
f 21/2/1 17/2/1 15/2/1
f 22/2/1 18/2/1 21/2/1
f 23/2/1 14/2/1 20/2/1
f 24/2/1 14/2/1 23/2/1
f 27/2/1 26/2/1 25/2/1
f 28/2/1 26/2/1 27/2/1
f 36/2/1 34/2/1 33/2/1
f 37/2/1 34/2/1 36/2/1
f 38/2/1 30/2/1 29/2/1
f 39/2/1 30/2/1 38/2/1
f 40/2/1 32/2/1 31/2/1
f 41/2/1 32/2/1 40/2/1
f 43/2/1 37/2/1 36/2/1
f 43/2/1 36/2/1 35/2/1
f 43/2/1 38/2/1 37/2/1
f 44/2/1 38/2/1 43/2/1
f 46/2/1 43/2/1 42/2/1
f 46/2/1 45/2/1 44/2/1
f 46/2/1 44/2/1 43/2/1
f 47/2/1 45/2/1 46/2/1
f 48/2/1 45/2/1 47/2/1
f 49/2/1 45/2/1 48/2/1
f 50/2/1 48/2/1 47/2/1
f 51/2/1 48/2/1 50/2/1
f 54/2/1 53/2/1 52/2/1
f 57/2/1 53/2/1 54/2/1
f 58/2/1 53/2/1 57/2/1
f 59/2/1 53/2/1 58/2/1
f 60/2/1 56/2/1 55/2/1
f 61/2/1 56/2/1 60/2/1
f 64/2/1 63/2/1 62/2/1
f 65/2/1 63/2/1 64/2/1
f 68/1/1 67/1/1 66/1/1
f 69/1/1 67/1/1 68/1/1
f 72/1/1 71/1/1 70/1/1
f 73/1/1 71/1/1 72/1/1
f 80/2/1 77/2/1 76/2/1
f 81/2/1 77/2/1 80/2/1
f 82/2/1 75/2/1 74/2/1
f 83/2/1 75/2/1 82/2/1
f 85/2/1 79/2/1 78/2/1
f 86/2/1 85/2/1 84/2/1
f 87/2/1 79/2/1 85/2/1
f 87/2/1 85/2/1 86/2/1
f 90/2/1 89/2/1 88/2/1
f 91/2/1 89/2/1 90/2/1
f 92/2/1 89/2/1 91/2/1
f 95/2/1 94/2/1 93/2/1
f 96/2/1 94/2/1 95/2/1
f 99/2/1 98/2/1 97/2/1
f 100/2/1 98/2/1 99/2/1
f 103/2/1 102/2/1 101/2/1
f 104/2/1 102/2/1 103/2/1
f 107/2/1 106/2/1 105/2/1
f 108/2/1 106/2/1 107/2/1
f 111/2/1 110/2/1 109/2/1
f 112/2/1 110/2/1 111/2/1
f 113/2/2 114/2/2 115/2/2
f 115/2/2 114/2/2 116/2/2
f 117/2/2 118/2/2 119/2/2
f 119/2/2 118/2/2 120/2/2
f 121/2/2 122/2/2 125/2/2
f 125/2/2 122/2/2 126/2/2
f 123/2/2 124/2/2 127/2/2
f 127/2/2 124/2/2 128/2/2
f 128/2/2 124/2/2 129/2/2
f 130/2/2 131/2/2 132/2/2
f 132/2/2 131/2/2 133/2/2
f 134/2/2 135/2/2 137/2/2
f 135/2/2 136/2/2 137/2/2
f 137/2/2 136/2/2 138/2/2
f 138/2/2 136/2/2 139/2/2
f 139/2/2 136/2/2 140/2/2
f 138/2/2 139/2/2 141/2/2
f 141/2/2 139/2/2 142/2/2
f 143/2/2 144/2/2 145/2/2
f 145/2/2 144/2/2 146/2/2
f 147/1/2 148/1/2 149/1/2
f 149/1/2 148/1/2 150/1/2
f 151/2/2 152/2/2 153/2/2
f 153/2/2 154/2/2 155/2/2
f 151/2/2 153/2/2 157/2/2
f 155/2/2 156/2/2 157/2/2
f 153/2/2 155/2/2 157/2/2
f 157/2/2 156/2/2 158/2/2
f 159/1/2 160/1/2 161/1/2
f 161/1/2 160/1/2 162/1/2
f 163/2/2 164/2/2 165/2/2
f 165/2/2 164/2/2 166/2/2
f 167/2/2 168/2/2 169/2/2
f 169/2/2 168/2/2 170/2/2
f 171/2/2 172/2/2 175/2/2
f 175/2/2 172/2/2 176/2/2
f 173/2/2 174/2/2 178/2/2
f 176/2/2 177/2/2 178/2/2
f 175/2/2 176/2/2 178/2/2
f 174/2/2 175/2/2 178/2/2
f 178/2/2 177/2/2 179/2/2
f 179/2/2 177/2/2 180/2/2
f 178/2/2 179/2/2 181/2/2
f 181/2/2 179/2/2 182/2/2
f 180/2/2 177/2/2 183/2/2
f 183/2/2 177/2/2 184/2/2
f 185/2/2 186/2/2 187/2/2
f 187/2/2 186/2/2 188/2/2
f 189/2/2 190/2/2 191/2/2
f 191/2/2 190/2/2 192/2/2
f 189/2/2 191/2/2 193/2/2
f 193/2/2 191/2/2 194/2/2
f 195/2/2 196/2/2 197/2/2
f 197/2/2 196/2/2 198/2/2
f 195/2/2 197/2/2 199/2/2
f 199/2/2 197/2/2 200/2/2
f 198/2/2 196/2/2 201/2/2
f 201/2/2 196/2/2 202/2/2
f 203/2/2 204/2/2 205/2/2
f 205/2/2 204/2/2 206/2/2
f 209/2/3 208/2/3 207/2/3
f 210/2/3 208/2/3 209/2/3
f 213/2/3 212/2/3 211/2/3
f 214/2/3 212/2/3 213/2/3
f 215/2/3 212/2/3 214/2/3
f 217/2/3 213/2/3 211/2/3
f 218/2/3 216/2/3 215/2/3
f 218/2/3 215/2/3 214/2/3
f 220/2/3 217/2/3 211/2/3
f 220/2/3 218/2/3 217/2/3
f 221/2/3 218/2/3 220/2/3
f 222/2/3 216/2/3 218/2/3
f 222/2/3 218/2/3 221/2/3
f 223/2/3 221/2/3 220/2/3
f 223/2/3 220/2/3 219/2/3
f 225/2/3 223/2/3 219/2/3
f 225/2/3 224/2/3 223/2/3
f 226/2/3 224/2/3 225/2/3
f 230/2/3 228/2/3 227/2/3
f 231/2/3 228/2/3 230/2/3
f 233/2/3 230/2/3 229/2/3
f 233/2/3 232/2/3 231/2/3
f 233/2/3 231/2/3 230/2/3
f 234/2/3 232/2/3 233/2/3
f 235/2/3 232/2/3 234/2/3
f 236/2/3 232/2/3 235/2/3
f 239/2/3 238/2/3 237/2/3
f 240/2/3 238/2/3 239/2/3
f 243/2/3 242/2/3 241/2/3
f 244/2/3 242/2/3 243/2/3
f 251/2/3 248/2/3 247/2/3
f 252/2/3 246/2/3 245/2/3
f 253/2/3 252/2/3 251/2/3
f 254/2/3 246/2/3 252/2/3
f 254/2/3 252/2/3 253/2/3
f 255/2/3 246/2/3 254/2/3
f 256/2/3 251/2/3 247/2/3
f 256/2/3 253/2/3 251/2/3
f 257/2/3 253/2/3 256/2/3
f 258/2/3 253/2/3 257/2/3
f 260/1/3 250/1/3 249/1/3
f 261/1/3 250/1/3 260/1/3
f 262/2/3 259/2/3 258/2/3
f 262/2/3 258/2/3 257/2/3
f 263/2/3 259/2/3 262/2/3
f 264/2/3 259/2/3 263/2/3
f 265/2/3 259/2/3 264/2/3
f 268/1/3 267/1/3 266/1/3
f 269/1/3 267/1/3 268/1/3
f 274/2/3 273/2/3 272/2/3
f 275/2/3 273/2/3 274/2/3
f 277/2/3 271/2/3 270/2/3
f 278/2/3 277/2/3 276/2/3
f 279/2/3 271/2/3 277/2/3
f 279/2/3 277/2/3 278/2/3
f 282/2/3 281/2/3 280/2/3
f 283/2/3 281/2/3 282/2/3
f 286/2/3 285/2/3 284/2/3
f 287/2/3 285/2/3 286/2/3
f 290/2/3 289/2/3 288/2/3
f 291/2/3 289/2/3 290/2/3
f 294/2/3 293/2/3 292/2/3
f 296/2/3 294/2/3 292/2/3
f 296/2/3 295/2/3 294/2/3
f 297/2/3 295/2/3 296/2/3
f 298/2/3 295/2/3 297/2/3
f 299/2/3 295/2/3 298/2/3
f 302/2/3 301/2/3 300/2/3
f 303/2/3 301/2/3 302/2/3
f 306/2/3 305/2/3 304/2/3
f 307/2/3 305/2/3 306/2/3
f 308/2/4 309/2/4 310/2/4
f 310/2/4 309/2/4 311/2/4
f 308/2/4 310/2/4 312/2/4
f 312/2/4 310/2/4 313/2/4
f 313/2/4 310/2/4 314/2/4
f 314/2/4 310/2/4 315/2/4
f 316/2/4 317/2/4 318/2/4
f 318/2/4 317/2/4 319/2/4
f 320/2/4 321/2/4 322/2/4
f 322/2/4 321/2/4 323/2/4
f 324/2/4 325/2/4 326/2/4
f 324/2/4 326/2/4 327/2/4
f 327/2/4 326/2/4 328/2/4
f 329/2/4 330/2/4 331/2/4
f 331/2/4 330/2/4 332/2/4
f 333/2/4 334/2/4 336/2/4
f 336/2/4 334/2/4 337/2/4
f 335/2/4 336/2/4 339/2/4
f 337/2/4 338/2/4 339/2/4
f 336/2/4 337/2/4 339/2/4
f 339/2/4 338/2/4 340/2/4
f 335/2/4 339/2/4 341/2/4
f 341/2/4 339/2/4 344/2/4
f 344/2/4 339/2/4 345/2/4
f 342/1/4 343/1/4 346/1/4
f 346/1/4 343/1/4 347/1/4
f 348/1/4 349/1/4 350/1/4
f 350/1/4 349/1/4 351/1/4
f 352/2/4 353/2/4 355/2/4
f 354/2/4 355/2/4 356/2/4
f 355/2/4 353/2/4 357/2/4
f 356/2/4 355/2/4 357/2/4
f 358/2/4 359/2/4 360/2/4
f 360/2/4 359/2/4 361/2/4
f 362/2/4 363/2/4 364/2/4
f 364/2/4 363/2/4 365/2/4
f 365/2/4 366/2/4 369/2/4
f 369/2/4 366/2/4 371/2/4
f 371/2/4 366/2/4 372/2/4
f 367/2/4 368/2/4 373/2/4
f 373/2/4 368/2/4 374/2/4
f 371/2/4 372/2/4 375/2/4
f 370/2/4 371/2/4 375/2/4
f 375/2/4 372/2/4 376/2/4
f 376/2/4 372/2/4 377/2/4
f 370/2/4 375/2/4 379/2/4
f 379/2/4 375/2/4 380/2/4
f 377/2/4 378/2/4 382/2/4
f 376/2/4 377/2/4 382/2/4
f 382/2/4 378/2/4 383/2/4
f 383/2/4 378/2/4 384/2/4
f 381/2/4 382/2/4 385/2/4
f 382/2/4 383/2/4 385/2/4
f 385/2/4 383/2/4 386/2/4
f 387/2/4 388/2/4 391/2/4
f 391/2/4 388/2/4 392/2/4
f 389/2/4 390/2/4 393/2/4
f 393/2/4 390/2/4 394/2/4
f 387/2/4 391/2/4 395/2/4
f 395/2/4 391/2/4 396/2/4
f 389/2/4 393/2/4 397/2/4
f 394/2/4 390/2/4 398/2/4
f 389/2/4 397/2/4 399/2/4
f 397/2/4 398/2/4 399/2/4
f 398/2/4 390/2/4 400/2/4
f 399/2/4 398/2/4 400/2/4
f 401/2/4 402/2/4 403/2/4
f 403/2/4 402/2/4 404/2/4
f 401/2/4 403/2/4 405/2/4
f 404/2/4 402/2/4 406/2/4
f 401/2/4 405/2/4 407/2/4
f 405/2/4 406/2/4 407/2/4
f 406/2/4 402/2/4 408/2/4
f 407/2/4 406/2/4 408/2/4
f 409/2/4 410/2/4 411/2/4
f 411/2/4 410/2/4 412/2/4
f 413/2/4 414/2/4 415/2/4
f 415/2/4 414/2/4 416/2/4
f 419/1/5 418/1/5 417/1/5
f 420/1/5 418/1/5 419/1/5
f 424/2/5 422/2/5 421/2/5
f 426/2/5 424/2/5 423/2/5
f 427/2/5 426/2/5 425/2/5
f 428/2/5 422/2/5 424/2/5
f 428/2/5 426/2/5 427/2/5
f 428/2/5 424/2/5 426/2/5
f 429/2/5 422/2/5 428/2/5
f 430/2/5 422/2/5 429/2/5
f 431/2/5 429/2/5 428/2/5
f 433/2/5 427/2/5 425/2/5
f 434/2/5 432/2/5 431/2/5
f 434/2/5 431/2/5 428/2/5
f 436/2/5 433/2/5 425/2/5
f 436/2/5 434/2/5 433/2/5
f 437/2/5 434/2/5 436/2/5
f 437/2/5 436/2/5 435/2/5
f 438/2/5 434/2/5 437/2/5
f 439/2/5 437/2/5 435/2/5
f 440/2/5 437/2/5 439/2/5
f 441/2/5 434/2/5 438/2/5
f 442/2/5 432/2/5 434/2/5
f 442/2/5 434/2/5 441/2/5
f 443/2/5 437/2/5 440/2/5
f 444/2/5 437/2/5 443/2/5
f 448/2/5 446/2/5 445/2/5
f 449/2/5 446/2/5 448/2/5
f 450/2/5 446/2/5 449/2/5
f 451/2/5 446/2/5 450/2/5
f 452/2/5 448/2/5 447/2/5
f 452/2/5 449/2/5 448/2/5
f 453/2/5 449/2/5 452/2/5
f 454/2/5 449/2/5 453/2/5
f 457/2/5 456/2/5 455/2/5
f 458/2/5 456/2/5 457/2/5
f 463/2/5 462/2/5 461/2/5
f 464/2/5 462/2/5 463/2/5
f 465/2/5 460/2/5 459/2/5
f 466/2/5 460/2/5 465/2/5
f 469/2/5 468/2/5 467/2/5
f 470/2/5 468/2/5 469/2/5
f 475/2/5 474/2/5 473/2/5
f 476/2/5 474/2/5 475/2/5
f 477/2/5 472/2/5 471/2/5
f 478/2/5 472/2/5 477/2/5
f 481/2/5 480/2/5 479/2/5
f 482/2/5 480/2/5 481/2/5
f 485/2/5 484/2/5 483/2/5
f 486/2/5 484/2/5 485/2/5
f 487/2/5 484/2/5 486/2/5
f 490/2/5 489/2/5 488/2/5
f 491/2/5 489/2/5 490/2/5
f 494/2/5 493/2/5 492/2/5
f 495/2/5 493/2/5 494/2/5
f 498/2/5 497/2/5 496/2/5
f 499/2/5 497/2/5 498/2/5
f 502/2/5 501/2/5 500/2/5
f 503/2/5 501/2/5 502/2/5
f 506/2/5 505/2/5 504/2/5
f 507/2/5 505/2/5 506/2/5
f 510/2/5 509/2/5 508/2/5
f 511/2/5 509/2/5 510/2/5
f 512/1/6 513/1/6 514/1/6
f 514/1/6 513/1/6 515/1/6
f 512/1/6 514/1/6 516/1/6
f 515/1/6 513/1/6 517/1/6
f 512/1/6 516/1/6 518/1/6
f 516/1/6 517/1/6 518/1/6
f 517/1/6 513/1/6 519/1/6
f 518/1/6 517/1/6 519/1/6
f 520/2/6 521/2/6 523/2/6
f 522/2/6 523/2/6 524/2/6
f 523/2/6 521/2/6 525/2/6
f 524/2/6 523/2/6 525/2/6
f 526/2/6 527/2/6 528/2/6
f 528/2/6 527/2/6 529/2/6
f 530/2/6 531/2/6 534/2/6
f 534/2/6 531/2/6 535/2/6
f 532/2/6 533/2/6 536/2/6
f 536/2/6 533/2/6 537/2/6
f 537/2/6 538/2/6 539/2/6
f 539/2/6 538/2/6 540/2/6
f 540/2/6 538/2/6 541/2/6
f 541/2/6 538/2/6 542/2/6
f 543/2/6 544/2/6 545/2/6
f 545/2/6 544/2/6 546/2/6
f 546/2/6 547/2/6 548/2/6
f 548/2/6 547/2/6 549/2/6
f 550/2/6 551/2/6 552/2/6
f 552/2/6 551/2/6 553/2/6
f 553/2/6 551/2/6 554/2/6
f 555/2/6 556/2/6 557/2/6
f 557/2/6 556/2/6 558/2/6
f 559/2/6 560/2/6 561/2/6
f 561/2/6 560/2/6 562/2/6
f 563/2/6 564/2/6 565/2/6
f 565/2/6 564/2/6 566/2/6
f 567/2/6 568/2/6 571/2/6
f 571/2/6 568/2/6 572/2/6
f 572/2/6 568/2/6 573/2/6
f 574/2/6 575/2/6 576/2/6
f 576/2/6 575/2/6 577/2/6
f 569/2/6 570/2/6 578/2/6
f 578/2/6 570/2/6 579/2/6
f 580/2/6 581/2/6 582/2/6
f 582/2/6 581/2/6 583/2/6
f 586/2/6 587/2/6 588/2/6
f 588/2/6 587/2/6 589/2/6
f 584/2/6 585/2/6 590/2/6
f 590/2/6 585/2/6 591/2/6
f 586/2/6 588/2/6 593/2/6
f 593/2/6 588/2/6 594/2/6
f 591/2/6 592/2/6 595/2/6
f 590/2/6 591/2/6 595/2/6
f 595/2/6 592/2/6 596/2/6
f 596/2/6 592/2/6 597/2/6
f 597/2/6 598/2/6 599/2/6
f 596/2/6 597/2/6 599/2/6
f 599/2/6 598/2/6 600/2/6
f 590/2/6 595/2/6 601/2/6
f 601/2/6 595/2/6 602/2/6
f 596/2/6 599/2/6 603/2/6
f 603/2/6 599/2/6 604/2/6
f 605/2/6 606/2/6 607/2/6
f 607/2/6 606/2/6 608/2/6
f 609/2/6 610/2/6 611/2/6
f 611/2/6 610/2/6 612/2/6
f 613/2/6 614/2/6 617/2/6
f 617/2/6 614/2/6 618/2/6
f 615/2/6 616/2/6 619/2/6
f 619/2/6 616/2/6 620/2/6
f 621/2/6 622/2/6 623/2/6
f 623/2/6 622/2/6 624/2/6
