# MagicaVoxel @ Ephtracy

# material
mtllib fire-02.mtl
usemtl palette

# normals
vn -1 0 0
vn 1 0 0
vn 0 0 1
vn 0 0 -1
vn 0 -1 0
vn 0 1 0

# texcoords
vt 0.970703 0.5
vt 0.974609 0.5
vt 0.978516 0.5

# verts
v -6.5 2 2.5
v -6.5 2 -2.5
v -6.5 6 2.5
v -6.5 6 -2.5
v -6.5 10 0.5
v -6.5 10 -1.5
v -6.5 11 0.5
v -6.5 11 -1.5
v -5.5 1 2.5
v -5.5 1 -2.5
v -5.5 2 2.5
v -5.5 2 -2.5
v -5.5 6 2.5
v -5.5 6 -2.5
v -5.5 8 2.5
v -5.5 8 -2.5
v -4.5 0 2.5
v -4.5 0 -2.5
v -4.5 1 2.5
v -4.5 1 -2.5
v -4.5 8 2.5
v -4.5 8 -2.5
v -4.5 11 2.5
v -4.5 11 -2.5
v -2.5 10 2.5
v -2.5 10 -2.5
v -2.5 13 2.5
v -2.5 13 -2.5
v -1.5 13 2.5
v -1.5 13 -2.5
v -1.5 16 2.5
v -1.5 16 -2.5
v 3.5 9 2.5
v 3.5 9 -2.5
v 3.5 11 2.5
v 3.5 11 -2.5
v 3.5 13 1.5
v 3.5 13 -0.5
v 3.5 14 1.5
v 3.5 14 -0.5
v -5.5 10 0.5
v -5.5 10 -1.5
v -5.5 11 0.5
v -5.5 11 -1.5
v -3.5 10 2.5
v -3.5 10 -2.5
v -3.5 11 2.5
v -3.5 11 -2.5
v -0.5 15 2.5
v -0.5 15 -2.5
v -0.5 16 2.5
v -0.5 16 -2.5
v 0.5 13 2.5
v 0.5 13 -2.5
v 0.5 15 2.5
v 0.5 15 -2.5
v 1.5 10 2.5
v 1.5 10 -2.5
v 1.5 13 2.5
v 1.5 13 -2.5
v 2.5 9 2.5
v 2.5 9 -2.5
v 2.5 10 2.5
v 2.5 10 -2.5
v 4.5 0 2.5
v 4.5 0 -2.5
v 4.5 1 2.5
v 4.5 1 -2.5
v 4.5 8 2.5
v 4.5 8 -2.5
v 4.5 11 2.5
v 4.5 11 -2.5
v 4.5 13 1.5
v 4.5 13 -0.5
v 4.5 14 1.5
v 4.5 14 -0.5
v 5.5 1 2.5
v 5.5 1 -2.5
v 5.5 2 2.5
v 5.5 2 -2.5
v 5.5 5 2.5
v 5.5 5 -2.5
v 5.5 8 2.5
v 5.5 8 -2.5
v 6.5 2 2.5
v 6.5 2 -2.5
v 6.5 5 2.5
v 6.5 5 -2.5
v -6.5 2 2.5
v -6.5 6 2.5
v -5.5 1 2.5
v -5.5 2 2.5
v -5.5 6 2.5
v -5.5 8 2.5
v -4.5 0 2.5
v -4.5 1 2.5
v -4.5 7 2.5
v -4.5 8 2.5
v -4.5 11 2.5
v -3.5 1 2.5
v -3.5 4 2.5
v -3.5 6 2.5
v -3.5 7 2.5
v -3.5 10 2.5
v -3.5 11 2.5
v -2.5 0 2.5
v -2.5 1 2.5
v -2.5 3 2.5
v -2.5 4 2.5
v -2.5 6 2.5
v -2.5 8 2.5
v -2.5 10 2.5
v -2.5 13 2.5
v -1.5 3 2.5
v -1.5 7 2.5
v -1.5 8 2.5
v -1.5 9 2.5
v -1.5 13 2.5
v -1.5 16 2.5
v -0.5 6 2.5
v -0.5 7 2.5
v -0.5 9 2.5
v -0.5 12 2.5
v -0.5 15 2.5
v -0.5 16 2.5
v 0.5 5 2.5
v 0.5 6 2.5
v 0.5 8 2.5
v 0.5 12 2.5
v 0.5 13 2.5
v 0.5 15 2.5
v 1.5 3 2.5
v 1.5 5 2.5
v 1.5 7 2.5
v 1.5 8 2.5
v 1.5 10 2.5
v 1.5 13 2.5
v 2.5 0 2.5
v 2.5 1 2.5
v 2.5 3 2.5
v 2.5 5 2.5
v 2.5 9 2.5
v 2.5 10 2.5
v 3.5 1 2.5
v 3.5 5 2.5
v 3.5 6 2.5
v 3.5 7 2.5
v 3.5 9 2.5
v 3.5 11 2.5
v 4.5 0 2.5
v 4.5 1 2.5
v 4.5 6 2.5
v 4.5 8 2.5
v 4.5 11 2.5
v 5.5 1 2.5
v 5.5 2 2.5
v 5.5 5 2.5
v 5.5 8 2.5
v 6.5 2 2.5
v 6.5 5 2.5
v 3.5 13 1.5
v 3.5 14 1.5
v 4.5 13 1.5
v 4.5 14 1.5
v -6.5 10 0.5
v -6.5 11 0.5
v -5.5 10 0.5
v -5.5 11 0.5
v 3.5 13 -0.5
v 3.5 14 -0.5
v 4.5 13 -0.5
v 4.5 14 -0.5
v -6.5 10 -1.5
v -6.5 11 -1.5
v -5.5 10 -1.5
v -5.5 11 -1.5
v -6.5 2 -2.5
v -6.5 6 -2.5
v -5.5 1 -2.5
v -5.5 2 -2.5
v -5.5 6 -2.5
v -5.5 8 -2.5
v -4.5 0 -2.5
v -4.5 1 -2.5
v -4.5 7 -2.5
v -4.5 8 -2.5
v -4.5 11 -2.5
v -3.5 1 -2.5
v -3.5 4 -2.5
v -3.5 6 -2.5
v -3.5 7 -2.5
v -3.5 10 -2.5
v -3.5 11 -2.5
v -2.5 0 -2.5
v -2.5 1 -2.5
v -2.5 3 -2.5
v -2.5 4 -2.5
v -2.5 6 -2.5
v -2.5 8 -2.5
v -2.5 10 -2.5
v -2.5 13 -2.5
v -1.5 3 -2.5
v -1.5 7 -2.5
v -1.5 8 -2.5
v -1.5 9 -2.5
v -1.5 13 -2.5
v -1.5 16 -2.5
v -0.5 6 -2.5
v -0.5 7 -2.5
v -0.5 9 -2.5
v -0.5 12 -2.5
v -0.5 15 -2.5
v -0.5 16 -2.5
v 0.5 5 -2.5
v 0.5 6 -2.5
v 0.5 8 -2.5
v 0.5 12 -2.5
v 0.5 13 -2.5
v 0.5 15 -2.5
v 1.5 3 -2.5
v 1.5 5 -2.5
v 1.5 7 -2.5
v 1.5 8 -2.5
v 1.5 10 -2.5
v 1.5 13 -2.5
v 2.5 0 -2.5
v 2.5 1 -2.5
v 2.5 3 -2.5
v 2.5 5 -2.5
v 2.5 9 -2.5
v 2.5 10 -2.5
v 3.5 1 -2.5
v 3.5 5 -2.5
v 3.5 6 -2.5
v 3.5 7 -2.5
v 3.5 9 -2.5
v 3.5 11 -2.5
v 4.5 0 -2.5
v 4.5 1 -2.5
v 4.5 6 -2.5
v 4.5 8 -2.5
v 4.5 11 -2.5
v 5.5 1 -2.5
v 5.5 2 -2.5
v 5.5 5 -2.5
v 5.5 8 -2.5
v 6.5 2 -2.5
v 6.5 5 -2.5
v -4.5 0 2.5
v -2.5 0 2.5
v 2.5 0 2.5
v 4.5 0 2.5
v -4.5 0 -2.5
v -2.5 0 -2.5
v 2.5 0 -2.5
v 4.5 0 -2.5
v -5.5 1 2.5
v -4.5 1 2.5
v 4.5 1 2.5
v 5.5 1 2.5
v -5.5 1 -2.5
v -4.5 1 -2.5
v 4.5 1 -2.5
v 5.5 1 -2.5
v -6.5 2 2.5
v -5.5 2 2.5
v 5.5 2 2.5
v 6.5 2 2.5
v -6.5 2 -2.5
v -5.5 2 -2.5
v 5.5 2 -2.5
v 6.5 2 -2.5
v -6.5 10 0.5
v -5.5 10 0.5
v -6.5 10 -1.5
v -5.5 10 -1.5
v 3.5 13 1.5
v 4.5 13 1.5
v 3.5 13 -0.5
v 4.5 13 -0.5
v 5.5 5 2.5
v 6.5 5 2.5
v 5.5 5 -2.5
v 6.5 5 -2.5
v -6.5 6 2.5
v -5.5 6 2.5
v -6.5 6 -2.5
v -5.5 6 -2.5
v -5.5 8 2.5
v -4.5 8 2.5
v 4.5 8 2.5
v 5.5 8 2.5
v -5.5 8 -2.5
v -4.5 8 -2.5
v 4.5 8 -2.5
v 5.5 8 -2.5
v 2.5 9 2.5
v 3.5 9 2.5
v 2.5 9 -2.5
v 3.5 9 -2.5
v -3.5 10 2.5
v -2.5 10 2.5
v 1.5 10 2.5
v 2.5 10 2.5
v -3.5 10 -2.5
v -2.5 10 -2.5
v 1.5 10 -2.5
v 2.5 10 -2.5
v -4.5 11 2.5
v -3.5 11 2.5
v 3.5 11 2.5
v 4.5 11 2.5
v -6.5 11 0.5
v -5.5 11 0.5
v -6.5 11 -1.5
v -5.5 11 -1.5
v -4.5 11 -2.5
v -3.5 11 -2.5
v 3.5 11 -2.5
v 4.5 11 -2.5
v -2.5 13 2.5
v -1.5 13 2.5
v 0.5 13 2.5
v 1.5 13 2.5
v -2.5 13 -2.5
v -1.5 13 -2.5
v 0.5 13 -2.5
v 1.5 13 -2.5
v 3.5 14 1.5
v 4.5 14 1.5
v 3.5 14 -0.5
v 4.5 14 -0.5
v -0.5 15 2.5
v 0.5 15 2.5
v -0.5 15 -2.5
v 0.5 15 -2.5
v -1.5 16 2.5
v -0.5 16 2.5
v -1.5 16 -2.5
v -0.5 16 -2.5

# faces
f 3/1/1 2/1/1 1/1/1
f 4/1/1 2/1/1 3/1/1
f 7/1/1 6/1/1 5/1/1
f 8/1/1 6/1/1 7/1/1
f 11/1/1 10/1/1 9/1/1
f 12/1/1 10/1/1 11/1/1
f 15/1/1 14/1/1 13/1/1
f 16/1/1 14/1/1 15/1/1
f 19/2/1 18/2/1 17/2/1
f 20/2/1 18/2/1 19/2/1
f 23/1/1 22/1/1 21/1/1
f 24/1/1 22/1/1 23/1/1
f 27/1/1 26/1/1 25/1/1
f 28/1/1 26/1/1 27/1/1
f 31/1/1 30/1/1 29/1/1
f 32/1/1 30/1/1 31/1/1
f 35/1/1 34/1/1 33/1/1
f 36/1/1 34/1/1 35/1/1
f 39/1/1 38/1/1 37/1/1
f 40/1/1 38/1/1 39/1/1
f 41/1/2 42/1/2 43/1/2
f 43/1/2 42/1/2 44/1/2
f 45/1/2 46/1/2 47/1/2
f 47/1/2 46/1/2 48/1/2
f 49/1/2 50/1/2 51/1/2
f 51/1/2 50/1/2 52/1/2
f 53/1/2 54/1/2 55/1/2
f 55/1/2 54/1/2 56/1/2
f 57/1/2 58/1/2 59/1/2
f 59/1/2 58/1/2 60/1/2
f 61/1/2 62/1/2 63/1/2
f 63/1/2 62/1/2 64/1/2
f 65/2/2 66/2/2 67/2/2
f 67/2/2 66/2/2 68/2/2
f 69/1/2 70/1/2 71/1/2
f 71/1/2 70/1/2 72/1/2
f 73/1/2 74/1/2 75/1/2
f 75/1/2 74/1/2 76/1/2
f 77/1/2 78/1/2 79/1/2
f 79/1/2 78/1/2 80/1/2
f 81/1/2 82/1/2 83/1/2
f 83/1/2 82/1/2 84/1/2
f 85/1/2 86/1/2 87/1/2
f 87/1/2 86/1/2 88/1/2
f 92/1/3 90/1/3 89/1/3
f 93/1/3 90/1/3 92/1/3
f 96/1/3 92/1/3 91/1/3
f 96/1/3 94/1/3 93/1/3
f 96/1/3 93/1/3 92/1/3
f 97/1/3 94/1/3 96/1/3
f 98/1/3 94/1/3 97/1/3
f 100/2/3 96/2/3 95/2/3
f 100/2/3 97/2/3 96/2/3
f 101/2/3 97/2/3 100/2/3
f 102/2/3 97/2/3 101/2/3
f 103/1/3 99/1/3 98/1/3
f 103/2/3 97/2/3 102/2/3
f 103/1/3 98/1/3 97/1/3
f 104/1/3 99/1/3 103/1/3
f 105/1/3 99/1/3 104/1/3
f 106/2/3 100/2/3 95/2/3
f 107/3/3 101/3/3 100/3/3
f 107/2/3 100/2/3 106/2/3
f 108/3/3 101/3/3 107/3/3
f 109/2/3 102/2/3 101/2/3
f 109/3/3 101/3/3 108/3/3
f 110/1/3 103/1/3 102/1/3
f 110/2/3 102/2/3 109/2/3
f 110/1/3 104/1/3 103/1/3
f 111/1/3 104/1/3 110/1/3
f 112/1/3 104/1/3 111/1/3
f 114/3/3 108/3/3 107/3/3
f 114/2/3 109/2/3 108/2/3
f 114/2/3 111/2/3 110/2/3
f 114/2/3 110/2/3 109/2/3
f 114/3/3 107/3/3 106/3/3
f 115/2/3 111/2/3 114/2/3
f 116/1/3 113/1/3 112/1/3
f 116/2/3 111/2/3 115/2/3
f 116/1/3 112/1/3 111/1/3
f 117/1/3 113/1/3 116/1/3
f 118/1/3 113/1/3 117/1/3
f 120/3/3 115/3/3 114/3/3
f 121/2/3 116/2/3 115/2/3
f 121/3/3 115/3/3 120/3/3
f 121/2/3 117/2/3 116/2/3
f 122/1/3 119/1/3 118/1/3
f 122/2/3 117/2/3 121/2/3
f 122/1/3 118/1/3 117/1/3
f 123/1/3 119/1/3 122/1/3
f 124/1/3 119/1/3 123/1/3
f 125/1/3 119/1/3 124/1/3
f 126/3/3 120/3/3 114/3/3
f 127/2/3 121/2/3 120/2/3
f 127/3/3 120/3/3 126/3/3
f 127/2/3 122/2/3 121/2/3
f 127/2/3 123/2/3 122/2/3
f 128/2/3 123/2/3 127/2/3
f 129/1/3 124/1/3 123/1/3
f 129/2/3 123/2/3 128/2/3
f 130/1/3 124/1/3 129/1/3
f 131/1/3 124/1/3 130/1/3
f 132/3/3 126/3/3 114/3/3
f 132/3/3 114/3/3 106/3/3
f 133/2/3 128/2/3 127/2/3
f 133/3/3 126/3/3 132/3/3
f 133/2/3 127/2/3 126/2/3
f 134/2/3 128/2/3 133/2/3
f 135/1/3 130/1/3 129/1/3
f 135/2/3 128/2/3 134/2/3
f 135/1/3 129/1/3 128/1/3
f 136/1/3 130/1/3 135/1/3
f 137/1/3 130/1/3 136/1/3
f 138/3/3 132/3/3 106/3/3
f 139/3/3 132/3/3 138/3/3
f 140/2/3 134/2/3 133/2/3
f 140/3/3 132/3/3 139/3/3
f 140/2/3 133/2/3 132/2/3
f 141/2/3 134/2/3 140/2/3
f 142/1/3 135/1/3 134/1/3
f 142/1/3 136/1/3 135/1/3
f 143/1/3 136/1/3 142/1/3
f 144/2/3 139/2/3 138/2/3
f 144/3/3 141/3/3 140/3/3
f 144/3/3 140/3/3 139/3/3
f 145/2/3 134/2/3 141/2/3
f 145/3/3 141/3/3 144/3/3
f 146/2/3 134/2/3 145/2/3
f 147/1/3 142/1/3 134/1/3
f 147/2/3 134/2/3 146/2/3
f 148/1/3 142/1/3 147/1/3
f 150/2/3 144/2/3 138/2/3
f 150/2/3 146/2/3 145/2/3
f 150/2/3 145/2/3 144/2/3
f 151/2/3 146/2/3 150/2/3
f 152/1/3 148/1/3 147/1/3
f 152/2/3 146/2/3 151/2/3
f 152/1/3 149/1/3 148/1/3
f 152/1/3 147/1/3 146/1/3
f 153/1/3 149/1/3 152/1/3
f 154/1/3 149/1/3 153/1/3
f 155/1/3 152/1/3 151/1/3
f 155/1/3 153/1/3 152/1/3
f 156/1/3 153/1/3 155/1/3
f 157/1/3 153/1/3 156/1/3
f 158/1/3 153/1/3 157/1/3
f 159/1/3 157/1/3 156/1/3
f 160/1/3 157/1/3 159/1/3
f 163/1/3 162/1/3 161/1/3
f 164/1/3 162/1/3 163/1/3
f 167/1/3 166/1/3 165/1/3
f 168/1/3 166/1/3 167/1/3
f 169/1/4 170/1/4 171/1/4
f 171/1/4 170/1/4 172/1/4
f 173/1/4 174/1/4 175/1/4
f 175/1/4 174/1/4 176/1/4
f 177/1/4 178/1/4 180/1/4
f 180/1/4 178/1/4 181/1/4
f 179/1/4 180/1/4 184/1/4
f 181/1/4 182/1/4 184/1/4
f 180/1/4 181/1/4 184/1/4
f 184/1/4 182/1/4 185/1/4
f 185/1/4 182/1/4 186/1/4
f 183/2/4 184/2/4 188/2/4
f 184/2/4 185/2/4 188/2/4
f 188/2/4 185/2/4 189/2/4
f 189/2/4 185/2/4 190/2/4
f 186/1/4 187/1/4 191/1/4
f 190/2/4 185/2/4 191/2/4
f 185/1/4 186/1/4 191/1/4
f 191/1/4 187/1/4 192/1/4
f 192/1/4 187/1/4 193/1/4
f 183/2/4 188/2/4 194/2/4
f 188/3/4 189/3/4 195/3/4
f 194/2/4 188/2/4 195/2/4
f 195/3/4 189/3/4 196/3/4
f 189/2/4 190/2/4 197/2/4
f 196/3/4 189/3/4 197/3/4
f 190/1/4 191/1/4 198/1/4
f 197/2/4 190/2/4 198/2/4
f 191/1/4 192/1/4 198/1/4
f 198/1/4 192/1/4 199/1/4
f 199/1/4 192/1/4 200/1/4
f 195/3/4 196/3/4 202/3/4
f 196/2/4 197/2/4 202/2/4
f 198/2/4 199/2/4 202/2/4
f 197/2/4 198/2/4 202/2/4
f 194/3/4 195/3/4 202/3/4
f 202/2/4 199/2/4 203/2/4
f 200/1/4 201/1/4 204/1/4
f 203/2/4 199/2/4 204/2/4
f 199/1/4 200/1/4 204/1/4
f 204/1/4 201/1/4 205/1/4
f 205/1/4 201/1/4 206/1/4
f 202/3/4 203/3/4 208/3/4
f 203/2/4 204/2/4 209/2/4
f 208/3/4 203/3/4 209/3/4
f 204/2/4 205/2/4 209/2/4
f 206/1/4 207/1/4 210/1/4
f 209/2/4 205/2/4 210/2/4
f 205/1/4 206/1/4 210/1/4
f 210/1/4 207/1/4 211/1/4
f 211/1/4 207/1/4 212/1/4
f 212/1/4 207/1/4 213/1/4
f 202/3/4 208/3/4 214/3/4
f 208/2/4 209/2/4 215/2/4
f 214/3/4 208/3/4 215/3/4
f 209/2/4 210/2/4 215/2/4
f 210/2/4 211/2/4 215/2/4
f 215/2/4 211/2/4 216/2/4
f 211/1/4 212/1/4 217/1/4
f 216/2/4 211/2/4 217/2/4
f 217/1/4 212/1/4 218/1/4
f 218/1/4 212/1/4 219/1/4
f 202/3/4 214/3/4 220/3/4
f 194/3/4 202/3/4 220/3/4
f 215/2/4 216/2/4 221/2/4
f 220/3/4 214/3/4 221/3/4
f 214/2/4 215/2/4 221/2/4
f 221/2/4 216/2/4 222/2/4
f 217/1/4 218/1/4 223/1/4
f 222/2/4 216/2/4 223/2/4
f 216/1/4 217/1/4 223/1/4
f 223/1/4 218/1/4 224/1/4
f 224/1/4 218/1/4 225/1/4
f 194/3/4 220/3/4 226/3/4
f 226/3/4 220/3/4 227/3/4
f 221/2/4 222/2/4 228/2/4
f 227/3/4 220/3/4 228/3/4
f 220/2/4 221/2/4 228/2/4
f 228/2/4 222/2/4 229/2/4
f 222/1/4 223/1/4 230/1/4
f 223/1/4 224/1/4 230/1/4
f 230/1/4 224/1/4 231/1/4
f 226/2/4 227/2/4 232/2/4
f 228/3/4 229/3/4 232/3/4
f 227/3/4 228/3/4 232/3/4
f 229/2/4 222/2/4 233/2/4
f 232/3/4 229/3/4 233/3/4
f 233/2/4 222/2/4 234/2/4
f 222/1/4 230/1/4 235/1/4
f 234/2/4 222/2/4 235/2/4
f 235/1/4 230/1/4 236/1/4
f 226/2/4 232/2/4 238/2/4
f 233/2/4 234/2/4 238/2/4
f 232/2/4 233/2/4 238/2/4
f 238/2/4 234/2/4 239/2/4
f 235/1/4 236/1/4 240/1/4
f 239/2/4 234/2/4 240/2/4
f 236/1/4 237/1/4 240/1/4
f 234/1/4 235/1/4 240/1/4
f 240/1/4 237/1/4 241/1/4
f 241/1/4 237/1/4 242/1/4
f 239/1/4 240/1/4 243/1/4
f 240/1/4 241/1/4 243/1/4
f 243/1/4 241/1/4 244/1/4
f 244/1/4 241/1/4 245/1/4
f 245/1/4 241/1/4 246/1/4
f 244/1/4 245/1/4 247/1/4
f 247/1/4 245/1/4 248/1/4
f 253/2/5 250/2/5 249/2/5
f 254/3/5 251/3/5 250/3/5
f 254/2/5 250/2/5 253/2/5
f 255/2/5 252/2/5 251/2/5
f 255/3/5 251/3/5 254/3/5
f 256/2/5 252/2/5 255/2/5
f 261/1/5 258/1/5 257/1/5
f 262/1/5 258/1/5 261/1/5
f 263/1/5 260/1/5 259/1/5
f 264/1/5 260/1/5 263/1/5
f 269/1/5 266/1/5 265/1/5
f 270/1/5 266/1/5 269/1/5
f 271/1/5 268/1/5 267/1/5
f 272/1/5 268/1/5 271/1/5
f 275/1/5 274/1/5 273/1/5
f 276/1/5 274/1/5 275/1/5
f 279/1/5 278/1/5 277/1/5
f 280/1/5 278/1/5 279/1/5
f 281/1/6 282/1/6 283/1/6
f 283/1/6 282/1/6 284/1/6
f 285/1/6 286/1/6 287/1/6
f 287/1/6 286/1/6 288/1/6
f 289/1/6 290/1/6 293/1/6
f 293/1/6 290/1/6 294/1/6
f 291/1/6 292/1/6 295/1/6
f 295/1/6 292/1/6 296/1/6
f 297/1/6 298/1/6 299/1/6
f 299/1/6 298/1/6 300/1/6
f 301/1/6 302/1/6 305/1/6
f 305/1/6 302/1/6 306/1/6
f 303/1/6 304/1/6 307/1/6
f 307/1/6 304/1/6 308/1/6
f 313/1/6 314/1/6 315/1/6
f 315/1/6 314/1/6 316/1/6
f 309/1/6 310/1/6 317/1/6
f 317/1/6 310/1/6 318/1/6
f 311/1/6 312/1/6 319/1/6
f 319/1/6 312/1/6 320/1/6
f 321/1/6 322/1/6 325/1/6
f 325/1/6 322/1/6 326/1/6
f 323/1/6 324/1/6 327/1/6
f 327/1/6 324/1/6 328/1/6
f 329/1/6 330/1/6 331/1/6
f 331/1/6 330/1/6 332/1/6
f 333/1/6 334/1/6 335/1/6
f 335/1/6 334/1/6 336/1/6
f 337/1/6 338/1/6 339/1/6
f 339/1/6 338/1/6 340/1/6
