# MagicaVoxel @ Ephtracy

# material
mtllib dead_tree.mtl
usemtl palette

# normals
vn -1 0 0
vn 1 0 0
vn 0 0 1
vn 0 0 -1
vn 0 -1 0
vn 0 1 0

# texcoords
vt 0.970703 0.5

# verts
v -7.5 11 0.5
v -7.5 11 -1.5
v -7.5 17 0.5
v -7.5 17 -1.5
v -6.5 17 0.5
v -6.5 17 -1.5
v -6.5 22 0.5
v -6.5 22 -1.5
v -4.5 12 -2.5
v -4.5 12 -5.5
v -4.5 15 -2.5
v -4.5 15 -3.5
v -4.5 25 -3.5
v -4.5 25 -5.5
v -1.5 0 1.5
v -1.5 0 -2.5
v -1.5 11 0.5
v -1.5 11 -1.5
v -1.5 12 -2.5
v -1.5 13 0.5
v -1.5 13 -1.5
v -1.5 14 1.5
v -1.5 14 -2.5
v -0.5 12 2.5
v -0.5 12 1.5
v -0.5 12 -4.5
v -0.5 12 -8.5
v -0.5 14 1.5
v -0.5 14 0.5
v -0.5 14 -1.5
v -0.5 14 -2.5
v -0.5 15 2.5
v -0.5 15 0.5
v -0.5 15 -1.5
v -0.5 15 -2.5
v -0.5 15 -4.5
v -0.5 15 -6.5
v -0.5 21 -6.5
v -0.5 21 -8.5
v 0.5 12 6.5
v 0.5 12 2.5
v 0.5 15 4.5
v 0.5 15 2.5
v 0.5 22 6.5
v 0.5 22 4.5
v 1.5 8 -2.5
v 1.5 8 -3.5
v 1.5 11 -2.5
v 1.5 11 -3.5
v 1.5 12 7.5
v 1.5 12 6.5
v 1.5 15 -1.5
v 1.5 15 -3.5
v 1.5 20 -1.5
v 1.5 20 -3.5
v 1.5 22 7.5
v 1.5 22 6.5
v 5.5 11 -0.5
v 5.5 11 -2.5
v 5.5 17 -0.5
v 5.5 17 -2.5
v 6.5 17 -0.5
v 6.5 17 -2.5
v 6.5 21 -0.5
v 6.5 21 -2.5
v -5.5 13 0.5
v -5.5 13 -1.5
v -5.5 16 0.5
v -5.5 16 -1.5
v -4.5 16 0.5
v -4.5 16 -1.5
v -4.5 22 0.5
v -4.5 22 -1.5
v -2.5 12 -4.5
v -2.5 12 -5.5
v -2.5 15 -3.5
v -2.5 15 -4.5
v -2.5 25 -3.5
v -2.5 25 -5.5
v 1.5 12 5.5
v 1.5 12 2.5
v 1.5 12 -3.5
v 1.5 12 -8.5
v 1.5 15 4.5
v 1.5 15 2.5
v 1.5 15 -3.5
v 1.5 15 -6.5
v 1.5 21 -6.5
v 1.5 21 -8.5
v 1.5 22 5.5
v 1.5 22 4.5
v 2.5 0 1.5
v 2.5 0 -2.5
v 2.5 8 -0.5
v 2.5 8 -2.5
v 2.5 11 -0.5
v 2.5 11 -2.5
v 2.5 12 7.5
v 2.5 12 5.5
v 2.5 12 2.5
v 2.5 12 1.5
v 2.5 12 -2.5
v 2.5 12 -3.5
v 2.5 14 0.5
v 2.5 14 -1.5
v 2.5 15 2.5
v 2.5 15 0.5
v 2.5 20 -1.5
v 2.5 20 -3.5
v 2.5 22 7.5
v 2.5 22 5.5
v 3.5 8 -0.5
v 3.5 8 -3.5
v 3.5 9 -0.5
v 3.5 9 -2.5
v 3.5 11 -2.5
v 3.5 11 -3.5
v 7.5 9 -0.5
v 7.5 9 -2.5
v 7.5 21 -0.5
v 7.5 21 -2.5
v 1.5 12 7.5
v 1.5 22 7.5
v 2.5 12 7.5
v 2.5 22 7.5
v 0.5 12 6.5
v 0.5 22 6.5
v 1.5 12 6.5
v 1.5 22 6.5
v -0.5 12 2.5
v -0.5 15 2.5
v 0.5 12 2.5
v 0.5 15 2.5
v 1.5 12 2.5
v 1.5 15 2.5
v 2.5 12 2.5
v 2.5 15 2.5
v -1.5 0 1.5
v -1.5 14 1.5
v -0.5 12 1.5
v -0.5 14 1.5
v 2.5 0 1.5
v 2.5 12 1.5
v -7.5 11 0.5
v -7.5 17 0.5
v -6.5 17 0.5
v -6.5 22 0.5
v -5.5 13 0.5
v -5.5 16 0.5
v -4.5 16 0.5
v -4.5 22 0.5
v -1.5 11 0.5
v -1.5 13 0.5
v 2.5 8 -0.5
v 2.5 11 -0.5
v 3.5 8 -0.5
v 3.5 9 -0.5
v 5.5 11 -0.5
v 5.5 17 -0.5
v 6.5 17 -0.5
v 6.5 21 -0.5
v 7.5 9 -0.5
v 7.5 21 -0.5
v -0.5 14 -1.5
v -0.5 15 -1.5
v 1.5 15 -1.5
v 1.5 20 -1.5
v 2.5 14 -1.5
v 2.5 20 -1.5
v -4.5 12 -2.5
v -4.5 15 -2.5
v -1.5 12 -2.5
v -1.5 14 -2.5
v -0.5 14 -2.5
v -0.5 15 -2.5
v -4.5 15 -3.5
v -4.5 25 -3.5
v -2.5 15 -3.5
v -2.5 25 -3.5
v -0.5 15 -6.5
v -0.5 21 -6.5
v 1.5 15 -6.5
v 1.5 21 -6.5
v 1.5 12 5.5
v 1.5 22 5.5
v 2.5 12 5.5
v 2.5 22 5.5
v 0.5 15 4.5
v 0.5 22 4.5
v 1.5 15 4.5
v 1.5 22 4.5
v -0.5 14 0.5
v -0.5 15 0.5
v 2.5 14 0.5
v 2.5 15 0.5
v -7.5 11 -1.5
v -7.5 17 -1.5
v -6.5 17 -1.5
v -6.5 22 -1.5
v -5.5 13 -1.5
v -5.5 16 -1.5
v -4.5 16 -1.5
v -4.5 22 -1.5
v -1.5 11 -1.5
v -1.5 13 -1.5
v -1.5 0 -2.5
v -1.5 12 -2.5
v 1.5 8 -2.5
v 1.5 11 -2.5
v 2.5 0 -2.5
v 2.5 8 -2.5
v 2.5 11 -2.5
v 2.5 12 -2.5
v 3.5 9 -2.5
v 3.5 11 -2.5
v 5.5 11 -2.5
v 5.5 17 -2.5
v 6.5 17 -2.5
v 6.5 21 -2.5
v 7.5 9 -2.5
v 7.5 21 -2.5
v 1.5 8 -3.5
v 1.5 11 -3.5
v 1.5 12 -3.5
v 1.5 15 -3.5
v 1.5 20 -3.5
v 2.5 12 -3.5
v 2.5 20 -3.5
v 3.5 8 -3.5
v 3.5 11 -3.5
v -2.5 12 -4.5
v -2.5 15 -4.5
v -0.5 12 -4.5
v -0.5 15 -4.5
v -4.5 12 -5.5
v -4.5 25 -5.5
v -2.5 12 -5.5
v -2.5 25 -5.5
v -0.5 12 -8.5
v -0.5 21 -8.5
v 1.5 12 -8.5
v 1.5 21 -8.5
v -1.5 0 1.5
v 2.5 0 1.5
v -1.5 0 -2.5
v 2.5 0 -2.5
v 2.5 8 -0.5
v 3.5 8 -0.5
v 1.5 8 -2.5
v 2.5 8 -2.5
v 1.5 8 -3.5
v 3.5 8 -3.5
v 3.5 9 -0.5
v 7.5 9 -0.5
v 3.5 9 -2.5
v 7.5 9 -2.5
v -7.5 11 0.5
v -1.5 11 0.5
v -7.5 11 -1.5
v -1.5 11 -1.5
v 1.5 12 7.5
v 2.5 12 7.5
v 0.5 12 6.5
v 1.5 12 6.5
v 1.5 12 5.5
v 2.5 12 5.5
v -0.5 12 2.5
v 0.5 12 2.5
v 1.5 12 2.5
v 2.5 12 2.5
v -0.5 12 1.5
v 2.5 12 1.5
v -4.5 12 -2.5
v -1.5 12 -2.5
v 2.5 12 -2.5
v 1.5 12 -3.5
v 2.5 12 -3.5
v -2.5 12 -4.5
v -0.5 12 -4.5
v -4.5 12 -5.5
v -2.5 12 -5.5
v -0.5 12 -8.5
v 1.5 12 -8.5
v -5.5 16 0.5
v -4.5 16 0.5
v -5.5 16 -1.5
v -4.5 16 -1.5
v 2.5 11 -0.5
v 5.5 11 -0.5
v 1.5 11 -2.5
v 2.5 11 -2.5
v 3.5 11 -2.5
v 5.5 11 -2.5
v 1.5 11 -3.5
v 3.5 11 -3.5
v -5.5 13 0.5
v -1.5 13 0.5
v -5.5 13 -1.5
v -1.5 13 -1.5
v -1.5 14 1.5
v -0.5 14 1.5
v -0.5 14 0.5
v 2.5 14 0.5
v -0.5 14 -1.5
v 2.5 14 -1.5
v -1.5 14 -2.5
v -0.5 14 -2.5
v 0.5 15 4.5
v 1.5 15 4.5
v -0.5 15 2.5
v 0.5 15 2.5
v 1.5 15 2.5
v 2.5 15 2.5
v -0.5 15 0.5
v 2.5 15 0.5
v -0.5 15 -1.5
v 1.5 15 -1.5
v -4.5 15 -2.5
v -0.5 15 -2.5
v -4.5 15 -3.5
v -2.5 15 -3.5
v 1.5 15 -3.5
v -2.5 15 -4.5
v -0.5 15 -4.5
v -0.5 15 -6.5
v 1.5 15 -6.5
v -7.5 17 0.5
v -6.5 17 0.5
v 5.5 17 -0.5
v 6.5 17 -0.5
v -7.5 17 -1.5
v -6.5 17 -1.5
v 5.5 17 -2.5
v 6.5 17 -2.5
v 1.5 20 -1.5
v 2.5 20 -1.5
v 1.5 20 -3.5
v 2.5 20 -3.5
v 6.5 21 -0.5
v 7.5 21 -0.5
v 6.5 21 -2.5
v 7.5 21 -2.5
v -0.5 21 -6.5
v 1.5 21 -6.5
v -0.5 21 -8.5
v 1.5 21 -8.5
v 1.5 22 7.5
v 2.5 22 7.5
v 0.5 22 6.5
v 1.5 22 6.5
v 1.5 22 5.5
v 2.5 22 5.5
v 0.5 22 4.5
v 1.5 22 4.5
v -6.5 22 0.5
v -4.5 22 0.5
v -6.5 22 -1.5
v -4.5 22 -1.5
v -4.5 25 -3.5
v -2.5 25 -3.5
v -4.5 25 -5.5
v -2.5 25 -5.5

# faces
f 3/1/1 2/1/1 1/1/1
f 4/1/1 2/1/1 3/1/1
f 7/1/1 6/1/1 5/1/1
f 8/1/1 6/1/1 7/1/1
f 11/1/1 10/1/1 9/1/1
f 12/1/1 10/1/1 11/1/1
f 13/1/1 10/1/1 12/1/1
f 14/1/1 10/1/1 13/1/1
f 17/1/1 16/1/1 15/1/1
f 18/1/1 16/1/1 17/1/1
f 19/1/1 16/1/1 18/1/1
f 20/1/1 17/1/1 15/1/1
f 21/1/1 19/1/1 18/1/1
f 22/1/1 20/1/1 15/1/1
f 22/1/1 21/1/1 20/1/1
f 23/1/1 19/1/1 21/1/1
f 23/1/1 21/1/1 22/1/1
f 28/1/1 25/1/1 24/1/1
f 32/1/1 28/1/1 24/1/1
f 32/1/1 29/1/1 28/1/1
f 33/1/1 29/1/1 32/1/1
f 34/1/1 31/1/1 30/1/1
f 35/1/1 31/1/1 34/1/1
f 36/1/1 27/1/1 26/1/1
f 37/1/1 27/1/1 36/1/1
f 38/1/1 27/1/1 37/1/1
f 39/1/1 27/1/1 38/1/1
f 42/1/1 41/1/1 40/1/1
f 43/1/1 41/1/1 42/1/1
f 44/1/1 42/1/1 40/1/1
f 45/1/1 42/1/1 44/1/1
f 48/1/1 47/1/1 46/1/1
f 49/1/1 47/1/1 48/1/1
f 54/1/1 53/1/1 52/1/1
f 55/1/1 53/1/1 54/1/1
f 56/1/1 51/1/1 50/1/1
f 57/1/1 51/1/1 56/1/1
f 60/1/1 59/1/1 58/1/1
f 61/1/1 59/1/1 60/1/1
f 64/1/1 63/1/1 62/1/1
f 65/1/1 63/1/1 64/1/1
f 66/1/2 67/1/2 68/1/2
f 68/1/2 67/1/2 69/1/2
f 70/1/2 71/1/2 72/1/2
f 72/1/2 71/1/2 73/1/2
f 74/1/2 75/1/2 77/1/2
f 76/1/2 77/1/2 78/1/2
f 77/1/2 75/1/2 79/1/2
f 78/1/2 77/1/2 79/1/2
f 80/1/2 81/1/2 84/1/2
f 84/1/2 81/1/2 85/1/2
f 82/1/2 83/1/2 86/1/2
f 86/1/2 83/1/2 87/1/2
f 87/1/2 83/1/2 88/1/2
f 88/1/2 83/1/2 89/1/2
f 80/1/2 84/1/2 90/1/2
f 90/1/2 84/1/2 91/1/2
f 92/1/2 93/1/2 94/1/2
f 94/1/2 93/1/2 95/1/2
f 92/1/2 94/1/2 96/1/2
f 92/1/2 96/1/2 101/1/2
f 96/1/2 97/1/2 101/1/2
f 101/1/2 97/1/2 102/1/2
f 101/1/2 102/1/2 104/1/2
f 102/1/2 103/1/2 104/1/2
f 100/1/2 101/1/2 104/1/2
f 104/1/2 103/1/2 105/1/2
f 100/1/2 104/1/2 106/1/2
f 106/1/2 104/1/2 107/1/2
f 105/1/2 103/1/2 108/1/2
f 108/1/2 103/1/2 109/1/2
f 98/1/2 99/1/2 110/1/2
f 110/1/2 99/1/2 111/1/2
f 112/1/2 113/1/2 114/1/2
f 114/1/2 113/1/2 115/1/2
f 115/1/2 113/1/2 116/1/2
f 116/1/2 113/1/2 117/1/2
f 118/1/2 119/1/2 120/1/2
f 120/1/2 119/1/2 121/1/2
f 124/1/3 123/1/3 122/1/3
f 125/1/3 123/1/3 124/1/3
f 128/1/3 127/1/3 126/1/3
f 129/1/3 127/1/3 128/1/3
f 132/1/3 131/1/3 130/1/3
f 133/1/3 131/1/3 132/1/3
f 136/1/3 135/1/3 134/1/3
f 137/1/3 135/1/3 136/1/3
f 140/1/3 139/1/3 138/1/3
f 141/1/3 139/1/3 140/1/3
f 142/1/3 140/1/3 138/1/3
f 143/1/3 140/1/3 142/1/3
f 146/1/3 145/1/3 144/1/3
f 148/1/3 146/1/3 144/1/3
f 148/1/3 147/1/3 146/1/3
f 149/1/3 147/1/3 148/1/3
f 150/1/3 147/1/3 149/1/3
f 151/1/3 147/1/3 150/1/3
f 152/1/3 148/1/3 144/1/3
f 153/1/3 148/1/3 152/1/3
f 156/1/3 155/1/3 154/1/3
f 157/1/3 155/1/3 156/1/3
f 158/1/3 155/1/3 157/1/3
f 160/1/3 159/1/3 158/1/3
f 162/1/3 158/1/3 157/1/3
f 162/1/3 161/1/3 160/1/3
f 162/1/3 160/1/3 158/1/3
f 163/1/3 161/1/3 162/1/3
f 166/1/3 165/1/3 164/1/3
f 168/1/3 166/1/3 164/1/3
f 168/1/3 167/1/3 166/1/3
f 169/1/3 167/1/3 168/1/3
f 172/1/3 171/1/3 170/1/3
f 173/1/3 171/1/3 172/1/3
f 174/1/3 171/1/3 173/1/3
f 175/1/3 171/1/3 174/1/3
f 178/1/3 177/1/3 176/1/3
f 179/1/3 177/1/3 178/1/3
f 182/1/3 181/1/3 180/1/3
f 183/1/3 181/1/3 182/1/3
f 184/1/4 185/1/4 186/1/4
f 186/1/4 185/1/4 187/1/4
f 188/1/4 189/1/4 190/1/4
f 190/1/4 189/1/4 191/1/4
f 192/1/4 193/1/4 194/1/4
f 194/1/4 193/1/4 195/1/4
f 196/1/4 197/1/4 198/1/4
f 196/1/4 198/1/4 200/1/4
f 198/1/4 199/1/4 200/1/4
f 200/1/4 199/1/4 201/1/4
f 201/1/4 199/1/4 202/1/4
f 202/1/4 199/1/4 203/1/4
f 196/1/4 200/1/4 204/1/4
f 204/1/4 200/1/4 205/1/4
f 206/1/4 207/1/4 208/1/4
f 208/1/4 207/1/4 209/1/4
f 206/1/4 208/1/4 210/1/4
f 210/1/4 208/1/4 211/1/4
f 209/1/4 207/1/4 212/1/4
f 212/1/4 207/1/4 213/1/4
f 214/1/4 215/1/4 216/1/4
f 216/1/4 217/1/4 218/1/4
f 214/1/4 216/1/4 220/1/4
f 218/1/4 219/1/4 220/1/4
f 216/1/4 218/1/4 220/1/4
f 220/1/4 219/1/4 221/1/4
f 224/1/4 225/1/4 227/1/4
f 225/1/4 226/1/4 227/1/4
f 227/1/4 226/1/4 228/1/4
f 222/1/4 223/1/4 229/1/4
f 229/1/4 223/1/4 230/1/4
f 231/1/4 232/1/4 233/1/4
f 233/1/4 232/1/4 234/1/4
f 235/1/4 236/1/4 237/1/4
f 237/1/4 236/1/4 238/1/4
f 239/1/4 240/1/4 241/1/4
f 241/1/4 240/1/4 242/1/4
f 245/1/5 244/1/5 243/1/5
f 246/1/5 244/1/5 245/1/5
f 250/1/5 248/1/5 247/1/5
f 251/1/5 250/1/5 249/1/5
f 252/1/5 248/1/5 250/1/5
f 252/1/5 250/1/5 251/1/5
f 255/1/5 254/1/5 253/1/5
f 256/1/5 254/1/5 255/1/5
f 259/1/5 258/1/5 257/1/5
f 260/1/5 258/1/5 259/1/5
f 264/1/5 262/1/5 261/1/5
f 265/1/5 262/1/5 264/1/5
f 265/1/5 264/1/5 263/1/5
f 266/1/5 262/1/5 265/1/5
f 268/1/5 265/1/5 263/1/5
f 269/1/5 265/1/5 268/1/5
f 271/1/5 268/1/5 267/1/5
f 271/1/5 270/1/5 269/1/5
f 271/1/5 269/1/5 268/1/5
f 272/1/5 270/1/5 271/1/5
f 276/1/5 274/1/5 273/1/5
f 276/1/5 275/1/5 274/1/5
f 277/1/5 275/1/5 276/1/5
f 278/1/5 276/1/5 273/1/5
f 279/1/5 276/1/5 278/1/5
f 280/1/5 278/1/5 273/1/5
f 281/1/5 278/1/5 280/1/5
f 282/1/5 276/1/5 279/1/5
f 283/1/5 276/1/5 282/1/5
f 286/1/5 285/1/5 284/1/5
f 287/1/5 285/1/5 286/1/5
f 288/1/6 289/1/6 291/1/6
f 291/1/6 289/1/6 292/1/6
f 292/1/6 289/1/6 293/1/6
f 290/1/6 291/1/6 294/1/6
f 291/1/6 292/1/6 294/1/6
f 294/1/6 292/1/6 295/1/6
f 296/1/6 297/1/6 298/1/6
f 298/1/6 297/1/6 299/1/6
f 300/1/6 301/1/6 302/1/6
f 300/1/6 302/1/6 304/1/6
f 302/1/6 303/1/6 304/1/6
f 304/1/6 303/1/6 305/1/6
f 300/1/6 304/1/6 306/1/6
f 306/1/6 304/1/6 307/1/6
f 308/1/6 309/1/6 311/1/6
f 311/1/6 309/1/6 312/1/6
f 310/1/6 311/1/6 314/1/6
f 312/1/6 313/1/6 314/1/6
f 311/1/6 312/1/6 314/1/6
f 314/1/6 313/1/6 315/1/6
f 316/1/6 317/1/6 319/1/6
f 318/1/6 319/1/6 320/1/6
f 320/1/6 319/1/6 321/1/6
f 319/1/6 317/1/6 322/1/6
f 321/1/6 319/1/6 322/1/6
f 321/1/6 322/1/6 323/1/6
f 323/1/6 322/1/6 324/1/6
f 324/1/6 322/1/6 325/1/6
f 325/1/6 322/1/6 326/1/6
f 327/1/6 328/1/6 331/1/6
f 331/1/6 328/1/6 332/1/6
f 329/1/6 330/1/6 333/1/6
f 333/1/6 330/1/6 334/1/6
f 335/1/6 336/1/6 337/1/6
f 337/1/6 336/1/6 338/1/6
f 339/1/6 340/1/6 341/1/6
f 341/1/6 340/1/6 342/1/6
f 343/1/6 344/1/6 345/1/6
f 345/1/6 344/1/6 346/1/6
f 347/1/6 348/1/6 350/1/6
f 350/1/6 348/1/6 351/1/6
f 349/1/6 350/1/6 351/1/6
f 351/1/6 348/1/6 352/1/6
f 349/1/6 351/1/6 353/1/6
f 353/1/6 351/1/6 354/1/6
f 355/1/6 356/1/6 357/1/6
f 357/1/6 356/1/6 358/1/6
f 359/1/6 360/1/6 361/1/6
f 361/1/6 360/1/6 362/1/6
