# MagicaVoxel @ Ephtracy

# material
mtllib grass-04.mtl
usemtl palette

# normals
vn -1 0 0
vn 1 0 0
vn 0 0 1
vn 0 0 -1
vn 0 -1 0
vn 0 1 0

# texcoords
vt 0.970703 0.5
vt 0.974609 0.5

# verts
v -3.5 2 2.5
v -3.5 2 1.5
v -3.5 3 2.5
v -3.5 3 1.5
v -2.5 0 2.5
v -2.5 0 1.5
v -2.5 2 3.5
v -2.5 2 2.5
v -2.5 2 1.5
v -2.5 2 0.5
v -2.5 3 3.5
v -2.5 3 2.5
v -2.5 3 1.5
v -2.5 3 0.5
v 0.5 2 -1.5
v 0.5 2 -2.5
v 0.5 3 -1.5
v 0.5 3 -2.5
v 1.5 0 -1.5
v 1.5 0 -2.5
v 1.5 2 -0.5
v 1.5 2 -1.5
v 1.5 2 -2.5
v 1.5 2 -3.5
v 1.5 3 -0.5
v 1.5 3 -1.5
v 1.5 3 -2.5
v 1.5 3 -3.5
v -1.5 0 2.5
v -1.5 0 1.5
v -1.5 2 3.5
v -1.5 2 2.5
v -1.5 2 1.5
v -1.5 2 0.5
v -1.5 3 3.5
v -1.5 3 2.5
v -1.5 3 1.5
v -1.5 3 0.5
v -0.5 2 2.5
v -0.5 2 1.5
v -0.5 3 2.5
v -0.5 3 1.5
v 2.5 0 -1.5
v 2.5 0 -2.5
v 2.5 2 -0.5
v 2.5 2 -1.5
v 2.5 2 -2.5
v 2.5 2 -3.5
v 2.5 3 -0.5
v 2.5 3 -1.5
v 2.5 3 -2.5
v 2.5 3 -3.5
v 3.5 2 -1.5
v 3.5 2 -2.5
v 3.5 3 -1.5
v 3.5 3 -2.5
v -2.5 2 3.5
v -2.5 3 3.5
v -1.5 2 3.5
v -1.5 3 3.5
v -3.5 2 2.5
v -3.5 3 2.5
v -2.5 0 2.5
v -2.5 2 2.5
v -2.5 3 2.5
v -1.5 0 2.5
v -1.5 2 2.5
v -1.5 3 2.5
v -0.5 2 2.5
v -0.5 3 2.5
v 1.5 2 -0.5
v 1.5 3 -0.5
v 2.5 2 -0.5
v 2.5 3 -0.5
v 0.5 2 -1.5
v 0.5 3 -1.5
v 1.5 0 -1.5
v 1.5 2 -1.5
v 1.5 3 -1.5
v 2.5 0 -1.5
v 2.5 2 -1.5
v 2.5 3 -1.5
v 3.5 2 -1.5
v 3.5 3 -1.5
v -3.5 2 1.5
v -3.5 3 1.5
v -2.5 0 1.5
v -2.5 2 1.5
v -2.5 3 1.5
v -1.5 0 1.5
v -1.5 2 1.5
v -1.5 3 1.5
v -0.5 2 1.5
v -0.5 3 1.5
v -2.5 2 0.5
v -2.5 3 0.5
v -1.5 2 0.5
v -1.5 3 0.5
v 0.5 2 -2.5
v 0.5 3 -2.5
v 1.5 0 -2.5
v 1.5 2 -2.5
v 1.5 3 -2.5
v 2.5 0 -2.5
v 2.5 2 -2.5
v 2.5 3 -2.5
v 3.5 2 -2.5
v 3.5 3 -2.5
v 1.5 2 -3.5
v 1.5 3 -3.5
v 2.5 2 -3.5
v 2.5 3 -3.5
v -2.5 0 2.5
v -1.5 0 2.5
v -2.5 0 1.5
v -1.5 0 1.5
v 1.5 0 -1.5
v 2.5 0 -1.5
v 1.5 0 -2.5
v 2.5 0 -2.5
v -2.5 2 3.5
v -1.5 2 3.5
v -3.5 2 2.5
v -2.5 2 2.5
v -1.5 2 2.5
v -0.5 2 2.5
v -3.5 2 1.5
v -2.5 2 1.5
v -1.5 2 1.5
v -0.5 2 1.5
v -2.5 2 0.5
v -1.5 2 0.5
v 1.5 2 -0.5
v 2.5 2 -0.5
v 0.5 2 -1.5
v 1.5 2 -1.5
v 2.5 2 -1.5
v 3.5 2 -1.5
v 0.5 2 -2.5
v 1.5 2 -2.5
v 2.5 2 -2.5
v 3.5 2 -2.5
v 1.5 2 -3.5
v 2.5 2 -3.5
v -2.5 3 3.5
v -1.5 3 3.5
v -3.5 3 2.5
v -2.5 3 2.5
v -1.5 3 2.5
v -0.5 3 2.5
v -3.5 3 1.5
v -2.5 3 1.5
v -1.5 3 1.5
v -0.5 3 1.5
v -2.5 3 0.5
v -1.5 3 0.5
v 1.5 3 -0.5
v 2.5 3 -0.5
v 0.5 3 -1.5
v 1.5 3 -1.5
v 2.5 3 -1.5
v 3.5 3 -1.5
v 0.5 3 -2.5
v 1.5 3 -2.5
v 2.5 3 -2.5
v 3.5 3 -2.5
v 1.5 3 -3.5
v 2.5 3 -3.5

# faces
f 3/2/1 2/2/1 1/2/1
f 4/2/1 2/2/1 3/2/1
f 8/1/1 6/1/1 5/1/1
f 9/1/1 6/1/1 8/1/1
f 11/2/1 8/2/1 7/2/1
f 12/2/1 8/2/1 11/2/1
f 13/2/1 10/2/1 9/2/1
f 14/2/1 10/2/1 13/2/1
f 17/2/1 16/2/1 15/2/1
f 18/2/1 16/2/1 17/2/1
f 22/1/1 20/1/1 19/1/1
f 23/1/1 20/1/1 22/1/1
f 25/2/1 22/2/1 21/2/1
f 26/2/1 22/2/1 25/2/1
f 27/2/1 24/2/1 23/2/1
f 28/2/1 24/2/1 27/2/1
f 29/1/2 30/1/2 32/1/2
f 32/1/2 30/1/2 33/1/2
f 31/2/2 32/2/2 35/2/2
f 35/2/2 32/2/2 36/2/2
f 33/2/2 34/2/2 37/2/2
f 37/2/2 34/2/2 38/2/2
f 39/2/2 40/2/2 41/2/2
f 41/2/2 40/2/2 42/2/2
f 43/1/2 44/1/2 46/1/2
f 46/1/2 44/1/2 47/1/2
f 45/2/2 46/2/2 49/2/2
f 49/2/2 46/2/2 50/2/2
f 47/2/2 48/2/2 51/2/2
f 51/2/2 48/2/2 52/2/2
f 53/2/2 54/2/2 55/2/2
f 55/2/2 54/2/2 56/2/2
f 59/2/3 58/2/3 57/2/3
f 60/2/3 58/2/3 59/2/3
f 64/2/3 62/2/3 61/2/3
f 65/2/3 62/2/3 64/2/3
f 66/1/3 64/1/3 63/1/3
f 67/1/3 64/1/3 66/1/3
f 69/2/3 68/2/3 67/2/3
f 70/2/3 68/2/3 69/2/3
f 73/2/3 72/2/3 71/2/3
f 74/2/3 72/2/3 73/2/3
f 78/2/3 76/2/3 75/2/3
f 79/2/3 76/2/3 78/2/3
f 80/1/3 78/1/3 77/1/3
f 81/1/3 78/1/3 80/1/3
f 83/2/3 82/2/3 81/2/3
f 84/2/3 82/2/3 83/2/3
f 85/2/4 86/2/4 88/2/4
f 88/2/4 86/2/4 89/2/4
f 87/1/4 88/1/4 90/1/4
f 90/1/4 88/1/4 91/1/4
f 91/2/4 92/2/4 93/2/4
f 93/2/4 92/2/4 94/2/4
f 95/2/4 96/2/4 97/2/4
f 97/2/4 96/2/4 98/2/4
f 99/2/4 100/2/4 102/2/4
f 102/2/4 100/2/4 103/2/4
f 101/1/4 102/1/4 104/1/4
f 104/1/4 102/1/4 105/1/4
f 105/2/4 106/2/4 107/2/4
f 107/2/4 106/2/4 108/2/4
f 109/2/4 110/2/4 111/2/4
f 111/2/4 110/2/4 112/2/4
f 115/1/5 114/1/5 113/1/5
f 116/1/5 114/1/5 115/1/5
f 119/1/5 118/1/5 117/1/5
f 120/1/5 118/1/5 119/1/5
f 124/2/5 122/2/5 121/2/5
f 125/2/5 122/2/5 124/2/5
f 127/2/5 124/2/5 123/2/5
f 128/2/5 124/2/5 127/2/5
f 129/2/5 126/2/5 125/2/5
f 130/2/5 126/2/5 129/2/5
f 131/2/5 129/2/5 128/2/5
f 132/2/5 129/2/5 131/2/5
f 136/2/5 134/2/5 133/2/5
f 137/2/5 134/2/5 136/2/5
f 139/2/5 136/2/5 135/2/5
f 140/2/5 136/2/5 139/2/5
f 141/2/5 138/2/5 137/2/5
f 142/2/5 138/2/5 141/2/5
f 143/2/5 141/2/5 140/2/5
f 144/2/5 141/2/5 143/2/5
f 145/2/6 146/2/6 148/2/6
f 148/2/6 146/2/6 149/2/6
f 147/2/6 148/2/6 151/2/6
f 149/2/6 150/2/6 151/2/6
f 148/2/6 149/2/6 151/2/6
f 151/2/6 150/2/6 152/2/6
f 152/2/6 150/2/6 153/2/6
f 153/2/6 150/2/6 154/2/6
f 152/2/6 153/2/6 155/2/6
f 155/2/6 153/2/6 156/2/6
f 157/2/6 158/2/6 160/2/6
f 160/2/6 158/2/6 161/2/6
f 159/2/6 160/2/6 163/2/6
f 161/2/6 162/2/6 163/2/6
f 160/2/6 161/2/6 163/2/6
f 163/2/6 162/2/6 164/2/6
f 164/2/6 162/2/6 165/2/6
f 165/2/6 162/2/6 166/2/6
f 164/2/6 165/2/6 167/2/6
f 167/2/6 165/2/6 168/2/6
