# MagicaVoxel @ Ephtracy

# material
mtllib wall_corner.mtl
usemtl palette

# normals
vn -1 0 0
vn 1 0 0
vn 0 0 1
vn 0 0 -1
vn 0 -1 0
vn 0 1 0

# texcoords
vt 0.982422 0.5
vt 0.986328 0.5

# verts
v -9 0 -5
v -9 0 -9
v -9 12 -5
v -9 12 -9
v -9 14 -5
v -9 14 -9
v 5 0 9
v 5 0 -5
v 5 2 3
v 5 2 -1
v 5 5 3
v 5 5 -1
v 5 8 5
v 5 8 3
v 5 10 5
v 5 10 3
v 5 12 9
v 5 12 -5
v 5 14 9
v 5 14 -5
v 9 0 9
v 9 0 -9
v 9 2 -0
v 9 2 -4
v 9 5 -0
v 9 5 -4
v 9 7 6
v 9 7 3
v 9 8 -4
v 9 8 -6
v 9 9 6
v 9 9 3
v 9 10 -4
v 9 10 -6
v 9 12 9
v 9 12 -9
v 9 14 9
v 9 14 -9
v 5 0 9
v 5 12 9
v 5 14 9
v 9 0 9
v 9 12 9
v 9 14 9
v -9 0 -5
v -9 12 -5
v -9 14 -5
v -6 7 -5
v -6 9 -5
v -3 7 -5
v -3 9 -5
v 0 2 -5
v 0 5 -5
v 4 2 -5
v 4 5 -5
v 5 0 -5
v 5 12 -5
v 5 14 -5
v -9 0 -9
v -9 12 -9
v -9 14 -9
v -5 8 -9
v -5 10 -9
v -3 2 -9
v -3 5 -9
v -3 8 -9
v -3 10 -9
v 1 2 -9
v 1 5 -9
v 4 7 -9
v 4 9 -9
v 7 7 -9
v 7 9 -9
v 9 0 -9
v 9 12 -9
v 9 14 -9
v 5 0 9
v 9 0 9
v -9 0 -5
v 5 0 -5
v -9 0 -9
v 9 0 -9
v 5 14 9
v 9 14 9
v -9 14 -5
v 5 14 -5
v -9 14 -9
v 9 14 -9

# faces
f 3/2/1 2/2/1 1/2/1
f 4/2/1 2/2/1 3/2/1
f 5/1/1 4/1/1 3/1/1
f 6/1/1 4/1/1 5/1/1
f 9/2/1 8/2/1 7/2/1
f 10/2/1 8/2/1 9/2/1
f 11/2/1 9/2/1 7/2/1
f 11/1/1 10/1/1 9/1/1
f 12/2/1 8/2/1 10/2/1
f 12/1/1 10/1/1 11/1/1
f 13/2/1 11/2/1 7/2/1
f 13/2/1 12/2/1 11/2/1
f 14/2/1 12/2/1 13/2/1
f 15/2/1 13/2/1 7/2/1
f 15/1/1 14/1/1 13/1/1
f 16/2/1 12/2/1 14/2/1
f 16/1/1 14/1/1 15/1/1
f 17/2/1 15/2/1 7/2/1
f 17/2/1 16/2/1 15/2/1
f 18/2/1 8/2/1 12/2/1
f 18/2/1 16/2/1 17/2/1
f 18/2/1 12/2/1 16/2/1
f 19/1/1 18/1/1 17/1/1
f 20/1/1 18/1/1 19/1/1
f 21/2/2 22/2/2 23/2/2
f 23/2/2 22/2/2 24/2/2
f 21/2/2 23/2/2 25/2/2
f 23/1/2 24/1/2 25/1/2
f 24/2/2 22/2/2 26/2/2
f 25/1/2 24/1/2 26/1/2
f 21/2/2 25/2/2 27/2/2
f 25/2/2 26/2/2 27/2/2
f 27/2/2 26/2/2 28/2/2
f 26/2/2 22/2/2 29/2/2
f 28/2/2 26/2/2 29/2/2
f 29/2/2 22/2/2 30/2/2
f 27/1/2 28/1/2 31/1/2
f 21/2/2 27/2/2 31/2/2
f 28/2/2 29/2/2 32/2/2
f 31/1/2 28/1/2 32/1/2
f 29/1/2 30/1/2 33/1/2
f 32/2/2 29/2/2 33/2/2
f 31/2/2 32/2/2 33/2/2
f 30/2/2 22/2/2 34/2/2
f 33/1/2 30/1/2 34/1/2
f 31/2/2 33/2/2 35/2/2
f 21/2/2 31/2/2 35/2/2
f 33/2/2 34/2/2 35/2/2
f 34/2/2 22/2/2 36/2/2
f 35/2/2 34/2/2 36/2/2
f 35/1/2 36/1/2 37/1/2
f 37/1/2 36/1/2 38/1/2
f 42/2/3 40/2/3 39/2/3
f 43/1/3 41/1/3 40/1/3
f 43/2/3 40/2/3 42/2/3
f 44/1/3 41/1/3 43/1/3
f 48/2/3 46/2/3 45/2/3
f 49/2/3 46/2/3 48/2/3
f 50/2/3 48/2/3 45/2/3
f 50/1/3 49/1/3 48/1/3
f 51/2/3 46/2/3 49/2/3
f 51/1/3 49/1/3 50/1/3
f 52/2/3 50/2/3 45/2/3
f 52/2/3 51/2/3 50/2/3
f 53/2/3 51/2/3 52/2/3
f 54/2/3 52/2/3 45/2/3
f 54/1/3 53/1/3 52/1/3
f 55/2/3 51/2/3 53/2/3
f 55/1/3 53/1/3 54/1/3
f 56/2/3 54/2/3 45/2/3
f 56/2/3 55/2/3 54/2/3
f 57/1/3 47/1/3 46/1/3
f 57/2/3 55/2/3 56/2/3
f 57/2/3 46/2/3 51/2/3
f 57/2/3 51/2/3 55/2/3
f 58/1/3 47/1/3 57/1/3
f 59/2/4 60/2/4 62/2/4
f 62/2/4 60/2/4 63/2/4
f 59/2/4 62/2/4 64/2/4
f 64/2/4 62/2/4 65/2/4
f 62/1/4 63/1/4 66/1/4
f 65/2/4 62/2/4 66/2/4
f 63/2/4 60/2/4 67/2/4
f 66/1/4 63/1/4 67/1/4
f 64/1/4 65/1/4 68/1/4
f 59/2/4 64/2/4 68/2/4
f 65/2/4 66/2/4 69/2/4
f 68/1/4 65/1/4 69/1/4
f 66/2/4 67/2/4 69/2/4
f 68/2/4 69/2/4 70/2/4
f 69/2/4 67/2/4 70/2/4
f 70/2/4 67/2/4 71/2/4
f 68/2/4 70/2/4 72/2/4
f 70/1/4 71/1/4 72/1/4
f 71/2/4 67/2/4 73/2/4
f 72/1/4 71/1/4 73/1/4
f 59/2/4 68/2/4 74/2/4
f 68/2/4 72/2/4 74/2/4
f 72/2/4 73/2/4 74/2/4
f 60/1/4 61/1/4 75/1/4
f 74/2/4 73/2/4 75/2/4
f 73/2/4 67/2/4 75/2/4
f 67/2/4 60/2/4 75/2/4
f 75/1/4 61/1/4 76/1/4
f 80/2/5 78/2/5 77/2/5
f 81/2/5 80/2/5 79/2/5
f 82/2/5 78/2/5 80/2/5
f 82/2/5 80/2/5 81/2/5
f 83/1/6 84/1/6 86/1/6
f 85/1/6 86/1/6 87/1/6
f 86/1/6 84/1/6 88/1/6
f 87/1/6 86/1/6 88/1/6
