# MagicaVoxel @ Ephtracy

# material
mtllib alien_walk-01.mtl
usemtl palette

# normals
vn -1 0 0
vn 1 0 0
vn 0 0 1
vn 0 0 -1
vn 0 -1 0
vn 0 1 0

# texcoords
vt 0.435547 0.5
vt 0.970703 0.5
vt 0.974609 0.5
vt 0.978516 0.5

# verts
v -3.5 2 1.5
v -3.5 2 -0.5
v -3.5 8 2.5
v -3.5 8 1.5
v -3.5 8 -0.5
v -3.5 8 -3.5
v -3.5 15 2.5
v -3.5 15 -3.5
v -2.5 3 -0.5
v -2.5 3 -2.5
v -2.5 8 -0.5
v -2.5 8 -2.5
v -2.5 16 0.5
v -2.5 16 -0.5
v -2.5 17 0.5
v -2.5 17 -0.5
v -1.5 0 0.5
v -1.5 0 -2.5
v -1.5 1 0.5
v -1.5 1 -0.5
v -1.5 3 -0.5
v -1.5 3 -2.5
v -1.5 15 0.5
v -1.5 15 -0.5
v -1.5 16 0.5
v -1.5 16 -0.5
v 0.5 0 2.5
v 0.5 0 -0.5
v 0.5 1 2.5
v 0.5 1 1.5
v 0.5 3 1.5
v 0.5 3 -0.5
v 0.5 15 0.5
v 0.5 15 -0.5
v 0.5 18 0.5
v 0.5 18 -0.5
v 2.5 2 -0.5
v 2.5 2 -2.5
v 2.5 3 -0.5
v 2.5 3 -2.5
v -2.5 2 1.5
v -2.5 2 -0.5
v -2.5 3 1.5
v -2.5 3 -0.5
v -0.5 0 0.5
v -0.5 0 -2.5
v -0.5 1 0.5
v -0.5 1 -0.5
v -0.5 3 -0.5
v -0.5 3 -2.5
v -0.5 15 0.5
v -0.5 15 -0.5
v -0.5 17 0.5
v -0.5 17 -0.5
v 1.5 0 2.5
v 1.5 0 -0.5
v 1.5 1 2.5
v 1.5 1 1.5
v 1.5 3 1.5
v 1.5 3 -0.5
v 1.5 15 0.5
v 1.5 15 -0.5
v 1.5 17 0.5
v 1.5 17 -0.5
v 2.5 3 1.5
v 2.5 3 -0.5
v 2.5 8 1.5
v 2.5 8 -0.5
v 2.5 17 0.5
v 2.5 17 -0.5
v 2.5 18 0.5
v 2.5 18 -0.5
v 3.5 2 -0.5
v 3.5 2 -2.5
v 3.5 8 2.5
v 3.5 8 -0.5
v 3.5 8 -2.5
v 3.5 8 -3.5
v 3.5 15 2.5
v 3.5 15 -3.5
v -3.5 8 2.5
v -3.5 15 2.5
v -2.5 11 2.5
v -2.5 13 2.5
v -0.5 11 2.5
v -0.5 13 2.5
v 0.5 0 2.5
v 0.5 1 2.5
v 0.5 11 2.5
v 0.5 13 2.5
v 1.5 0 2.5
v 1.5 1 2.5
v 2.5 11 2.5
v 2.5 13 2.5
v 3.5 8 2.5
v 3.5 15 2.5
v -3.5 2 1.5
v -3.5 8 1.5
v -2.5 2 1.5
v -2.5 3 1.5
v -2.5 8 1.5
v 0.5 1 1.5
v 0.5 3 1.5
v 1.5 1 1.5
v 1.5 3 1.5
v 2.5 3 1.5
v 2.5 8 1.5
v -2.5 16 0.5
v -2.5 17 0.5
v -1.5 0 0.5
v -1.5 1 0.5
v -1.5 15 0.5
v -1.5 16 0.5
v -0.5 0 0.5
v -0.5 1 0.5
v -0.5 15 0.5
v -0.5 17 0.5
v 0.5 15 0.5
v 0.5 18 0.5
v 1.5 15 0.5
v 1.5 17 0.5
v 2.5 17 0.5
v 2.5 18 0.5
v -1.5 1 -0.5
v -1.5 3 -0.5
v -0.5 1 -0.5
v -0.5 3 -0.5
v 2.5 2 -0.5
v 2.5 3 -0.5
v 2.5 8 -0.5
v 3.5 2 -0.5
v 3.5 8 -0.5
v -3.5 2 -0.5
v -3.5 8 -0.5
v -2.5 2 -0.5
v -2.5 3 -0.5
v -2.5 8 -0.5
v -2.5 16 -0.5
v -2.5 17 -0.5
v -1.5 15 -0.5
v -1.5 16 -0.5
v -0.5 15 -0.5
v -0.5 17 -0.5
v 0.5 0 -0.5
v 0.5 3 -0.5
v 0.5 15 -0.5
v 0.5 18 -0.5
v 1.5 0 -0.5
v 1.5 3 -0.5
v 1.5 15 -0.5
v 1.5 17 -0.5
v 2.5 17 -0.5
v 2.5 18 -0.5
v -2.5 3 -2.5
v -2.5 8 -2.5
v -1.5 0 -2.5
v -1.5 3 -2.5
v -0.5 0 -2.5
v -0.5 3 -2.5
v 2.5 2 -2.5
v 2.5 3 -2.5
v 2.5 8 -2.5
v 3.5 2 -2.5
v 3.5 8 -2.5
v -3.5 8 -3.5
v -3.5 15 -3.5
v 3.5 8 -3.5
v 3.5 15 -3.5
v 0.5 0 2.5
v 1.5 0 2.5
v -1.5 0 0.5
v -0.5 0 0.5
v 0.5 0 -0.5
v 1.5 0 -0.5
v -1.5 0 -2.5
v -0.5 0 -2.5
v -3.5 2 1.5
v -2.5 2 1.5
v -3.5 2 -0.5
v -2.5 2 -0.5
v 2.5 2 -0.5
v 3.5 2 -0.5
v 2.5 2 -2.5
v 3.5 2 -2.5
v -2.5 3 1.5
v 0.5 3 1.5
v 1.5 3 1.5
v 2.5 3 1.5
v -2.5 3 -0.5
v -1.5 3 -0.5
v -0.5 3 -0.5
v 0.5 3 -0.5
v 1.5 3 -0.5
v 2.5 3 -0.5
v -2.5 3 -2.5
v -1.5 3 -2.5
v -0.5 3 -2.5
v 2.5 3 -2.5
v -3.5 8 2.5
v 3.5 8 2.5
v -3.5 8 1.5
v -2.5 8 1.5
v 2.5 8 1.5
v -3.5 8 -0.5
v -2.5 8 -0.5
v 2.5 8 -0.5
v 3.5 8 -0.5
v -2.5 8 -2.5
v 2.5 8 -2.5
v 3.5 8 -2.5
v -3.5 8 -3.5
v 3.5 8 -3.5
v -2.5 16 0.5
v -1.5 16 0.5
v -2.5 16 -0.5
v -1.5 16 -0.5
v 1.5 17 0.5
v 2.5 17 0.5
v 1.5 17 -0.5
v 2.5 17 -0.5
v 0.5 1 2.5
v 1.5 1 2.5
v 0.5 1 1.5
v 1.5 1 1.5
v -1.5 1 0.5
v -0.5 1 0.5
v -1.5 1 -0.5
v -0.5 1 -0.5
v -3.5 15 2.5
v 3.5 15 2.5
v -1.5 15 0.5
v -0.5 15 0.5
v 0.5 15 0.5
v 1.5 15 0.5
v -1.5 15 -0.5
v -0.5 15 -0.5
v 0.5 15 -0.5
v 1.5 15 -0.5
v -3.5 15 -3.5
v 3.5 15 -3.5
v -2.5 17 0.5
v -0.5 17 0.5
v -2.5 17 -0.5
v -0.5 17 -0.5
v 0.5 18 0.5
v 2.5 18 0.5
v 0.5 18 -0.5
v 2.5 18 -0.5

# faces
f 4/3/1 2/3/1 1/3/1
f 5/3/1 2/3/1 4/3/1
f 7/2/1 4/2/1 3/2/1
f 7/2/1 6/2/1 5/2/1
f 7/2/1 5/2/1 4/2/1
f 8/2/1 6/2/1 7/2/1
f 11/2/1 10/2/1 9/2/1
f 12/2/1 10/2/1 11/2/1
f 15/3/1 14/3/1 13/3/1
f 16/3/1 14/3/1 15/3/1
f 19/3/1 18/3/1 17/3/1
f 20/3/1 18/3/1 19/3/1
f 21/3/1 18/3/1 20/3/1
f 22/3/1 18/3/1 21/3/1
f 25/3/1 24/3/1 23/3/1
f 26/3/1 24/3/1 25/3/1
f 29/3/1 28/3/1 27/3/1
f 30/3/1 28/3/1 29/3/1
f 31/3/1 28/3/1 30/3/1
f 32/3/1 28/3/1 31/3/1
f 35/3/1 34/3/1 33/3/1
f 36/3/1 34/3/1 35/3/1
f 39/3/1 38/3/1 37/3/1
f 40/3/1 38/3/1 39/3/1
f 41/3/2 42/3/2 43/3/2
f 43/3/2 42/3/2 44/3/2
f 45/3/2 46/3/2 47/3/2
f 47/3/2 46/3/2 48/3/2
f 48/3/2 46/3/2 49/3/2
f 49/3/2 46/3/2 50/3/2
f 51/3/2 52/3/2 53/3/2
f 53/3/2 52/3/2 54/3/2
f 55/3/2 56/3/2 57/3/2
f 57/3/2 56/3/2 58/3/2
f 58/3/2 56/3/2 59/3/2
f 59/3/2 56/3/2 60/3/2
f 61/3/2 62/3/2 63/3/2
f 63/3/2 62/3/2 64/3/2
f 65/2/2 66/2/2 67/2/2
f 67/2/2 66/2/2 68/2/2
f 69/3/2 70/3/2 71/3/2
f 71/3/2 70/3/2 72/3/2
f 73/3/2 74/3/2 76/3/2
f 76/3/2 74/3/2 77/3/2
f 75/2/2 76/2/2 79/2/2
f 77/2/2 78/2/2 79/2/2
f 76/2/2 77/2/2 79/2/2
f 79/2/2 78/2/2 80/2/2
f 83/2/3 82/2/3 81/2/3
f 84/2/3 82/2/3 83/2/3
f 85/2/3 83/2/3 81/2/3
f 85/4/3 84/4/3 83/4/3
f 86/2/3 82/2/3 84/2/3
f 86/4/3 84/4/3 85/4/3
f 89/2/3 85/2/3 81/2/3
f 89/2/3 86/2/3 85/2/3
f 90/2/3 82/2/3 86/2/3
f 90/2/3 86/2/3 89/2/3
f 91/3/3 88/3/3 87/3/3
f 92/3/3 88/3/3 91/3/3
f 93/2/3 89/2/3 81/2/3
f 93/4/3 90/4/3 89/4/3
f 94/2/3 82/2/3 90/2/3
f 94/4/3 90/4/3 93/4/3
f 95/2/3 93/2/3 81/2/3
f 95/2/3 94/2/3 93/2/3
f 96/2/3 82/2/3 94/2/3
f 96/2/3 94/2/3 95/2/3
f 99/3/3 98/3/3 97/3/3
f 100/3/3 98/3/3 99/3/3
f 101/3/3 98/3/3 100/3/3
f 103/2/3 101/2/3 100/2/3
f 104/3/3 103/3/3 102/3/3
f 105/2/3 101/2/3 103/2/3
f 105/3/3 103/3/3 104/3/3
f 106/2/3 101/2/3 105/2/3
f 107/2/3 101/2/3 106/2/3
f 113/3/3 109/3/3 108/3/3
f 114/3/3 111/3/3 110/3/3
f 115/3/3 111/3/3 114/3/3
f 116/3/3 113/3/3 112/3/3
f 117/3/3 109/3/3 113/3/3
f 117/3/3 113/3/3 116/3/3
f 120/3/3 119/3/3 118/3/3
f 121/3/3 119/3/3 120/3/3
f 122/3/3 119/3/3 121/3/3
f 123/3/3 119/3/3 122/3/3
f 126/3/3 125/3/3 124/3/3
f 127/3/3 125/3/3 126/3/3
f 131/3/3 129/3/3 128/3/3
f 131/3/3 130/3/3 129/3/3
f 132/3/3 130/3/3 131/3/3
f 133/3/4 134/3/4 135/3/4
f 135/3/4 134/3/4 136/3/4
f 136/3/4 134/3/4 137/3/4
f 138/3/4 139/3/4 141/3/4
f 140/3/4 141/3/4 142/3/4
f 141/3/4 139/3/4 143/3/4
f 142/3/4 141/3/4 143/3/4
f 144/3/4 145/3/4 148/3/4
f 148/3/4 145/3/4 149/3/4
f 146/3/4 147/3/4 150/3/4
f 150/3/4 147/3/4 151/3/4
f 151/3/4 147/3/4 152/3/4
f 152/3/4 147/3/4 153/3/4
f 154/2/4 155/2/4 157/2/4
f 156/3/4 157/3/4 158/3/4
f 157/2/4 155/2/4 159/2/4
f 158/3/4 157/3/4 159/3/4
f 159/2/4 155/2/4 161/2/4
f 161/2/4 155/2/4 162/2/4
f 160/3/4 161/3/4 163/3/4
f 161/3/4 162/3/4 163/3/4
f 163/3/4 162/3/4 164/3/4
f 165/2/4 166/2/4 167/2/4
f 167/2/4 166/2/4 168/2/4
f 173/3/5 170/3/5 169/3/5
f 174/3/5 170/3/5 173/3/5
f 175/3/5 172/3/5 171/3/5
f 176/3/5 172/3/5 175/3/5
f 179/3/5 178/3/5 177/3/5
f 180/3/5 178/3/5 179/3/5
f 183/3/5 182/3/5 181/3/5
f 184/3/5 182/3/5 183/3/5
f 189/2/5 186/2/5 185/2/5
f 190/2/5 186/2/5 189/2/5
f 191/2/5 186/2/5 190/2/5
f 192/2/5 186/2/5 191/2/5
f 193/2/5 188/2/5 187/2/5
f 194/2/5 188/2/5 193/2/5
f 195/2/5 190/2/5 189/2/5
f 196/2/5 190/2/5 195/2/5
f 197/2/5 192/2/5 191/2/5
f 197/2/5 194/2/5 193/2/5
f 197/2/5 193/2/5 192/2/5
f 198/2/5 194/2/5 197/2/5
f 201/2/5 200/2/5 199/2/5
f 202/2/5 200/2/5 201/2/5
f 203/2/5 200/2/5 202/2/5
f 206/2/5 200/2/5 203/2/5
f 207/2/5 200/2/5 206/2/5
f 208/2/5 205/2/5 204/2/5
f 211/2/5 208/2/5 204/2/5
f 211/2/5 210/2/5 209/2/5
f 211/2/5 209/2/5 208/2/5
f 212/2/5 210/2/5 211/2/5
f 215/3/5 214/3/5 213/3/5
f 216/3/5 214/3/5 215/3/5
f 219/3/5 218/3/5 217/3/5
f 220/3/5 218/3/5 219/3/5
f 221/3/6 222/3/6 223/3/6
f 223/3/6 222/3/6 224/3/6
f 225/3/6 226/3/6 227/3/6
f 227/3/6 226/3/6 228/3/6
f 229/2/6 230/2/6 231/2/6
f 231/2/6 230/2/6 232/2/6
f 232/2/6 230/2/6 233/2/6
f 233/2/6 230/2/6 234/2/6
f 229/2/6 231/2/6 235/2/6
f 232/2/6 233/2/6 236/2/6
f 236/2/6 233/2/6 237/2/6
f 234/2/6 230/2/6 238/2/6
f 236/2/6 237/2/6 239/2/6
f 237/2/6 238/2/6 239/2/6
f 229/2/6 235/2/6 239/2/6
f 235/2/6 236/2/6 239/2/6
f 238/2/6 230/2/6 240/2/6
f 239/2/6 238/2/6 240/2/6
f 241/3/6 242/3/6 243/3/6
f 243/3/6 242/3/6 244/3/6
f 245/3/6 246/3/6 247/3/6
f 247/3/6 246/3/6 248/3/6
