# MagicaVoxel @ Ephtracy

# material
mtllib wood.mtl
usemtl palette

# normals
vn -1 0 0
vn 1 0 0
vn 0 0 1
vn 0 0 -1
vn 0 -1 0
vn 0 1 0

# texcoords
vt 0.908203 0.5
vt 0.970703 0.5
vt 0.974609 0.5
vt 0.978516 0.5

# verts
v -6.5 0 3.5
v -6.5 0 -3.5
v -6.5 1 2.5
v -6.5 1 -2.5
v -6.5 2 1.5
v -6.5 2 -1.5
v -6.5 3 0.5
v -6.5 3 -0.5
v -6.5 4 0.5
v -6.5 4 -0.5
v -6.5 5 1.5
v -6.5 5 -1.5
v -6.5 6 2.5
v -6.5 6 -2.5
v -6.5 7 3.5
v -6.5 7 -3.5
v 6.5 0 3.5
v 6.5 0 -3.5
v 6.5 1 2.5
v 6.5 1 -2.5
v 6.5 2 1.5
v 6.5 2 -1.5
v 6.5 3 0.5
v 6.5 3 -0.5
v 6.5 4 0.5
v 6.5 4 -0.5
v 6.5 5 1.5
v 6.5 5 -1.5
v 6.5 6 2.5
v 6.5 6 -2.5
v 6.5 7 3.5
v 6.5 7 -3.5
v -6.5 0 3.5
v -6.5 7 3.5
v -3.5 3 3.5
v -3.5 5 3.5
v 0.5 3 3.5
v 0.5 5 3.5
v 1.5 1 3.5
v 1.5 3 3.5
v 4.5 1 3.5
v 4.5 3 3.5
v 6.5 0 3.5
v 6.5 7 3.5
v -6.5 0 -3.5
v -6.5 7 -3.5
v -3.5 3 -3.5
v -3.5 5 -3.5
v 0.5 3 -3.5
v 0.5 5 -3.5
v 1.5 2 -3.5
v 1.5 4 -3.5
v 3.5 2 -3.5
v 3.5 4 -3.5
v 6.5 0 -3.5
v 6.5 7 -3.5
v -6.5 0 3.5
v 6.5 0 3.5
v -4.5 0 1.5
v -1.5 0 1.5
v 0.5 0 0.5
v 3.5 0 0.5
v -4.5 0 -0.5
v -1.5 0 -0.5
v 0.5 0 -1.5
v 3.5 0 -1.5
v -6.5 0 -3.5
v 6.5 0 -3.5
v -6.5 7 3.5
v 6.5 7 3.5
v -3.5 7 1.5
v 0.5 7 1.5
v 1.5 7 0.5
v 4.5 7 0.5
v -3.5 7 -0.5
v 0.5 7 -0.5
v 1.5 7 -1.5
v 4.5 7 -1.5
v -6.5 7 -3.5
v 6.5 7 -3.5

# faces
f 3/2/1 2/2/1 1/2/1
f 4/2/1 2/2/1 3/2/1
f 5/3/1 4/3/1 3/3/1
f 6/3/1 4/3/1 5/3/1
f 7/4/1 6/4/1 5/4/1
f 8/4/1 6/4/1 7/4/1
f 9/4/1 7/4/1 5/4/1
f 9/3/1 8/3/1 7/3/1
f 10/4/1 6/4/1 8/4/1
f 10/3/1 8/3/1 9/3/1
f 11/3/1 5/3/1 3/3/1
f 11/4/1 9/4/1 5/4/1
f 11/4/1 10/4/1 9/4/1
f 12/4/1 6/4/1 10/4/1
f 12/4/1 10/4/1 11/4/1
f 12/3/1 4/3/1 6/3/1
f 13/2/1 3/2/1 1/2/1
f 13/3/1 11/3/1 3/3/1
f 13/3/1 12/3/1 11/3/1
f 14/3/1 4/3/1 12/3/1
f 14/3/1 12/3/1 13/3/1
f 14/2/1 2/2/1 4/2/1
f 15/2/1 13/2/1 1/2/1
f 15/2/1 14/2/1 13/2/1
f 16/2/1 2/2/1 14/2/1
f 16/2/1 14/2/1 15/2/1
f 17/2/2 18/2/2 19/2/2
f 19/2/2 18/2/2 20/2/2
f 19/3/2 20/3/2 21/3/2
f 21/3/2 20/3/2 22/3/2
f 21/4/2 22/4/2 23/4/2
f 23/4/2 22/4/2 24/4/2
f 21/4/2 23/4/2 25/4/2
f 23/3/2 24/3/2 25/3/2
f 24/4/2 22/4/2 26/4/2
f 25/3/2 24/3/2 26/3/2
f 19/3/2 21/3/2 27/3/2
f 21/4/2 25/4/2 27/4/2
f 25/4/2 26/4/2 27/4/2
f 26/4/2 22/4/2 28/4/2
f 27/4/2 26/4/2 28/4/2
f 22/3/2 20/3/2 28/3/2
f 17/2/2 19/2/2 29/2/2
f 19/3/2 27/3/2 29/3/2
f 27/3/2 28/3/2 29/3/2
f 28/3/2 20/3/2 30/3/2
f 29/3/2 28/3/2 30/3/2
f 20/2/2 18/2/2 30/2/2
f 17/2/2 29/2/2 31/2/2
f 29/2/2 30/2/2 31/2/2
f 30/2/2 18/2/2 32/2/2
f 31/2/2 30/2/2 32/2/2
f 35/2/3 34/2/3 33/2/3
f 36/2/3 34/2/3 35/2/3
f 37/2/3 35/2/3 33/2/3
f 37/1/3 36/1/3 35/1/3
f 38/2/3 34/2/3 36/2/3
f 38/1/3 36/1/3 37/1/3
f 39/2/3 37/2/3 33/2/3
f 39/2/3 38/2/3 37/2/3
f 40/2/3 38/2/3 39/2/3
f 41/2/3 39/2/3 33/2/3
f 41/1/3 40/1/3 39/1/3
f 42/2/3 38/2/3 40/2/3
f 42/1/3 40/1/3 41/1/3
f 43/2/3 41/2/3 33/2/3
f 43/2/3 42/2/3 41/2/3
f 44/2/3 34/2/3 38/2/3
f 44/2/3 42/2/3 43/2/3
f 44/2/3 38/2/3 42/2/3
f 45/2/4 46/2/4 47/2/4
f 47/2/4 46/2/4 48/2/4
f 45/2/4 47/2/4 49/2/4
f 47/1/4 48/1/4 49/1/4
f 48/2/4 46/2/4 50/2/4
f 49/1/4 48/1/4 50/1/4
f 45/2/4 49/2/4 51/2/4
f 49/2/4 50/2/4 51/2/4
f 51/2/4 50/2/4 52/2/4
f 45/2/4 51/2/4 53/2/4
f 51/1/4 52/1/4 53/1/4
f 52/2/4 50/2/4 54/2/4
f 53/1/4 52/1/4 54/1/4
f 45/2/4 53/2/4 55/2/4
f 53/2/4 54/2/4 55/2/4
f 50/2/4 46/2/4 56/2/4
f 55/2/4 54/2/4 56/2/4
f 54/2/4 50/2/4 56/2/4
f 59/2/5 58/2/5 57/2/5
f 60/2/5 58/2/5 59/2/5
f 61/2/5 58/2/5 60/2/5
f 62/2/5 58/2/5 61/2/5
f 63/2/5 59/2/5 57/2/5
f 63/1/5 60/1/5 59/1/5
f 64/2/5 61/2/5 60/2/5
f 64/1/5 60/1/5 63/1/5
f 65/1/5 62/1/5 61/1/5
f 65/2/5 61/2/5 64/2/5
f 65/2/5 64/2/5 63/2/5
f 66/2/5 58/2/5 62/2/5
f 66/1/5 62/1/5 65/1/5
f 67/2/5 65/2/5 63/2/5
f 67/2/5 63/2/5 57/2/5
f 67/2/5 66/2/5 65/2/5
f 68/2/5 58/2/5 66/2/5
f 68/2/5 66/2/5 67/2/5
f 69/2/6 70/2/6 71/2/6
f 71/2/6 70/2/6 72/2/6
f 72/2/6 70/2/6 73/2/6
f 73/2/6 70/2/6 74/2/6
f 69/2/6 71/2/6 75/2/6
f 71/1/6 72/1/6 75/1/6
f 72/2/6 73/2/6 76/2/6
f 75/1/6 72/1/6 76/1/6
f 73/1/6 74/1/6 77/1/6
f 76/2/6 73/2/6 77/2/6
f 75/2/6 76/2/6 77/2/6
f 74/2/6 70/2/6 78/2/6
f 77/1/6 74/1/6 78/1/6
f 75/2/6 77/2/6 79/2/6
f 69/2/6 75/2/6 79/2/6
f 77/2/6 78/2/6 79/2/6
f 78/2/6 70/2/6 80/2/6
f 79/2/6 78/2/6 80/2/6
