# MagicaVoxel @ Ephtracy

# material
mtllib rock_5.mtl
usemtl palette

# normals
vn -1 0 0
vn 1 0 0
vn 0 0 1
vn 0 0 -1
vn 0 -1 0
vn 0 1 0

# texcoords
vt 0.876953 0.5

# verts
v -6.5 0 5.5
v -6.5 0 -6.5
v -6.5 4 0.5
v -6.5 4 -6.5
v -6.5 8 5.5
v -6.5 8 0.5
v -5.5 4 0.5
v -5.5 4 -5.5
v -5.5 5 0.5
v -5.5 5 -3.5
v -5.5 6 -3.5
v -5.5 6 -5.5
v -3.5 0 6.5
v -3.5 0 5.5
v -3.5 4 6.5
v -3.5 4 5.5
v -2.5 5 0.5
v -2.5 5 -3.5
v -2.5 6 -3.5
v -2.5 7 0.5
v -2.5 7 -3.5
v 0.5 4 -3.5
v 0.5 4 -6.5
v 0.5 7 -3.5
v 0.5 13 -3.5
v 0.5 13 -6.5
v 4.5 3 0.5
v 4.5 3 -3.5
v 4.5 6 0.5
v 4.5 6 -3.5
v -0.5 3 2.5
v -0.5 3 0.5
v -0.5 4 5.5
v -0.5 4 2.5
v -0.5 4 -3.5
v -0.5 4 -5.5
v -0.5 6 -3.5
v -0.5 6 -5.5
v -0.5 7 0.5
v -0.5 8 5.5
v -0.5 8 0.5
v 1.5 3 0.5
v 1.5 3 -3.5
v 1.5 7 0.5
v 1.5 7 -3.5
v 3.5 0 6.5
v 3.5 0 2.5
v 3.5 3 2.5
v 3.5 4 6.5
v 3.5 4 2.5
v 4.5 0 2.5
v 4.5 0 0.5
v 4.5 3 2.5
v 4.5 3 0.5
v 6.5 0 -4.5
v 6.5 0 -6.5
v 6.5 6 -3.5
v 6.5 6 -4.5
v 6.5 13 -3.5
v 6.5 13 -6.5
v 7.5 0 0.5
v 7.5 0 -4.5
v 7.5 6 0.5
v 7.5 6 -4.5
v -3.5 0 6.5
v -3.5 4 6.5
v 3.5 0 6.5
v 3.5 4 6.5
v -6.5 0 5.5
v -6.5 8 5.5
v -3.5 0 5.5
v -3.5 4 5.5
v -0.5 4 5.5
v -0.5 8 5.5
v 3.5 0 2.5
v 3.5 3 2.5
v 4.5 0 2.5
v 4.5 3 2.5
v -0.5 3 0.5
v -0.5 7 0.5
v 1.5 3 0.5
v 1.5 7 0.5
v 4.5 0 0.5
v 4.5 3 0.5
v 4.5 6 0.5
v 7.5 0 0.5
v 7.5 6 0.5
v -5.5 5 -3.5
v -5.5 6 -3.5
v -2.5 5 -3.5
v -2.5 6 -3.5
v 0.5 7 -3.5
v 0.5 13 -3.5
v 1.5 3 -3.5
v 1.5 7 -3.5
v 4.5 3 -3.5
v 4.5 6 -3.5
v 6.5 6 -3.5
v 6.5 13 -3.5
v -0.5 3 2.5
v -0.5 4 2.5
v 3.5 3 2.5
v 3.5 4 2.5
v -6.5 4 0.5
v -6.5 8 0.5
v -5.5 4 0.5
v -5.5 5 0.5
v -2.5 5 0.5
v -2.5 7 0.5
v -0.5 7 0.5
v -0.5 8 0.5
v -2.5 6 -3.5
v -2.5 7 -3.5
v -0.5 4 -3.5
v -0.5 6 -3.5
v 0.5 4 -3.5
v 0.5 7 -3.5
v 6.5 0 -4.5
v 6.5 6 -4.5
v 7.5 0 -4.5
v 7.5 6 -4.5
v -5.5 4 -5.5
v -5.5 6 -5.5
v -0.5 4 -5.5
v -0.5 6 -5.5
v -6.5 0 -6.5
v -6.5 4 -6.5
v 0.5 4 -6.5
v 0.5 13 -6.5
v 6.5 0 -6.5
v 6.5 13 -6.5
v -3.5 0 6.5
v 3.5 0 6.5
v -6.5 0 5.5
v -3.5 0 5.5
v 3.5 0 2.5
v 4.5 0 2.5
v 4.5 0 0.5
v 7.5 0 0.5
v 6.5 0 -4.5
v 7.5 0 -4.5
v -6.5 0 -6.5
v 6.5 0 -6.5
v -0.5 3 2.5
v 3.5 3 2.5
v 4.5 3 2.5
v -0.5 3 0.5
v 1.5 3 0.5
v 4.5 3 0.5
v 1.5 3 -3.5
v 4.5 3 -3.5
v -3.5 4 6.5
v 3.5 4 6.5
v -3.5 4 5.5
v -0.5 4 5.5
v -0.5 4 2.5
v 3.5 4 2.5
v -6.5 4 0.5
v -5.5 4 0.5
v -0.5 4 -3.5
v 0.5 4 -3.5
v -5.5 4 -5.5
v -0.5 4 -5.5
v -6.5 4 -6.5
v 0.5 4 -6.5
v -5.5 5 0.5
v -2.5 5 0.5
v -5.5 5 -3.5
v -2.5 5 -3.5
v 4.5 6 0.5
v 7.5 6 0.5
v -5.5 6 -3.5
v -2.5 6 -3.5
v -0.5 6 -3.5
v 4.5 6 -3.5
v 6.5 6 -3.5
v 6.5 6 -4.5
v 7.5 6 -4.5
v -5.5 6 -5.5
v -0.5 6 -5.5
v -2.5 7 0.5
v -0.5 7 0.5
v 1.5 7 0.5
v -2.5 7 -3.5
v 0.5 7 -3.5
v 1.5 7 -3.5
v -6.5 8 5.5
v -0.5 8 5.5
v -6.5 8 0.5
v -0.5 8 0.5
v 0.5 13 -3.5
v 6.5 13 -3.5
v 0.5 13 -6.5
v 6.5 13 -6.5

# faces
f 3/1/1 2/1/1 1/1/1
f 4/1/1 2/1/1 3/1/1
f 5/1/1 3/1/1 1/1/1
f 6/1/1 3/1/1 5/1/1
f 9/1/1 8/1/1 7/1/1
f 10/1/1 8/1/1 9/1/1
f 11/1/1 8/1/1 10/1/1
f 12/1/1 8/1/1 11/1/1
f 15/1/1 14/1/1 13/1/1
f 16/1/1 14/1/1 15/1/1
f 19/1/1 18/1/1 17/1/1
f 20/1/1 19/1/1 17/1/1
f 21/1/1 19/1/1 20/1/1
f 24/1/1 23/1/1 22/1/1
f 25/1/1 23/1/1 24/1/1
f 26/1/1 23/1/1 25/1/1
f 29/1/1 28/1/1 27/1/1
f 30/1/1 28/1/1 29/1/1
f 31/1/2 32/1/2 34/1/2
f 35/1/2 36/1/2 37/1/2
f 37/1/2 36/1/2 38/1/2
f 34/1/2 32/1/2 39/1/2
f 33/1/2 34/1/2 39/1/2
f 33/1/2 39/1/2 40/1/2
f 40/1/2 39/1/2 41/1/2
f 42/1/2 43/1/2 44/1/2
f 44/1/2 43/1/2 45/1/2
f 46/1/2 47/1/2 48/1/2
f 46/1/2 48/1/2 49/1/2
f 49/1/2 48/1/2 50/1/2
f 51/1/2 52/1/2 53/1/2
f 53/1/2 52/1/2 54/1/2
f 55/1/2 56/1/2 58/1/2
f 57/1/2 58/1/2 59/1/2
f 58/1/2 56/1/2 60/1/2
f 59/1/2 58/1/2 60/1/2
f 61/1/2 62/1/2 63/1/2
f 63/1/2 62/1/2 64/1/2
f 67/1/3 66/1/3 65/1/3
f 68/1/3 66/1/3 67/1/3
f 71/1/3 70/1/3 69/1/3
f 72/1/3 70/1/3 71/1/3
f 73/1/3 70/1/3 72/1/3
f 74/1/3 70/1/3 73/1/3
f 77/1/3 76/1/3 75/1/3
f 78/1/3 76/1/3 77/1/3
f 81/1/3 80/1/3 79/1/3
f 82/1/3 80/1/3 81/1/3
f 86/1/3 84/1/3 83/1/3
f 86/1/3 85/1/3 84/1/3
f 87/1/3 85/1/3 86/1/3
f 90/1/3 89/1/3 88/1/3
f 91/1/3 89/1/3 90/1/3
f 95/1/3 93/1/3 92/1/3
f 96/1/3 95/1/3 94/1/3
f 97/1/3 95/1/3 96/1/3
f 98/1/3 95/1/3 97/1/3
f 99/1/3 93/1/3 95/1/3
f 99/1/3 95/1/3 98/1/3
f 100/1/4 101/1/4 102/1/4
f 102/1/4 101/1/4 103/1/4
f 104/1/4 105/1/4 106/1/4
f 106/1/4 105/1/4 107/1/4
f 107/1/4 105/1/4 108/1/4
f 108/1/4 105/1/4 109/1/4
f 109/1/4 105/1/4 110/1/4
f 110/1/4 105/1/4 111/1/4
f 112/1/4 113/1/4 115/1/4
f 114/1/4 115/1/4 116/1/4
f 115/1/4 113/1/4 117/1/4
f 116/1/4 115/1/4 117/1/4
f 118/1/4 119/1/4 120/1/4
f 120/1/4 119/1/4 121/1/4
f 122/1/4 123/1/4 124/1/4
f 124/1/4 123/1/4 125/1/4
f 126/1/4 127/1/4 128/1/4
f 126/1/4 128/1/4 130/1/4
f 128/1/4 129/1/4 130/1/4
f 130/1/4 129/1/4 131/1/4
f 135/1/5 133/1/5 132/1/5
f 136/1/5 133/1/5 135/1/5
f 136/1/5 135/1/5 134/1/5
f 138/1/5 137/1/5 136/1/5
f 140/1/5 139/1/5 138/1/5
f 141/1/5 139/1/5 140/1/5
f 142/1/5 136/1/5 134/1/5
f 142/1/5 138/1/5 136/1/5
f 142/1/5 140/1/5 138/1/5
f 143/1/5 140/1/5 142/1/5
f 144/1/6 145/1/6 147/1/6
f 145/1/6 146/1/6 147/1/6
f 147/1/6 146/1/6 148/1/6
f 148/1/6 146/1/6 149/1/6
f 148/1/6 149/1/6 150/1/6
f 150/1/6 149/1/6 151/1/6
f 152/1/6 153/1/6 154/1/6
f 154/1/6 153/1/6 155/1/6
f 155/1/6 153/1/6 156/1/6
f 156/1/6 153/1/6 157/1/6
f 158/1/6 159/1/6 162/1/6
f 160/1/6 161/1/6 163/1/6
f 158/1/6 162/1/6 164/1/6
f 162/1/6 163/1/6 164/1/6
f 163/1/6 161/1/6 165/1/6
f 164/1/6 163/1/6 165/1/6
f 166/1/6 167/1/6 168/1/6
f 168/1/6 167/1/6 169/1/6
f 170/1/6 171/1/6 175/1/6
f 175/1/6 171/1/6 176/1/6
f 176/1/6 171/1/6 177/1/6
f 177/1/6 171/1/6 178/1/6
f 173/1/6 174/1/6 179/1/6
f 172/1/6 173/1/6 179/1/6
f 179/1/6 174/1/6 180/1/6
f 181/1/6 182/1/6 184/1/6
f 182/1/6 183/1/6 184/1/6
f 184/1/6 183/1/6 185/1/6
f 185/1/6 183/1/6 186/1/6
f 187/1/6 188/1/6 189/1/6
f 189/1/6 188/1/6 190/1/6
f 191/1/6 192/1/6 193/1/6
f 193/1/6 192/1/6 194/1/6
